<svg xmlns="http://www.w3.org/2000/svg" xmlns:xlink="http://www.w3.org/1999/xlink" viewBox="0 0 500 500"><defs><style>.cls-1,.cls-5{fill:#a1e3dd;}.cls-10,.cls-17,.cls-2,.cls-35,.cls-37,.cls-8{fill:none;}.cls-3{fill:#fff;}.cls-36,.cls-4{fill:#80b2ba;}.cls-4{opacity:0.54;}.cls-5{opacity:0.56;}.cls-6{fill:#f0f0f0;}.cls-7{clip-path:url(#clip-path);}.cls-37,.cls-8{stroke:#fff;}.cls-10,.cls-17,.cls-35,.cls-37,.cls-8{stroke-miterlimit:10;}.cls-8{stroke-width:0.75px;}.cls-9{fill:#110809;}.cls-10{stroke:#110809;stroke-width:2px;}.cls-11{fill:#f7fae6;}.cls-12{fill:#ff9575;}.cls-13{fill:#0e398a;}.cls-14{fill:#f02b66;}.cls-15{fill:#2155b5;}.cls-16{fill:#1c0029;}.cls-17{stroke:#051433;opacity:0.6;}.cls-18{fill:#111314;}.cls-19{fill:url(#linear-gradient);}.cls-20{fill:#151a36;}.cls-21{fill:#fad100;}.cls-22{fill:#d4004a;}.cls-23{fill:url(#linear-gradient-2);}.cls-24{fill:#7a483a;}.cls-25{fill:url(#linear-gradient-3);}.cls-26{fill:#fff5f5;}.cls-27{fill:#c9cdd1;}.cls-28{fill:#006149;}.cls-29{fill:#40a876;}.cls-30{fill:#138f70;}.cls-31{fill:#47ba9b;}.cls-32{fill:url(#linear-gradient-4);}.cls-33{fill:url(#linear-gradient-5);}.cls-34{clip-path:url(#clip-path-2);}.cls-35{stroke:#47ba9b;stroke-width:0.5px;}</style><clipPath id="clip-path"><path class="cls-1" d="M457.52,411.61c-20.71,2.11-42.33.31-62.94.31H105.31c-15.44,0-31,0-46.37.91-5.83.35-11.87.34-17.25-1.94a16.88,16.88,0,0,1-8.95-8.39c-2.11-4.9,1.67-8.88.34-13.73-.8-2.91-4-4.93-6.48-6.21-7.27-3.73-11.65-13-7.12-20.5a17.82,17.82,0,0,1,9.4-7.12c7.87-2.85,16.83-2.81,25.09-2.79,7.8,0,15.58,1,23.38,1h358c4.08,0,8.17,0,12.26,0,4.45,0,11.32-.41,12.79,5.29,1.38,5.34-5.52,9.45-6,14.59-1.29,14.4,27.63,8.4,28,24.8.08,3.71-2.35,7.12-5.47,9.14s-6.83,2.85-10.49,3.45C463.46,410.92,460.5,411.3,457.52,411.61Z"/></clipPath><linearGradient id="linear-gradient" x1="113.74" y1="167.96" x2="120.66" y2="187.08" gradientUnits="userSpaceOnUse"><stop offset="0.27" stop-color="#371b85" stop-opacity="0.91"/><stop offset="0.56" stop-color="#f26d5a" stop-opacity="0"/></linearGradient><linearGradient id="linear-gradient-2" x1="390.61" y1="188.59" x2="387.46" y2="211.15" xlink:href="#linear-gradient"/><linearGradient id="linear-gradient-3" x1="306.9" y1="204.69" x2="301.49" y2="226.91" xlink:href="#linear-gradient"/><linearGradient id="linear-gradient-4" x1="61.52" y1="364.69" x2="65.03" y2="393.36" gradientUnits="userSpaceOnUse"><stop offset="0" stop-color="#201b59" stop-opacity="0.91"/><stop offset="0.56" stop-color="#2d3a8d" stop-opacity="0"/></linearGradient><linearGradient id="linear-gradient-5" x1="422.1" y1="363.4" x2="425.88" y2="394.27" xlink:href="#linear-gradient-4"/><clipPath id="clip-path-2"><path class="cls-2" d="M363.25,370.84a4.63,4.63,0,0,1,1.92-3.56c1.69-1,3.95-.16,5.92-.53,5.53-1,5.49-8.75,5.37-13q-.1-4.06-.36-8.11a4.45,4.45,0,0,0-.48-2.08,3.06,3.06,0,0,0-3.44-1.07c-2.42.69-3.78,3.3-4.21,5.78s-.22,5.06-.87,7.5a4.12,4.12,0,0,1-.54,1.3,2.89,2.89,0,0,1-1.21,1,2.34,2.34,0,0,1-2.24,0c-.77-.49-.64-1.11-.64-1.85a22.83,22.83,0,0,0-.22-2.71c-.24-2-.44-4.07-.63-6.11-.38-4-.71-8-1.12-12a13.78,13.78,0,0,0-1.32-5.36c-4-7.11-10-.87-10.55,4.32-1.26,11.8,4.88,22.93,4.37,34.64a3.59,3.59,0,0,1-.27,1.45c-.93,1.84-3.89,1.52-5.25.46-2.14-1.67-1.38-5.28-1.38-7.45,0-1.78-.57-3.78-2.28-4.61-1.95-.94-4.49.19-5.6,1.92-1.43,2.25-1.27,6.09-1.05,8.59a10.47,10.47,0,0,0,1.64,5.16,6.5,6.5,0,0,0,4.8,2.84c1.15.07,2.45-.17,3.32.51,1.06.84.68,2.36.72,3.64.08,2.53,2.24,4.7,4.76,5.76a24.85,24.85,0,0,0,8.13,1.41c2.34-3.77,2.5-8.11,2.62-12.32A45.33,45.33,0,0,1,363.25,370.84Z"/></clipPath></defs><title>2668383</title><g id="BACKGROUND"><rect class="cls-3" width="500" height="500"/></g><g id="OBJEKTS"><path class="cls-4" d="M389.21,363.65a157,157,0,0,0,11.11-12.49,135.9,135.9,0,0,0,22.07-39.26c2.1-5.95,2-10.66,2.59-16.69.65-7,3.6-13.73,5.61-20.42,8.25-27.47,16.59-55.19,19.94-83.78,2.75-23.55,6.09-55.37-21.71-64.46-12.91-4.22-27-2.13-40.08,1.59s-25.7,9-39.08,11.35c-19.17,3.3-39,.22-57.47-5.92-47.26-15.73-91.88-52.83-144.77-41.66-24.41,5.16-45.67,21.22-60.34,41.4S63.84,177.55,58.72,202C48,253.26,46.25,320.6,79.74,363.65Z"/><path class="cls-5" d="M424.35,106c-5.54-12.79-14.43-24.2-26.15-30.33C376.51,64.32,351.52,65.22,328.54,72a169.24,169.24,0,0,0-67.24,38.52C251.07,120.14,242,131,230.79,139.44c-19.59,14.73-44.41,20.93-68.85,22.83-18.18,1.41-36.93.71-54,7-20.88,7.65-37,25.06-47.66,44.58-7.86,14.42-13,30.07-17.53,45.82-3.61,12.72-3.83,25.73-6.05,38.81-3.27,19.16-4.15,39.8-.89,59.5H431.9c1.86-2.84,3.68-5.71,5.43-8.61,12.95-21.4,21.47-45.2,26.51-69.65,4.79-23.19,10.82-51.36,5.87-74.78A32.62,32.62,0,0,0,466,194.48c-6.43-10.47-20.87-13.28-28.42-23-8.2-10.5-5.92-25.35-6.69-38.65A80.63,80.63,0,0,0,424.35,106Z"/><path class="cls-4" d="M398.49,362.09c7.93-6.24,14-14.26,16.43-25.68,4-18.32,4-37.23,4-56,0-18.22.05-36.49-1.66-54.65-1.33-14.14-4-32.14-9.47-45.28-3.21-7.74-8.91-14.71-16.61-18-4-1.71-8.83-2.32-12.46,0-1.85,1.2-3.18,3-4.85,4.49a14.36,14.36,0,0,1-17.7.41c-3.3-2.59-5.23-6.5-7.2-10.21-5.44-10.29-12-20.23-21.15-27.49-26.19-20.9-55.82-2.12-77.52,16.31-10.62,9-21.19,18.71-30.23,29.36-7.88,9.28-14,20.08-21.8,29.54a250.46,250.46,0,0,1-55.23,49.58c-12.39,8.15-25.65,15.31-36.13,25.82-7.67,7.7-13.6,16.95-19,26.42-14.64,25.85-23.62,65.31,8,83.13,9.84,5.55,21.17,7.84,32.38,9.29,22.74,3,45.77,2.79,68.58.78,11.7-1,23.31-2.63,34.92-4.38,7.91-1.2,15.73-.42,23.54-1.7a563.52,563.52,0,0,1,63.43-7c18.11-.9,33.51-2.06,50.62-9.32C380,373.13,390.25,368.58,398.49,362.09Z"/><path class="cls-6" d="M457.52,411.61c-20.71,2.11-42.33.31-62.94.31H105.31c-15.44,0-31,0-46.37.91-5.83.35-11.87.34-17.25-1.94a16.88,16.88,0,0,1-8.95-8.39c-2.11-4.9,1.67-8.88.34-13.73-.8-2.91-4-4.93-6.48-6.21-7.27-3.73-11.65-13-7.12-20.5a17.82,17.82,0,0,1,9.4-7.12c7.87-2.85,16.83-2.81,25.09-2.79,7.8,0,15.58,1,23.38,1h358c4.08,0,8.17,0,12.26,0,4.45,0,11.32-.41,12.79,5.29,1.38,5.34-5.52,9.45-6,14.59-1.29,14.4,27.63,8.4,28,24.8.08,3.71-2.35,7.12-5.47,9.14s-6.83,2.85-10.49,3.45C463.46,410.92,460.5,411.3,457.52,411.61Z"/><path class="cls-1" d="M457.52,411.61c-20.71,2.11-42.33.31-62.94.31H105.31c-15.44,0-31,0-46.37.91-5.83.35-11.87.34-17.25-1.94a16.88,16.88,0,0,1-8.95-8.39c-2.11-4.9,1.67-8.88.34-13.73-.8-2.91-4-4.93-6.48-6.21-7.27-3.73-11.65-13-7.12-20.5a17.82,17.82,0,0,1,9.4-7.12c7.87-2.85,16.83-2.81,25.09-2.79,7.8,0,15.58,1,23.38,1h358c4.08,0,8.17,0,12.26,0,4.45,0,11.32-.41,12.79,5.29,1.38,5.34-5.52,9.45-6,14.59-1.29,14.4,27.63,8.4,28,24.8.08,3.71-2.35,7.12-5.47,9.14s-6.83,2.85-10.49,3.45C463.46,410.92,460.5,411.3,457.52,411.61Z"/><g class="cls-7"><line class="cls-8" x1="8.82" y1="359.75" x2="480.92" y2="359.75"/><line class="cls-8" x1="8.82" y1="366.84" x2="480.92" y2="366.84"/><line class="cls-8" x1="8.82" y1="373.93" x2="480.92" y2="373.93"/><line class="cls-8" x1="8.82" y1="381.02" x2="480.92" y2="381.02"/><line class="cls-8" x1="8.82" y1="388.11" x2="480.92" y2="388.11"/><line class="cls-8" x1="8.82" y1="395.21" x2="480.92" y2="395.21"/><line class="cls-8" x1="8.82" y1="402.3" x2="480.92" y2="402.3"/><line class="cls-8" x1="8.82" y1="409.39" x2="480.92" y2="409.39"/><line class="cls-8" x1="8.82" y1="416.48" x2="480.92" y2="416.48"/><line class="cls-8" x1="8.82" y1="423.57" x2="480.92" y2="423.57"/></g><rect class="cls-9" x="419.76" y="305.92" width="2.11" height="46.44" transform="translate(841.62 658.28) rotate(180)"/><path class="cls-10" d="M439.22,362.11c0-6.86-12.14-9.74-18.2-9.75-7.22,0-18.2,2.65-18.2,9.75"/><line class="cls-10" x1="420.81" y1="363.94" x2="420.81" y2="352.55"/><path class="cls-9" d="M399.84,363.76a3,3,0,1,0,3-3A3,3,0,0,0,399.84,363.76Z"/><path class="cls-9" d="M417.89,363.76a3,3,0,1,0,3-3A3,3,0,0,0,417.89,363.76Z"/><path class="cls-9" d="M435.94,363.76a3,3,0,1,0,3-3A3,3,0,0,0,435.94,363.76Z"/><path class="cls-11" d="M424.88,290.32V256.15a10.71,10.71,0,0,1,10.71-10.71h11.79a10.72,10.72,0,0,1,10.71,10.71v38.21a15.39,15.39,0,0,1-15.34,15.34H404.3a1.81,1.81,0,0,1-1.8-1.81h0a1.81,1.81,0,0,1,1.8-1.8h4.82A15.77,15.77,0,0,0,424.88,290.32Z"/><rect class="cls-9" x="148.35" y="299.84" width="2.11" height="46.44"/><path class="cls-10" d="M131,356c0-6.86,12.14-9.74,18.2-9.75,7.22,0,18.2,2.65,18.2,9.75"/><line class="cls-10" x1="149.4" y1="357.86" x2="149.4" y2="346.47"/><path class="cls-9" d="M170.37,357.68a3,3,0,1,1-3-3A3,3,0,0,1,170.37,357.68Z"/><path class="cls-9" d="M152.32,357.68a3,3,0,1,1-3-3A3,3,0,0,1,152.32,357.68Z"/><circle class="cls-9" cx="131.29" cy="357.68" r="2.98"/><path class="cls-11" d="M149.38,284.25V250.07a10.7,10.7,0,0,0-10.7-10.7h-11.8a10.71,10.71,0,0,0-10.71,10.7v38.21a15.4,15.4,0,0,0,15.35,15.34H170a1.8,1.8,0,0,0,1.8-1.81h0A1.8,1.8,0,0,0,170,300h-4.81A15.77,15.77,0,0,1,149.38,284.25Z"/><path class="cls-12" d="M239,211.17a16.88,16.88,0,0,0,1.12-2.89c.95-3.22.91-6.83,2.78-9.62,1,.11,1.37,1.36,1.45,2.37a70,70,0,0,1-.28,11.21,10,10,0,0,1-.49,2.78,9.79,9.79,0,0,1-1.75,2.64c-1.33,1.59-4.76,7.64-7.08,6.8-1.64-.61-2.28-4.26-1.8-5.69.71-2.13,2.2-2.82,3.66-4.23A12.45,12.45,0,0,0,239,211.17Z"/><path class="cls-9" d="M202.49,365.6a2.18,2.18,0,0,0,.33.42c1.73,1.72,5.31,1.35,7.69,1.36a60.18,60.18,0,0,0,10.12-.52,4.75,4.75,0,0,0,2.92-1.29c1.62-1.89-1-3.46-2.42-3.84s-3.08-.48-4.61-.74a8.89,8.89,0,0,1-4.25-1.68,5.48,5.48,0,0,1-1.85-3.12c-.26-1.29-.14-2.82-1.08-3.71a3.42,3.42,0,0,0-3.59-.25,6.18,6.18,0,0,0-2.69,3.36c-.78,2.11-.6,4.51-.84,6.7A5.42,5.42,0,0,0,202.49,365.6Z"/><path class="cls-13" d="M215,300.85c-.08-.56-.16-1.11-.26-1.66-1.05-6.41-3.33-12.26-4.88-18.49-2.14-8.59-4.28-17.11-7.1-25.51-1.16-3.45-2.06-7.78-3.84-10.94-1.63-2.9-3.84-2.67-7.21-2-1.88.36-3.89.77-5.26,2.11a9.34,9.34,0,0,0-1.9,3.22,60.68,60.68,0,0,0-4.27,19.34c-.35,4.67.64,8.17,1.75,12.53,1.27,4.93,1.24,9.42,4.08,13.91,1.91,3,4.52,5.7,5.65,9.1s1,7,2.08,10.42c1,3,2.43,5.82,3.67,8.72,1.41,3.28,1.56,6.93,1.7,10.5q.52,13.37,1,26.73l12.39-2.61a2.45,2.45,0,0,0,1.51-.7,2.55,2.55,0,0,0,.33-1.79c-.68-10.88.62-21.79,1.12-32.68A108.63,108.63,0,0,0,215,300.85Z"/><path class="cls-9" d="M162,369.66a2.4,2.4,0,0,0,.32.41c1.74,1.72,5.31,1.36,7.7,1.37a61.37,61.37,0,0,0,10.12-.53,4.78,4.78,0,0,0,2.92-1.29c1.62-1.89-1-3.46-2.43-3.83s-3.07-.49-4.61-.75a8.89,8.89,0,0,1-4.24-1.68,5.49,5.49,0,0,1-1.85-3.11c-.26-1.3-.14-2.83-1.08-3.72a3.42,3.42,0,0,0-3.59-.25,6.21,6.21,0,0,0-2.69,3.36c-.78,2.11-.6,4.52-.84,6.7A5.39,5.39,0,0,0,162,369.66Z"/><path class="cls-12" d="M207.62,189.4a5.18,5.18,0,0,0,.56-.17,6.28,6.28,0,0,0,3.53-3.73,12.9,12.9,0,0,0,.64-5.21,34.92,34.92,0,0,1-.12-4,12.42,12.42,0,0,0,.09-4c-.87-3.31-4.93-3.73-7.77-3.64a11.78,11.78,0,0,0-9.13,5,5.59,5.59,0,0,0-.47,5.21,6.57,6.57,0,0,0,3.28,2.95l-6,6.79c-1.78,2-4,3.86-4.68,6.6-.4,1.6,1.72,2,2.51.87a10.26,10.26,0,0,1,2-2,2.24,2.24,0,0,0,2.18,2,1.87,1.87,0,0,0,2.43,1.61c4.1-1.47,5.46-6.59,9.66-8C206.73,189.61,207.18,189.52,207.62,189.4Z"/><path class="cls-14" d="M193.42,203.18c.6-2.2,3.6-6.68,2.49-8.68a4.75,4.75,0,0,0-4.92-2,12.08,12.08,0,0,0-5.05,2.48,63.31,63.31,0,0,0-20,25.14,20.32,20.32,0,0,0-2,6.56,23.62,23.62,0,0,0,.9,7.22q3.52,15.35,7.06,30.69c2.53,1.07,5.51-1,6.48-3.55s.51-5.43.09-8.15q-.8-5.06-1.38-10.13c-.43-3.71-.74-7.68,1-11,.78-1.44,1.94-2.71,2.36-4.3.26-1,.21-2.09.55-3.08.81-2.34,3.41-3.69,4.87-5.61a44.1,44.1,0,0,0,4.79-8.08A52,52,0,0,0,193.42,203.18Z"/><path class="cls-14" d="M207.58,221a34.82,34.82,0,0,1,2.26-11c1.22-3.5,3.22-6.83,4.07-10.41a3.77,3.77,0,0,0,.11-1.6,3.6,3.6,0,0,0-1.66-2.05c-4.8-3.32-11.91-4.82-17.66-4.57-8.42.38-14.58,7.75-15.52,15.84-.51,4.33.22,8.7,1.14,13s2,8.5,2.29,12.85c.18,3,0,5.92-.14,8.89-.09,2.75-.71,5.75,2.28,7.11,7.25,3.3,14.95,1.49,18.79-5.62a36.83,36.83,0,0,0,3.33-10.72A62.86,62.86,0,0,0,207.58,221Z"/><path class="cls-14" d="M233.45,216.13l-9.27,8.9a15,15,0,0,1-3,2.42c-1-4.11-1.7-8.33-2.79-12.41-1-3.67-.72-7.53-1.42-11.25a9.93,9.93,0,0,0-1.89-4.52c-1-1.24-1.45-2.82-3-3.55-.38-.19-.8-.29-1.18-.49-.94-.47-1.7-1.49-2.75-1.45a.79.79,0,0,0-.55.19.89.89,0,0,0-.21.35,6.43,6.43,0,0,0-.27,2.19,10.9,10.9,0,0,1-.88,4.66A21.5,21.5,0,0,0,204.5,205a30.23,30.23,0,0,0-1.75,10.36c.1,2.35,1.45,3.55,2.21,5.77a55.67,55.67,0,0,1,1.45,7.36A29.51,29.51,0,0,0,214,243a5.43,5.43,0,0,0,2.21,1.59c6.69,2,12.08-6.62,15.73-10.76A47.5,47.5,0,0,0,241,218.44a40.15,40.15,0,0,0-5.08-4.68Z"/><path class="cls-15" d="M189.71,236.19a11.85,11.85,0,0,0-3.5-.89c-.75-.07-2.42-.61-3.08-.15s-.92,2.44-1.34,3.27c-1.26,2.48-3.29,4.48-5.15,6.5a71.39,71.39,0,0,0-7.72,10.1,19.11,19.11,0,0,0-2.91,6.5c-1,5.15,1.87,9.55,2,14.57s-2.79,9.68-3.77,14.65c-1.44,7.31,1.33,14.8,1.17,22.25a76.1,76.1,0,0,1-1.6,11.4c-2.17,12.45-2.12,25.16-2.08,37.8l8.49-.84a6.24,6.24,0,0,0,2.89-.78,5.56,5.56,0,0,0,1.48-1.68c5.5-8.4,3.73-18.66,5.83-28.2q2.49-11.35,4.94-22.71c.61-2.84,1.63-5.6,2.28-8.47,1.27-5.54,2-10.91,3.56-16.37,1.76-6.09,4-12.6,4.85-18.84.22-1.53,4.88-19.64,6.74-18.49C198.15,243,194.54,238.21,189.71,236.19Z"/><path class="cls-16" d="M215.64,173.65c1.44-1.28,2.44-3,1.74-5a4.81,4.81,0,0,0-5.34-3c-1.58.32-2.92,1.38-4.48,1.75-2.84.68-5.86-1-8.7-.3a5.34,5.34,0,0,0-3.06,2.1c-.77,1.08-1.11,2.42-1.88,3.51-1.24,1.74-3.3,2.48-5.22,3.22-1.56.6-4.31,1.24-5.2,2.79a5.74,5.74,0,0,0-.69,3.63,7.39,7.39,0,0,1,.18,1.48c-.08,1.18-1.06,2.07-1.8,3a6.53,6.53,0,0,0-1,6.89,8.25,8.25,0,0,0,3.64,3.24,9.58,9.58,0,0,0,3.3,1.13,12.76,12.76,0,0,0,10.6-3.58,12.39,12.39,0,0,0,3.47-8.77c0-1.59-.27-3.44.87-4.54.93-.89,2-1,2.27-2.44.19-1-.35-2.11.19-3a3.18,3.18,0,0,1,2-1.4,7.67,7.67,0,0,1,3.43.16c2.15.44,3.84.7,5.55-.76Z"/><path class="cls-12" d="M205.11,180.28c0-.35-.06-.7-.06-1a3.17,3.17,0,0,0,0-1,1.52,1.52,0,0,0-1.84-.9,3,3,0,0,0-1.72,1.41c-.82,1.29-.79,3.42.86,4.1,1.24.52,2.69-.83,2.8-2.06A4,4,0,0,0,205.11,180.28Z"/><path class="cls-17" d="M187.41,255.57c-1.95-1.08-7.64-4.73-7.64-4.73-.27-.09-3.81,5.49-4.25,8.21a3.94,3.94,0,0,0,.7,3.24,3.33,3.33,0,0,0,1.69,1,5.33,5.33,0,0,0,4.2-.8c1.77-1.13,4.36-5.1,5.3-6.94"/><path class="cls-3" d="M208.71,183a2.16,2.16,0,0,0,1,1.37,1.38,1.38,0,0,0,1.6-.13,1.74,1.74,0,0,0,.36-.56,3.16,3.16,0,0,0,.23-1s0-.06,0-.07,0,.05,0,0"/><path class="cls-12" d="M161,124.75c.06-1.76-.24-3.64-.32-5.34a18.19,18.19,0,0,0-.25-2.56,1.7,1.7,0,0,0-.23-.63,1.91,1.91,0,0,0-.84-.6,2.24,2.24,0,0,0-2.13-.19,2.14,2.14,0,0,0-.53.59,11.48,11.48,0,0,0-1.62,4.28c-.2,1-.1,3.32-1,3.84.51-.29-.27-4.29-1.49-3.93a.78.78,0,0,0-.49.69,3.42,3.42,0,0,0,.07.9c.31,2.23-1.05,4.41-.92,6.66.08,1.49.79,2.86,1,4.32a21.4,21.4,0,0,1,.25,4.73c-.08,1.13,0,4.68-1.23,5.33a7.52,7.52,0,0,1,5.25-.61l1-6.41a19.46,19.46,0,0,1,1-4.14c.73-1.85,2-3.48,2.39-5.46A8.82,8.82,0,0,0,161,124.75Z"/><path class="cls-18" d="M130.93,361.91c.21.18.43.35.65.51,2.38,1.71,5.29,2.36,8,3.28,1.44.48,5.45,1.64,3.64,3.77s-6.12,1.71-8.6,1.5c-2.7-.22-5.39-.78-8.1-.62a24,24,0,0,1-5.14.21c-5.94-.95-2.86-9.1-2.85-13.08s-.12-7.84.89-11.63c.45-1.67,1.28-3.45,2.91-4.05a6,6,0,0,1,3.71.3c1.24.49,1.46,1.47,1.81,2.73A41.07,41.07,0,0,1,129.15,357a7.78,7.78,0,0,0,.27,2.85A5.11,5.11,0,0,0,130.93,361.91Z"/><path class="cls-12" d="M112.07,176.14c.06.24.13.48.2.72a15.31,15.31,0,0,1,.33,2.88c.15,1.67.23,3.39.54,5,.39,2.13,5.88,11.68,7.93,11.64,2.26,0,4-9.29,3.66-11.49-.52-3-2.11-8.92-2.12-9a7.88,7.88,0,0,0-3.6-4.48c-1.88-.93-4.51-.74-6.53-.52a1.74,1.74,0,0,0-.92.3c-.48.4-.39,1.15-.25,1.77C111.54,174.08,111.79,175.12,112.07,176.14Z"/><path class="cls-19" d="M123.15,179.33a.12.12,0,0,0,0-.14c-.32-1.28-.57-2.19-.57-2.21-2.86-7.8-10.93-5.5-10.35.12,0,.52.16,1.71.28,3.07l.94.66A6.85,6.85,0,0,0,123.15,179.33Z"/><path class="cls-12" d="M121.27,159.91c-1.53-.59-4.14,1.61-5.75,2-1.56.56-4,1.28-5,2.6-2.07,2.8-1.08,7.09.81,9.95.32.47,1,1.71,1.37,2.15a8.73,8.73,0,0,0,9.6,2.48c2.6-1,3.77-3.41,3.83-6.6,0-.57-.2-2.41-.27-3C125.49,166,122.89,160.53,121.27,159.91Z"/><path class="cls-20" d="M123.22,153.56a6,6,0,0,0-1,.48c-1.71,1-3.82,1-5.77,1.39-2.89.62-5.82,2.09-7.36,4.73-1.88,3.24-.66,7.33.31,10.69a3.84,3.84,0,0,0,.25.67c1.2,2.22,2.8.35,3-1.34.14-1.06,0-2.14.18-3.19a5.12,5.12,0,0,1,5.1-4.23c2.27.16,5-.48,6.13-2.65a7.37,7.37,0,0,0,.44-5.78,1.4,1.4,0,0,0-.44-.69A1,1,0,0,0,123.22,153.56Z"/><path class="cls-20" d="M125.84,167.83c0,.12,0,.24,0,.36a.5.5,0,0,1-.28-.12c-1.18-1.63-1.35-3.77-2.46-5.42-.47-.7-1.25-.71-1.66-1.27a2.41,2.41,0,0,1,.58-2.92,1.83,1.83,0,0,1,2.4.32,3.11,3.11,0,0,1,.38.75,17.5,17.5,0,0,1,.84,5.09A26.51,26.51,0,0,1,125.84,167.83Z"/><path class="cls-12" d="M112.39,173.11a2.13,2.13,0,0,1-1,1,1.61,1.61,0,0,1-1.42-.06,4.13,4.13,0,0,1-1.33-2.49,2.16,2.16,0,0,1,.81-1.92C111.58,168,113.33,171.31,112.39,173.11Z"/><path class="cls-12" d="M126.52,167.64v.05a4,4,0,0,1,0,1.19,1.35,1.35,0,0,1-.64,1c-.71.39-1.71-.43-2-1a3,3,0,0,1,0-2.6,1.47,1.47,0,0,1,1.48-.86,1.36,1.36,0,0,1,.88.81,4,4,0,0,1,.24,1.2Z"/><path class="cls-21" d="M136.1,187.81a1.62,1.62,0,0,0-1.17-.64c-1.33-.31-2.64-.67-3.94-1.07a27.09,27.09,0,0,0-3.57-1.17,8.19,8.19,0,0,1-1-.2,6.65,6.65,0,0,1-.69-.28l-1.28-.58a5.46,5.46,0,0,1-.93,4.08,5.72,5.72,0,0,1-5.16,1.73,5.31,5.31,0,0,1-4.16-2.77,27.82,27.82,0,0,1-1.26-2.78,9.06,9.06,0,0,0-2.64.43c-1.38.29-2.75.64-4.11,1-2.08.54-4.16,1.1-6.22,1.71-2.24,1.8.07,4.95-.24,6.32-.93,4.12-.4,53.85-.4,53.85l33.48-.54c.2-3,.39-6,.58-9.05q.6-9.79,1.13-19.58c.33-6.27.66-12.54.8-18.81,0-1.19,0-2.39,0-3.58a22.41,22.41,0,0,1,0-2.84l0-.2a31.87,31.87,0,0,0,.8-4.32A1.44,1.44,0,0,0,136.1,187.81Z"/><path class="cls-22" d="M138,257.54q-.23-4.22-.5-8.42a13.57,13.57,0,0,0-1.44-6.25c-1.5-2.49-5.94-4.92-8.52-6.29-3.67-2-8.31-.93-11.54,1.49-3.4,2.54-5.53,6.46-6.86,10.49a37.28,37.28,0,0,0-.73,20.62c.92,3.62,3,7.62,3.09,11.36.13,4.54-1.68,8.4.21,12.94,1,2.3,2.61,4.24,3.61,6.52,1.55,3.51,1.43,7.51,1.27,11.35q-.91,22.8-1.84,45.6h16.73a0,0,0,0,1,0,0q1.95-13.17,3.57-26.41,1.49-12.13,2.7-24.31C139.37,289.94,138.88,273.88,138,257.54Z"/><path class="cls-18" d="M75.86,360.1a1.84,1.84,0,0,0,0,.93c.24.85,1.54,1.53,2.12,2.26,1.07,1.35,2.9,1.83,4.61,2,1.55.18,4.83,0,5.72,1.66a1.87,1.87,0,0,1,.16,1c-.37,4.33-7.84,3.28-10.67,3.09l-8-.53c-3.85-.26-7.33-1.87-5.94-6.39a22,22,0,0,1,1.09-2.67L68,354.91a14.42,14.42,0,0,1,3.26-5c1.84-1.59,6.38-2.26,7.37.72a5,5,0,0,1-.38,3.16c-.47,1.34-.94,2.67-1.4,4A20.74,20.74,0,0,0,75.86,360.1Z"/><path class="cls-14" d="M120.9,239a3.8,3.8,0,0,0-.73-2.24,11.92,11.92,0,0,0-1.6-1.1c-1.54-1.21-.85-1.87-3.36-2.25a20.92,20.92,0,0,0-5.7-.05c-3.31.42-6.81,1.61-9.13,4.12-4.12,4.44-6,10.68-6.64,16.58-.83,7.92.21,16-.75,23.87-.57,4.67-1.83,9.23-2.61,13.88-.44,2.61-.75,5.3-1.94,7.67A37.71,37.71,0,0,1,85.33,304c-4.74,6.69-4.74,14.81-7.4,22.32-3.09,8.73-8.65,20.33-12.15,28.9l1.28.5c1.28.56,2.59,1.06,3.89,1.59,2.57,1,5,2.26,7.54,3.48,5.75-10,14.3-22.79,20.26-32.62s11.89-18.24,15.2-29.39C119.67,279.56,122.87,259,120.9,239Z"/><path class="cls-15" d="M121.24,220.76q.11-.45.18-.9c.89-5.11,1.43-10.27,1.84-15.44q.3-3.87.54-7.76c.13-2.19.52-4.34.67-6.54.13-1.9.28-3.92,1.58-5.39a.57.57,0,0,0,.29,0c3.63-.79,6.73-4.14,9.16-7.63a1.51,1.51,0,0,1,1.18-.07,2.43,2.43,0,0,1,1.26,1.89c.52,2.43,0,4.9.18,7.35.14,2.2.41,4,.36,6.25,0,2.43.33,4.71-.68,7-1.16,2.65-1,5.29-1,8.16.48,16.08,1.68,32.15,3.23,48.09.07.32-.36.48-.69.49a87.56,87.56,0,0,1-11.89-.45,5.28,5.28,0,0,1-2.08-.48,4,4,0,0,1-1.34-1.39c-2.15-3.32-2.13-7.07-2.34-10.85q-.39-6.69-.76-13.39c-.1-1.71-.37-3.49-.33-5.21A22,22,0,0,1,121.24,220.76Z"/><path class="cls-15" d="M95.73,219.35c-1.35,10.84-3.35,21.58-4.68,32.43-.12,1-.7,2.48.2,3.23a3.41,3.41,0,0,0,1.69.6,85.18,85.18,0,0,0,12.86,1.09c3.25,0,8,.59,10.91-1.2s3.48-5.32,4-8.52a125.94,125.94,0,0,0,1.45-13.42,38.21,38.21,0,0,0-.17-6.33c-.28-2.11-.07-4.27-.42-6.38a23.6,23.6,0,0,0-1.23-4.16,159.68,159.68,0,0,1-4.79-16.18c-1.26-5.32-2-10.71-3-16a.17.17,0,0,0-.06-.12.18.18,0,0,0-.15-.05,50.56,50.56,0,0,0-5.08.55c-1.6.11-3.22-.05-4.81.14A6.14,6.14,0,0,0,98.16,187c-1.57,2-1.53,5.13-1.42,7.56.11,2.27.54,4.55.47,6.81C97,207.41,96.48,213.39,95.73,219.35Z"/><path class="cls-12" d="M81.27,271.49c0-1.93-1-3.74-2-5.38a2.22,2.22,0,0,0-.45-.56.7.7,0,0,0-.68-.11,1,1,0,0,0-.33.34c-1.17,1.86-.06,2.8,1.14,4.12.44.48.92,1.11.7,1.73a2.5,2.5,0,0,1-.68.84c-.39.4-.67,2,.36,1.5A2.81,2.81,0,0,0,81.27,271.49Z"/><path class="cls-18" d="M81.46,277.25c0-1.46.18-3.42-.87-4.59s-2.65-1.35-4-1.46c-3.65-.29-5.08,1.94-5.61,5.25-.14.87,1.22,1,1.36.17a5.78,5.78,0,0,1,1.15-3.23,4,4,0,0,1,3.55-.76c1.26.19,2.47.51,2.88,1.87a11.55,11.55,0,0,1,.16,2.94C80.12,278.32,81.47,278.12,81.46,277.25Z"/><path class="cls-12" d="M79.94,264.34a21.77,21.77,0,0,0-.56,2.76,17.58,17.58,0,0,0,.36,4c.12,1,.31,2.39-.57,3.15a2.43,2.43,0,0,1-1.62.55,4.49,4.49,0,0,1-4-2.48,8.62,8.62,0,0,1-.7-3.25c-.2-3.09,1.55-5.74,2.81-8.47a4.61,4.61,0,0,1,1.59-2.25,2,2,0,0,1,2.6,1.17,6,6,0,0,1,.32,3.52C80.13,263.5,80,263.92,79.94,264.34Z"/><rect class="cls-13" x="52.13" y="276.32" width="45.23" height="29.03" rx="1" transform="translate(37.04 -7.08) rotate(7.2)"/><path class="cls-15" d="M98.51,280.23l-23.14,8.61a.82.82,0,0,1-.73-.09l-20.27-14.1a.67.67,0,0,1,.52-1.2l43.41,5.48A.67.67,0,0,1,98.51,280.23Z"/><path class="cls-15" d="M75.78,288.39c0-.83-1.23-1-1.28-.17s-.14,1.61-.26,2.41,1.15,1,1.28.16A24.11,24.11,0,0,0,75.78,288.39Z"/><path class="cls-15" d="M96,188a24.08,24.08,0,0,0-8.79,15.21,21.56,21.56,0,0,1-1,4.79,21.17,21.17,0,0,1-2.36,3.88,30.82,30.82,0,0,0-4.8,11.86c-.84,4.82-.53,9.8-1.49,14.6-1.65,8.23-3.89,15.93-4.61,24.34.76.17,9.05,1.68,8.87,2.18,1.25-3.59,2.62-7.16,3.79-10.78.92-2.85,2.16-5.34,3.34-8.13,1.77-4.2,1.08-9.29,3.55-13.12,1-1.49,2.35-2.66,3.38-4.1,3.21-4.44,2.74-10.62,5.36-15.43,1.46-2.68,3.81-4.79,5.17-7.51,2.43-4.85,1.12-10.33.22-15.37-.71-4-2.77-6.53-7-4.62A19.48,19.48,0,0,0,96,188Z"/><path class="cls-18" d="M123.89,224.66a1.42,1.42,0,1,1-1.42-1.41A1.42,1.42,0,0,1,123.89,224.66Z"/><path class="cls-18" d="M123.89,233.46a1.42,1.42,0,1,1-1.42-1.42A1.42,1.42,0,0,1,123.89,233.46Z"/><path class="cls-3" d="M117.64,173.23a2.74,2.74,0,0,0,5.41-.85Z"/><path class="cls-15" d="M150.23,134.75c-1.48,4.25-1.62,9.75-2.4,14.1a17.71,17.71,0,0,1-1.09,4.13c-.78,1.77-2.12,3.25-3,5-1.7,3.32-1.58,7.28-2.88,10.77-2.07,5.58-7.46,9.28-10.22,14.56s-2.94,12.28-2.23,18.66c.26,2.31.62,4.54,1,6.63,1,5.37,10.52-5,12-6.58,5-5.29,9.54-11.32,11.21-18.53.46-2,.69-4.07,1.1-6.1s1.07-4.28,1.63-6.42c2.34-8.89,4.54-18.65,4.34-27.88-.05-2.54-.18-5.07-.24-7.6A48.84,48.84,0,0,1,150.23,134.75Z"/><path class="cls-13" d="M110.78,184.3c-.08.56-.19,2.32-.2,2.5-.12,1.17-.24,2.34-.37,3.51l-.69,6.8c0,.4-.09.8-.13,1.2l4.43,1.16-3.42,4.07,11,16.84c-.89-4.34-1.76-8.69-2.72-13-.88-4-2-8-3-11.94s-1.94-7.69-2.92-11.53a10.21,10.21,0,0,0-2,.24A.63.63,0,0,0,110.78,184.3Z"/><path class="cls-13" d="M127.66,190q-.37-2.68-.66-5.37a6.35,6.35,0,0,1-2.52-.73c0,.64-.15,2.44-.16,2.67-.08,1-.19,2-.33,3-.27,1.89-.73,3.75-1.07,5.61a87.86,87.86,0,0,0-.88,11.71q-.15,3.36-.28,6.74c0,1.12-.09,2.25-.14,3.37,0,.58-.05,1.17-.08,1.75,0,.34.1,1.21-.08,1.48l6.91-16.73-3.81-4.07a10.57,10.57,0,0,0,2.32-.62c.51-.14,1-.26,1.52-.41.27-.08.55-.1.63-.35a4.79,4.79,0,0,0-.29-1.49C128.33,194.42,128,192.22,127.66,190Z"/><path class="cls-9" d="M370.46,366a7.31,7.31,0,0,1-.91,1.51c-2.4,3-6.78,3.31-10.27,4.93-1.58.73-3.89,2.85-2.34,4.67,1.07,1.25,3.79,1.14,5.25,1a149.08,149.08,0,0,0,15.48-1.93,2.66,2.66,0,0,0,1.33-.5,2.73,2.73,0,0,0,.66-2q.27-7.08.1-14.18s-6.52-.17-7.13.11c-1.36.6-1.17,1.73-1.33,3.05A11.29,11.29,0,0,1,370.46,366Z"/><path class="cls-9" d="M410.17,372a6.58,6.58,0,0,1-1.39,1.11,42.69,42.69,0,0,1-7.18,3.45c-1.9.7-4,1.38-5.13,3.07-2.55,3.83,2.7,4.76,5.23,4.58a149.08,149.08,0,0,0,15.48-1.93,2.83,2.83,0,0,0,1.34-.5,2.77,2.77,0,0,0,.65-2q.27-7.09.1-14.18c0,.05-6.65-.27-7.21.1-1.07.71-.55,2.22-.65,3.31A4.92,4.92,0,0,1,410.17,372Z"/><path class="cls-22" d="M411.13,270a61.6,61.6,0,0,0-4.36-16.34c-.28-.67-.82-2.45-1.68-2.61-.48-.09-2.12,1.21-2.64,1.44a25.66,25.66,0,0,1-3.32,1.18c-2.49.74-5.06,1.22-7.5,2.13-1.88.7-5.08,1.88-5.93,3.78-1.18,2.65-2.27,5.33-3.29,8.05-.91,2.44-2.27,5-2.72,7.57-.39,2.22-.39,4.29-1.15,6.54-3,9-8.43,17.27-10.42,26.59a67.74,67.74,0,0,0-1.19,12.07,453.29,453.29,0,0,0,1.29,47.05h13.19c.41-2.89.81-6.79,1.22-9.67a52.36,52.36,0,0,1,1.95-9.55c.6-1.77,1.39-3.48,1.88-5.29,1.45-5.42.13-11.53,2.76-16.49.65-1.22,1.51-2.31,2.2-3.51a24.29,24.29,0,0,0,2.23-6.45c1.53-6.54,2.56-13.33,5.71-19.26,1.79-3.37,4.21-4.57,6.76-7,2-1.93,3.59-5.88,4.21-8.55A35.2,35.2,0,0,0,411.13,270Z"/><path class="cls-12" d="M353.16,183.78a12.34,12.34,0,0,1-.32-5.54,33.45,33.45,0,0,0-.17-7.81,5.83,5.83,0,0,0-.59-2.09c-.52-.94-2.1-1.88-3.12-1.12a3.07,3.07,0,0,0-.82,1.12,7.14,7.14,0,0,0-1,3.23c.05,1.11.4,2.31,0,3.39s-.91-.21-1-.74-.71-1.73-1.38-1.44-.07,2.55.1,3.14c.65,2.36,1.95,4.51,2.31,7,.19,1.28.11,2.59.24,3.88.22,2.21,1,4.28,1.4,6.47a41.59,41.59,0,0,1,.52,4.59c0,.81.06,1.61.14,2.42a30.39,30.39,0,0,0,.94,4.61c.43,1.65.86,3.29,1.28,4.94.39,1.49.87,2.84,1.39,4.27a26.41,26.41,0,0,0,4.46,8c1.87,2.37,3.18,5.89,6.72,5.85a23.2,23.2,0,0,0,5.66-1.18,18.74,18.74,0,0,0,5.9-2.89,17.13,17.13,0,0,0,6.24-8.68,6.48,6.48,0,0,0,.25-3.64c-.89-3.2-4.59-3.58-7.34-3.16l-4.67.72c-1.5.23-3.54,1.7-4.43-.21-2-4.33-4.93-8.29-7.2-12.49-1.78-3.32-3-6.94-4.54-10.36C353.77,185.29,353.44,184.53,353.16,183.78Z"/><path class="cls-14" d="M427.29,276.09a28.77,28.77,0,0,0-5.71-20.52c-2.75-3.57-6.62-6.59-11.11-7.08-16.32-1.8-14.61,27.92-13.74,37.64.7,7.76,2,15.47,2.54,23.24.41,5.39,0,10.78,0,16.15s2.22,11,3.31,16.39c.46,2.23,3.28,21.53,4.26,31.1h13.89q3.36-25.69,4.72-51.6c.31-5.91.57-11.9.69-17.79.13-6.11-1.35-12.08-.49-18.26C426.08,282.25,426.94,279.2,427.29,276.09Z"/><path class="cls-15" d="M389.22,204.25c-2.38-.59-5.4,0-7.55.41-3.42.62-6.66,1.91-10,2.86l-.54.19c-.21.07-.43.15-.64.24,0,.39-.05.78-.08,1.17.65,6.22,1.67,12.39,2.62,18.57a34.14,34.14,0,0,0,16.14-13.47,15,15,0,0,0,1.47-3.47,10.11,10.11,0,0,0,0-1.1A26.44,26.44,0,0,0,389.22,204.25Z"/><path class="cls-15" d="M383.81,262c3.53-.88-4.06-29.8-4.62-32.53a79.62,79.62,0,0,1-1.74-11.35c-.13-2.46,0-5.1,1.47-7.09a12.73,12.73,0,0,1,3.71-3c7.13-4.46,13.28-10.28,22.12-10.68a3.62,3.62,0,0,1,1.5.16,4,4,0,0,1,1.87,2.3c2.07,4.56,2.88,9.55,5,14a74,74,0,0,1,4.87,14,219,219,0,0,1,5.94,30.56c-1.31-2.72-15.6.42-18.72.79Q394.48,260.37,383.81,262Z"/><path class="cls-12" d="M409.08,200.85c1.61,1.82,2.43,4.63,2.95,7.13,1.38,6.65,2.78,13.38,2.65,20.18a91.93,91.93,0,0,1-1.3,12q-1.65,10.8-3.29,21.59c-.55,3.6-1.11,7.2-1.65,10.8-.27,1.8-.19,5-1.47,6.47a4.46,4.46,0,0,1-3,1.12c-5.2.58-10.43.9-15.66,1-.73-2.71,1.42-5.53,4-6.55s5.55-.69,8.34-.35q-1.12-13.44-2.26-26.87c-.9-6.32.46-12.95-.94-19.17s-1.78-12.59-2.34-19c-.18-2.08-.32-4.34.84-6.08,1-1.53,2.79-2.31,4.49-3s3.69-1.46,5.57-1.07A5.49,5.49,0,0,1,409.08,200.85Z"/><path class="cls-15" d="M394.61,225.84a93.71,93.71,0,0,1,21.73-1.46,114.82,114.82,0,0,0-2.27-16.29c-.69-3.25-1.65-6.68-4.12-8.89-4.29-3.84-13.47-2.83-15.55,3C392,208.93,393.32,219,394.61,225.84Z"/><path class="cls-12" d="M393.54,195.64c.23,1.31,1.37,7.11,1.48,8.3.19,2.08-2.37,12.39-4.29,12.9-2.1.55-6.2-7.56-6.43-9.7-.3-2.92-.39-8.84-.4-8.87C384.5,190.28,392.59,190.28,393.54,195.64Z"/><path class="cls-23" d="M392.24,192.54c-.46-.46-1.16-.48-2.16-.54a5.53,5.53,0,0,0-3.57.84,6.29,6.29,0,0,0-2.61,5.43c.08.81.09,1.54.21,2.25a4.63,4.63,0,0,0,.87,2.15,14.26,14.26,0,0,0,2.46,2.45,4,4,0,0,0,1.49.92,4,4,0,0,0,2.85-.67c4.53-2.45,1.68-7.86,1-11.65A2.2,2.2,0,0,0,392.24,192.54Z"/><path class="cls-12" d="M380.91,183c1.27-1,4.27.4,5.87.35,1.59.11,4.05.13,5.31,1.1,2.66,2.05,2.87,6.29,1.87,9.44-.16.52-.48,1.85-.7,2.36A8.4,8.4,0,0,1,385,201.1c-2.68-.23-4.4-2.16-5.3-5.11-.16-.53-.45-2.29-.54-2.83C378.61,189.81,379.57,184,380.91,183Z"/><path class="cls-9" d="M378.08,176.73a3.64,3.64,0,0,1,4-.14c1.26.93,1.77,2,3.47,1.94s2.7-.76,4.37-.11c2.68,1.05,4.34,4,4.66,6.74a34.4,34.4,0,0,1-.08,6.65c-.06.12-.38.27-.48-.19a18.29,18.29,0,0,0-.58-3.07,1.43,1.43,0,0,0-1.16-1c-.45,0-1,.22-1.31-.08a1.3,1.3,0,0,1-.29-.6,3,3,0,0,0-2.3-2c-2.47-.4-4.7.5-7.15.48-4,0-7.32-5.31-3.68-8.3Z"/><path class="cls-9" d="M378.78,191.56c0,.47.11.38.34.15.87-2.39.08-6.45,1.9-6.92.13,0,.47-1.57.14-1.51-.58.1-1.74.45-2,.89C378.29,185.6,378.58,189.65,378.78,191.56Z"/><path class="cls-12" d="M392.48,191.63a1.65,1.65,0,0,0,1.36,1.85c.77,0,1.41-.79,1.43-1.8a1.63,1.63,0,0,0-1.36-1.85C393.14,189.81,392.5,190.62,392.48,191.63Z"/><path class="cls-12" d="M377.52,191.3a1.45,1.45,0,1,0,1.43-1.8A1.66,1.66,0,0,0,377.52,191.3Z"/><path class="cls-3" d="M387.8,194.41a2.65,2.65,0,0,1-5.25.65Z"/><path class="cls-9" d="M270.14,343.8c1.43,2.15,2.46,4.19,2.08,7.05-.56,4.21-4,7-4.9,11.09a2.47,2.47,0,0,0,0,1.15,2.36,2.36,0,0,0,1.68,1.56c4,1.05,7.45-4.79,9.7-7q4.23-4.28,8.47-8.53a2.2,2.2,0,0,0-.22-3l-9.46-9.77-1.39-1.46c-2.31-2.4-5.76-2.67-7.66-.59-1.63,1.81-1.5,4.89.16,7.31C269.1,342.32,269.64,343.07,270.14,343.8Z"/><rect class="cls-9" x="301.73" y="304.4" width="2.11" height="46.44" transform="translate(605.56 655.24) rotate(180)"/><path class="cls-10" d="M321.19,360.59c0-6.86-12.13-9.74-18.2-9.75-7.22,0-18.2,2.65-18.2,9.75"/><line class="cls-10" x1="302.79" y1="362.42" x2="302.79" y2="351.03"/><path class="cls-9" d="M281.82,362.24a3,3,0,1,0,3-3A3,3,0,0,0,281.82,362.24Z"/><path class="cls-9" d="M299.86,362.24a3,3,0,1,0,3-3A3,3,0,0,0,299.86,362.24Z"/><path class="cls-9" d="M317.91,362.24a3,3,0,1,0,3-3A3,3,0,0,0,317.91,362.24Z"/><path class="cls-3" d="M304.83,288.81V254.63a10.7,10.7,0,0,1,10.71-10.7h11.79A10.71,10.71,0,0,1,338,254.63v38.21a15.39,15.39,0,0,1-15.34,15.34H284.25a1.81,1.81,0,0,1-1.8-1.81h0a1.81,1.81,0,0,1,1.8-1.8h4.82A15.77,15.77,0,0,0,304.83,288.81Z"/><path class="cls-9" d="M264.09,360.45c-.45,2.54-1.13,4.72-3.4,6.51-3.33,2.64-7.74,2.25-11.23,4.56a2.53,2.53,0,0,0-.83.8,2.36,2.36,0,0,0,.13,2.3c2.12,3.51,8.68,1.73,11.87,1.67l12-.24a2.2,2.2,0,0,0,2-2.34V358.1c0-3.33-2.28-5.93-5.09-5.75-2.43.16-4.48,2.47-5,5.36C264.38,358.67,264.25,359.58,264.09,360.45Z"/><path class="cls-12" d="M284.93,255.72c-2.3,2.24-5,3.84-8.41,3.57-2.54-.19-4.83-1.52-7-2.82-4.61-2.73-7.54-7.43-10.41-11.77-4-6-9.09-11.44-11.7-18.24-1.3-3.35-2.2-6.21-1.93-9.87s1.16-7.17.36-10.73c-.27-1.2-1.63-4.87.12-5.53,1.6-.61,3.11,2,3.45,3.14a20.56,20.56,0,0,1,.52,4.22c.51,6.12,3.06,14.52,8.08,18.45,1.62,1.28,3.66,1.92,5.39,3.05,3.4,2.22,5.28,6.1,8.07,9.05a4.22,4.22,0,0,0,2.47,1.52c2.87.3,3.28-3.12,4.4-4.85,2.17-3.35,7.82-7.37,12-6.46a7.31,7.31,0,0,1,5.51,6,14.58,14.58,0,0,1-.18,3.73,15.63,15.63,0,0,1-4.43,9.72C289.3,250.32,287.33,253.38,284.93,255.72Z"/><path class="cls-24" d="M289.2,269h0l0-.14Z"/><polygon class="cls-24" points="297.25 230.77 297.1 231.51 297.1 231.51 297.25 230.77"/><path class="cls-24" d="M289.33,268.48a3.2,3.2,0,0,1-.1.42l.12-.54S289.34,268.44,289.33,268.48Z"/><path class="cls-21" d="M298,229c0,2.43-.26,4.78-.26,6.1a21.64,21.64,0,0,1-.41,4.89,20,20,0,0,1-1.56,4c-1.94,4-4.17,8.22-7.08,11.54a64.08,64.08,0,0,1-3.9-5.3c-1.71-2.81-3.34-5.67-5-8.53-.9-1.58-3.69-4.5-3.18-6.26.37-1.26,4.73-4.41,5.79-5.75,2.47-3.08,7.61-8.62,11.9-8.95C297.49,220.5,298,224.85,298,229Z"/><path class="cls-13" d="M245.25,296.37a9.06,9.06,0,0,1,2.3-6c3.07-3.38,8-4.13,12.55-4.67l18.44-2.2c10.52-1.26,21.79-2.39,31.15,2.57,6.42,3.41,8.63,11.29,2.46,16.29-3.43,2.78-8,3.64-12.34,4.4L281.17,310c-5.48,1-11.87,3-16.91-.41-1.34-.9-2.49-2.11-4-2.71-4.26-1.72-12.07-2.64-14.29-7.28A7.63,7.63,0,0,1,245.25,296.37Z"/><path class="cls-13" d="M253.56,286.91a24.29,24.29,0,0,1,5.93-.6c5.78,0,9.94,5.9,6.95,11.29-.65,1.17-1.62,2.22-1.83,3.54a6.65,6.65,0,0,0,.74,3.55c5.06,12.34,12.82,25.64,14.22,38.94-3.67,1.84-14.5,3-16.63-.76L257.29,333a51.18,51.18,0,0,0-3.86-6.08c-1.82-2.33-4-4.34-5.84-6.67a26.06,26.06,0,0,1-4.16-23.58C245.27,291,248.83,288.06,253.56,286.91Z"/><path class="cls-15" d="M268.66,300.56c7-9.79,22-8.4,27.71-19.84a5.08,5.08,0,0,1,.62-1.06c.88-1,2.43-1.07,3.78-1.07a131.61,131.61,0,0,0,22.82-2.42c4.48-.78,4.42-.09,6,4.08a35.87,35.87,0,0,1,2.56,9.64c.4,4.57-.81,9.53-4.23,12.59a21.41,21.41,0,0,1-6.53,3.58,302.59,302.59,0,0,1-34.32,11.4,25.4,25.4,0,0,1-6.67,1.13,13.39,13.39,0,0,1-10.94-6C266.16,307.47,266.45,303.63,268.66,300.56Z"/><path class="cls-21" d="M289.57,224.44a11.26,11.26,0,0,1,2.68-2.83c3.78-2.85,9.19-2.59,13.66-2.73,4.69-.15,9.76.2,14.14,2s5.42,3.73,5.56,8.18c.17,5.91,1.94,11.86,2.61,17.77a158.16,158.16,0,0,1,1,18.85c0,3.34-.15,6.69-.4,10-.28,3.74-.61,3.77-4.28,4.28-8.59,1.19-20,3.68-28.55,1.26-.45-15.23-5.58-29.9-7.72-45C287.62,231.81,287.42,227.77,289.57,224.44Z"/><path class="cls-12" d="M306.4,228.92a7.86,7.86,0,0,0,3.28-2.47c3.5-4.55.16-7.66,0-12.27-.15-3.35,2.17-6.71,1.1-9.89-.21-.63-.82-1.31-1.41-1a1.41,1.41,0,0,0-.47.5c-2.94,4.42-6.84,4.06-11.89,5,.66-.12.81,10.93.66,11.69a17.13,17.13,0,0,0-.44,2.56,6.45,6.45,0,0,0,4.86,6.28A7.13,7.13,0,0,0,306.4,228.92Z"/><path class="cls-25" d="M309.71,211.33l-11.11.54.91,8.2h0c3.71,2,12.22,1.39,10.2-2.66Z"/><path class="cls-12" d="M301.13,216a5.92,5.92,0,0,0,4.28-1.7c1.17-1,2.13-2.21,3.25-3.27a12,12,0,0,0,1.91-2,9.06,9.06,0,0,0,1.11-3.48c.26-1.5.73-2.87.39-4.42a8.81,8.81,0,0,0-1.08-2.43,38.41,38.41,0,0,0-2.11-3.25c-1.52-2.12-4-3.92-6.77-2.9a5.6,5.6,0,0,0-2.94,2.75c-.82,1.62-.94,3.53-1.66,5.2-.24.56-.54,1.08-.8,1.62-1.12,2.23-2,5.07-1.46,7.57a8.68,8.68,0,0,0,3.5,5.44A5,5,0,0,0,301.13,216Z"/><path class="cls-9" d="M314.26,199.13c-1.64-.65-1.68-1.53-2.13-3.13a6.65,6.65,0,0,0-3.15-3.87,9.46,9.46,0,0,0-4.93-1.14,8.59,8.59,0,0,0-3.92,1,5.51,5.51,0,0,0-2.6,3,2.7,2.7,0,0,0-.06,1.66c.43,1.32,2.36,1.86,3.51,2.31a36.55,36.55,0,0,1,3.92,1.66c2.45,1.3,3.65,3.29,2.42,6-.46,1-.6,2.74-2.23,2.32a2.53,2.53,0,0,1-1.15-.93,7.16,7.16,0,0,0-2.33-1.87,6.22,6.22,0,0,0-3-.4,12.19,12.19,0,0,1-2.69.1c-.35-.08-.22-.64-.68-.63-.29,0-.43.35-.5.62-.25,1-.51,2.08-.76,3.12-.43,1.75-.85,4.09-.06,5.79a6.21,6.21,0,0,0,3.05,2.89c2.5,1.2,6.05,1.48,8.42-.17,1.76-1.22,2.21-3.18,3.69-4.55,1.3-1.22,3.86-1.4,4.6-3.16.44-1.07-.12-2.37.32-3.45C315,203.81,319.13,201.06,314.26,199.13Zm-18.11,12.13a1.14,1.14,0,0,1-.22-.37,2.27,2.27,0,0,1,.9-2.39,3.66,3.66,0,0,1,4.42,0,4.18,4.18,0,0,1,1.81,2.54,1.52,1.52,0,0,1-.47,1.28,1.6,1.6,0,0,1-1.72.13c-.88-.43-1.11-1.44-2.23-1-.66.24-.72.5-1.43.35A2,2,0,0,1,296.15,211.26Z"/><path class="cls-12" d="M309,206.18a3.62,3.62,0,0,0-.36.42,7.16,7.16,0,0,0-1.18,2.84,3,3,0,0,0,1.58.33,2.3,2.3,0,0,0,1-.54,4,4,0,0,0,1.36-2.5,1.3,1.3,0,0,0-.14-.91,1.1,1.1,0,0,0-1.19-.3A2.33,2.33,0,0,0,309,206.18Z"/><path class="cls-3" d="M302.15,211a3.81,3.81,0,0,1-3.24.26,3.12,3.12,0,0,1-2.09-2.44"/><path class="cls-12" d="M330.3,271.5c.68-.08,1.37-.12,2.07-.14-2.15-2.72-4.94-4.89-7.05-7.65-2.37-3.1-2.12-6.18-3.24-9.65-.92-2.87-2.73-5.4-3.63-8.31-2.19-7.09.47-19.83,10.73-16.71a12.08,12.08,0,0,1,6.71,5.87,35.86,35.86,0,0,1,3.05,8.59q2.47,9.41,4.94,18.82c.74,2.81,1.29,5.69,2,8.49,1,3.91,3.35,8.3-2.2,9.87a50.08,50.08,0,0,1-10.29,1.4c-6.49.43-13,1.11-19.51,1.29-3.94.11-7.72-1.13-11.61-1.57-3.39-.38-6.64.81-9.95.25-1.4-.24-2.88-1.27-2.79-2.67a3,3,0,0,1,1.21-2c2.47-2.05,6.08-2.05,9.19-1.25a6.9,6.9,0,0,0,2.15.34,7.15,7.15,0,0,0,2.17-.7c4.49-1.89,8.52-.4,13-1.09S325.79,272,330.3,271.5Z"/><path class="cls-21" d="M314.19,242.28c-.07-.24-.15-.47-.21-.71-1-3.47-1.87-7.11-1.27-10.68s2.93-7,6.41-8a10.68,10.68,0,0,1,6.83.73c5.33,2.2,9.2,6.79,11.7,11.86,1.18,2.41,2.76,5.26,1.48,7.18-1.57,2.37-20.51,11.37-19.74,13A93.88,93.88,0,0,1,314.19,242.28Z"/><path class="cls-15" d="M269.07,301c-4.4,8.26-2.36,18.42-3.21,27.33q-1.64,17-4.25,33.89a53.93,53.93,0,0,1,17,1.36c3.18-10.87,6.38-21.83,7.55-33.1.36-3.44.53-7,1.58-10.24,1.27-4,3.79-7.58,4.62-11.69,1.05-5.23-3.43-13.78-9.09-14.42C278.5,293.57,271.4,296.62,269.07,301Z"/><path class="cls-3" d="M215.12,278.14h53.56a0,0,0,0,1,0,0V280a0,0,0,0,1,0,0h-52a1.52,1.52,0,0,1-1.52-1.52v-.35A0,0,0,0,1,215.12,278.14Z" transform="translate(483.79 558.15) rotate(180)"/><path class="cls-26" d="M205.91,278.14h53.53l-9.55-28.27a2.5,2.5,0,0,0-2.4-1.63H199.24a2.36,2.36,0,0,0-2.41,3Z"/><rect class="cls-27" x="205.91" y="278.14" width="53.78" height="1.87" transform="translate(465.61 558.15) rotate(180)"/><path class="cls-27" d="M225.07,262.84a2.21,2.21,0,0,0,2.5,1.72,2.18,2.18,0,0,0,2.18-2.15,2.47,2.47,0,0,0-2.49-2.2.52.52,0,0,0-.2.06.38.38,0,0,0-.21,0A2.34,2.34,0,0,0,225.07,262.84Zm2-1.89.1,0,.09,0a1.81,1.81,0,0,1,1.51.81c.7,1.23-.29,2.07-1.33,2.11A1.46,1.46,0,0,1,227.05,261Z"/><path class="cls-28" d="M352.87,232.82v-.06c-.13-1.89,1.18-3.71.81-5.56a.68.68,0,0,0-.29-.51c-.29-.17-.65.09-.86.35-1.3,1.63-1.17,3.78-.93,5.72.26,2.09-.76,3.78-1.09,5.83-.23,1.42,0,2.71-.26,4.1a8.77,8.77,0,0,0,0,4.74,5.59,5.59,0,0,1,.48,2.11,8.7,8.7,0,0,1-1.05,2.41c-.9,2.18.34,4.93-.9,6.93-.12.21-.32.43-.56.41s-.46-.34-.57-.62c-1.4-3.82-2.79-8.13-2.23-12.25.12-.9.35-1.78.42-2.69a16.11,16.11,0,0,0-.12-2.5c-.21-2-.41-3.92-.62-5.88a2.12,2.12,0,0,0-.29-1,.72.72,0,0,0-.94-.26,1,1,0,0,0-.33.67c-.34,2,.41,4,.23,6-.1,1.13-.49,2.21-.7,3.32-.48,2.45.3,5.64.76,8.07.33,1.73.49,3.51.73,5.26.14.94.54,1.85.64,2.78.07.71-.52,3.06-1.22,1.4a4.87,4.87,0,0,1-.35-2.17,6.48,6.48,0,0,0,0-1.16,1.11,1.11,0,0,0-.6-.94c-.37-.15-.82,0-1.18-.19a1.44,1.44,0,0,1-.57-1.2,8.89,8.89,0,0,1,.14-4.14,7.09,7.09,0,0,0,.45-1.24c.19-1.06-.66-1.53-.85-2.43s.48-1.59.59-2.4a1.51,1.51,0,0,0-.85-1.53,1.15,1.15,0,0,1-.48-.28.84.84,0,0,1,0-.76,13.13,13.13,0,0,1,.57-1.47,1.28,1.28,0,0,0-2.11-1.41,2.5,2.5,0,0,0-.42,1.87,76,76,0,0,0,1.14,12,28.59,28.59,0,0,0,2.71,7.77c.61,1.13,1.5,2.14,2,3.28.78,1.64,1.29,3.94,3.69,3.45a6,6,0,0,0,3.23-2.4c1.28-1.6,2.45-3.75,1.56-5.59a12.94,12.94,0,0,1-.79-1.46,3.72,3.72,0,0,1-.13-1.37,27.75,27.75,0,0,1,.6-4.81c.39-1.82,1.16-4,.62-5.84-.47-1.58-1-2.83-.59-4.58s1.81-3.34,1.76-5.18C354.12,235.79,353,234.4,352.87,232.82Z"/><path class="cls-29" d="M353,269.79a9.5,9.5,0,0,0,3.32-8.11c-.19-1.45-.67-3.14.32-4.21.33-.36.79-.59,1.1-1,.74-.93.3-2.31-.23-3.37-.94-1.89-1.46-3.75-.16-5.54,1-1.38,2.71-2.35,3.07-4.14.48-2.39-1.95-5-.74-7.1a14.62,14.62,0,0,1,1.32-1.53,3.69,3.69,0,0,0,.55-3.48,3.37,3.37,0,0,0-1.77-2c-1.13-.34-1.13.2-1.51,1.29a16,16,0,0,0-.87,6.25c.19,3.19-1.07,6.73-1.59,9.89-.27,1.71-.6,3.42-.94,5.12-.21,1.05-.37,2.14-.68,3.17-.16.51-.94,1.52-.9,2-.35-4.12,1.74-8,2.27-12.13a1.79,1.79,0,0,0-.1-1.08,6.75,6.75,0,0,0-.55-.65c-.83-1.16.27-3.86.44-5.21.3-2.34.4-4.72.58-7.08a43.65,43.65,0,0,0,.27-8.48.46.46,0,0,0-.11-.3.33.33,0,0,0-.44.06.83.83,0,0,0-.17.46c-.67,4.17-.85,8.42-1.51,12.62-.71,4.57-1.22,9.15-1.73,13.74-.5,4.43-1.58,8.82-2.11,13.28-.11,1-.44,2.19-1.41,2.31s-1.52-.83-1.63-1.69c-.29-2.31,1.7-4.21,2.57-6.37a8.88,8.88,0,0,0,.31-5c-.35-1.7-1-3.64,0-5.05.41-.56,1.05-.95,1.38-1.56a3.59,3.59,0,0,0,.3-1.52,33.53,33.53,0,0,0-.15-4.91,24.88,24.88,0,0,1-.55-4.36c.24-2.77,1-5.48.85-8.3-.13-2.43-2.06,1.35-2.12,2.33-.07,1.29.15,2.59,0,3.87-.21,1.44-.92,2.85-.69,4.29a1.18,1.18,0,0,1,0,.56.34.34,0,0,1-.44.23.42.42,0,0,1-.16-.23c-1-2.44,1.32-6.78-.7-8.81-1.6,2-1.22,6.53-1.11,9,.28,6.2,1.33,12.49.15,18.67a2,2,0,0,1-.54,1.2,1.49,1.49,0,0,1-2-.36,5.06,5.06,0,0,1-.83-2.06,3.24,3.24,0,0,0-1.07-1.91,3,3,0,0,0-.66,2.51,15.39,15.39,0,0,0,.74,2.57,14.61,14.61,0,0,1,.67,4.54c0,1.61-.31,3.29.28,4.79,1,2.52,5.33,4.89,7.88,3.87A7.17,7.17,0,0,0,353,269.79Z"/><polygon class="cls-13" points="338.17 262.12 359.18 262.47 353.65 280.39 341.64 280.56 338.17 262.12"/><rect class="cls-3" x="34.26" y="280.08" width="416.27" height="4.27"/><rect class="cls-3" x="407.98" y="282.25" width="4.05" height="111.44"/><polygon class="cls-3" points="370.67 392.79 366.62 392.79 392.78 282.25 396.83 282.25 370.67 392.79"/><polygon class="cls-3" points="110.13 392.79 114.18 392.79 88.02 282.25 83.97 282.25 110.13 392.79"/><rect class="cls-3" x="69.6" y="282.25" width="4.05" height="111.44"/><path class="cls-30" d="M67.44,370.83c-.09.65-.16,1.3-.22,2-.2,2.31-.62,5-2.61,6.14-1.79,1.06-4.22.36-5.67-1.12a10.67,10.67,0,0,1-2.51-5.6,29.73,29.73,0,0,1,1.27-15.8c1.15-3.12,4.41-7.85,4-11.22-.39-3.55-4.57-5.61-4.73-9.41-.18-4.23,3.62-7.8,5.81-11a7.63,7.63,0,0,0,1.52-3.89c.18-5-7-7.49-7.49-12.43-.6-6.11,7.84-8.56,7.92-14.39,0-3.14-2.73-6.42-2.46-10.16a16.47,16.47,0,0,1,4.26-10c1-1.07,2.45-2.07,3.84-1.61s2,2.16,1.94,3.62-.42,2.95-.12,4.39c.89,4.31,3.86,5.86,3.48,10.76a22.41,22.41,0,0,1-2.42,8.1c-4.43,8.73-3.11,7.71,2.19,15.26a12.24,12.24,0,0,1,0,13.69c-1.61,2.31-4.14,4.25-4.42,7.05a7.79,7.79,0,0,0,.76,3.77,21.85,21.85,0,0,1,1.61,4.34,14.49,14.49,0,0,1-.77,6.4C70.67,356.75,68.35,363.58,67.44,370.83Z"/><path class="cls-31" d="M49.81,364c-.4-2.73-.79-5.45-1.19-8.17a23,23,0,0,0-1.79-7c-1-1.94-2.45-3.58-3.33-5.56-1.9-4.27-.62-9.23.79-13.7,1-3.1,2-6.42,1.06-9.53A23.15,23.15,0,0,0,43,315.53c-1.72-3-4.92-10.06-2.91-13.57,3.42-6,6.72-.29,7,3.81a16.59,16.59,0,0,0,4.12,10c1.4,1.57,3.14,2.94,3.91,4.9,2,5.17-3.74,10.44-3.28,16,.36,4.42,4.49,7.52,6.15,11.63C61,355.84,63.12,366.88,61,374.9a6.06,6.06,0,0,1-2.13,3.65c-1.91,1.27-4.66.26-6-1.57s-1.76-4.21-2.09-6.48S50.12,366.18,49.81,364Z"/><path class="cls-15" d="M62.2,400.58h0a14.86,14.86,0,0,1-14.75-13.05l-2.28-18.66H78.9L77,387.27A14.87,14.87,0,0,1,62.2,400.58Z"/><path class="cls-31" d="M67.93,361.42c.29-2.82,0-5.87,1.5-8.29,1.95-3.21,6.57-4.61,7.38-8.28s-2.64-7.44-1-10.75c1.35-2.77,5.48-3.3,6.75-6.1,1.12-2.48-.57-5.24-1-7.92a8.83,8.83,0,0,1,3.7-8.57,3.14,3.14,0,0,1,1.82-.64c1.76.09,2.42,2.5,1.81,4.15s-2,3-2.51,4.63c-1.46,4.51,3.14,10.3-.15,13.71-1,1-2.44,1.43-3.46,2.39-3.42,3.21,0,9.28-2,13.51-1.36,2.83-4.84,4.12-6.32,6.88-1,1.79-.93,3.92-1.25,5.92a9.74,9.74,0,0,1-2.83,5.81c-1.73,1.53-4.17,2.24-4.59-.45C65.45,366,67.75,363.14,67.93,361.42Z"/><path class="cls-32" d="M49.84,380.87c3.8-.88,7.61-1.71,11.32-2.74q8.58-2.36,17.08-4.94l.21-.08.45-4.24H45.17l1.56,12.75,3.11-.75"/><polygon class="cls-15" points="80.92 370.9 43.82 370.9 41.8 362.8 82.27 362.8 80.92 370.9"/><path class="cls-30" d="M418.77,356.29c-1.12-4.36-2.63-8.91-1.4-13.24.81-2.88,2.78-5.33,3.58-8.22,1.3-4.7-.66-9.75.2-14.55.81-4.56,4-8.29,5.77-12.59,2.29-5.66,1.91-12.07,3.85-17.86a8.7,8.7,0,0,1,3.22-4.78c1.65-1.05,4.17-.93,5.27.69a5.36,5.36,0,0,1,.63,3.24c-.49,12-10.24,22.84-8.46,34.74.51,3.39,1.95,6.81,1.1,10.12s-3.75,5.64-5.15,8.73c-1.53,3.39-1.12,7.29-.62,11s1,7.54-.29,11c-.68,1.8-6.31,8-8.29,4.79-.23-.38,1.5-4.92,1.55-5.78A23.53,23.53,0,0,0,418.77,356.29Z"/><path class="cls-31" d="M414.3,361.53a2.53,2.53,0,0,0,0-.28c-.14-2.87-2.15-5.29-4.3-7.19-3.57-3.14-7-11.31-7.59-16.07-.43-3.27.13-6.59-.12-9.88-.39-5.08-2.66-9.79-4.17-14.66a50.49,50.49,0,0,1-2.28-13.85c-.05-1.86.19-4,1.79-5a3.67,3.67,0,0,1,4.2.71,8.46,8.46,0,0,1,2.16,4c2.19,7.26,1.37,15.33,4.51,22.23,1.43,3.15,3.67,6,4.31,9.4.7,3.7-.59,7.6.33,11.25,1.55,6.12,7.52,9.58,8,16.2a11,11,0,0,0,.27,2.22,11.63,11.63,0,0,0,1.74,2.95c1.64,2.49,4.25,8,1.59,10.15-4.86,4-10.58-4.45-10.67-8.61C414,363.89,414.31,362.71,414.3,361.53Z"/><path class="cls-31" d="M429.53,353.2a15.76,15.76,0,0,1,2-4.72c1.83-2.59,5.23-4.08,6.19-7.1a21.1,21.1,0,0,0,.47-3.9,8.45,8.45,0,0,1,3.38-5.92,6.28,6.28,0,0,1,6.63-.36c2.59,1.57,3.38,4.9,3.87,7.89,1.53,9.3,2.3,19.37-2.22,27.63a2.53,2.53,0,0,1-.81,1c-1,.65-2.36-.41-2.93-1.5-2.79-5.25.69-12.2-2.06-17.47-.21-.42-.54-.86-1-.88a1.24,1.24,0,0,0-.94.52c-1.4,1.57-1.57,3.94-2.95,5.51s-3.26,2-4.56,3.33a9.68,9.68,0,0,0-1.93,4.27c-.73,2.75-1.53,13.78-5.59,9C423.49,366.3,428.26,357.54,429.53,353.2Z"/><path class="cls-15" d="M423.12,402h-.57A15.67,15.67,0,0,1,407,388.27l-2.5-20.37h36.31l-2.1,20.1A15.68,15.68,0,0,1,423.12,402Z"/><path class="cls-33" d="M421.72,377.87c6.15-1.7,12.29-3.46,18.39-5.32l.23-.09.47-4.56H404.5l1.68,13.72C411.37,380.34,416.63,379.28,421.72,377.87Z"/><polygon class="cls-15" points="442.99 370.08 403.05 370.08 400.87 361.36 444.44 361.36 442.99 370.08"/><g class="cls-34"><path class="cls-30" d="M363.25,370.84a4.63,4.63,0,0,1,1.92-3.56c1.69-1,3.95-.16,5.92-.53,5.53-1,5.49-8.75,5.37-13q-.1-4.06-.36-8.11a4.45,4.45,0,0,0-.48-2.08,3.06,3.06,0,0,0-3.44-1.07c-2.42.69-3.78,3.3-4.21,5.78s-.22,5.06-.87,7.5a4.12,4.12,0,0,1-.54,1.3,2.89,2.89,0,0,1-1.21,1,2.34,2.34,0,0,1-2.24,0c-.77-.49-.64-1.11-.64-1.85a22.83,22.83,0,0,0-.22-2.71c-.24-2-.44-4.07-.63-6.11-.38-4-.71-8-1.12-12a13.78,13.78,0,0,0-1.32-5.36c-4-7.11-10-.87-10.55,4.32-1.26,11.8,4.88,22.93,4.37,34.64a3.59,3.59,0,0,1-.27,1.45c-.93,1.84-3.89,1.52-5.25.46-2.14-1.67-1.38-5.28-1.38-7.45,0-1.78-.57-3.78-2.28-4.61-1.95-.94-4.49.19-5.6,1.92-1.43,2.25-1.27,6.09-1.05,8.59a10.47,10.47,0,0,0,1.64,5.16,6.5,6.5,0,0,0,4.8,2.84c1.15.07,2.45-.17,3.32.51,1.06.84.68,2.36.72,3.64.08,2.53,2.24,4.7,4.76,5.76a24.85,24.85,0,0,0,8.13,1.41c2.34-3.77,2.5-8.11,2.62-12.32A45.33,45.33,0,0,1,363.25,370.84Z"/><path class="cls-35" d="M355.8,327.25c2.82,19.57,5.25,39.49,1.78,59"/><path class="cls-35" d="M353.09,327.12a51.76,51.76,0,0,0-1.58,11c0,7.09,3,13.86,4.2,20.87,1.31,7.82.34,15.8-.64,23.66"/><path class="cls-35" d="M359.21,361.66c3.4-.49,7.47-1,9.63-3.71a4.09,4.09,0,0,0,.71-1.27c.57-1.85.29-3.95.28-5.86s0-5,0-7.39"/><path class="cls-35" d="M356.13,374.66c-3.06.5-6.45.94-9.09-.56a7.57,7.57,0,0,1-3.29-4.13,15.27,15.27,0,0,1-.67-5.16,34.78,34.78,0,0,1,.48-5.66"/><path class="cls-35" d="M359.24,364.79a56.43,56.43,0,0,0,11.36-2.93,5.8,5.8,0,0,0,2.11-1.17,5,5,0,0,0,1.13-2.19c.53-1.77.76-13.88.17-16.84"/></g><path class="cls-21" d="M344.74,382.17l22.92-.49-1.25,10.22a10.1,10.1,0,0,1-10,8.88h0a10.11,10.11,0,0,1-10-8.45Z"/><circle class="cls-36" cx="307.68" cy="146.49" r="14.18" transform="translate(-13.47 260.47) rotate(-45)"/><path class="cls-37" d="M307,137.71c0,.68.67,10.81.67,10.81l8.11-5.41"/><path class="cls-37" d="M262.47,268.06l7.58-4.63h36.83a6.85,6.85,0,0,0,6.83-6.86v-6a6.85,6.85,0,0,0-6.83-6.86H269.29a6.84,6.84,0,0,0-6.82,6.86Z"/><path class="cls-3" d="M282.33,253.59a1.44,1.44,0,1,1-1.44-1.45A1.44,1.44,0,0,1,282.33,253.59Z"/><path class="cls-3" d="M291,253.59a1.44,1.44,0,1,1-1.44-1.45A1.45,1.45,0,0,1,291,253.59Z"/><path class="cls-3" d="M299.6,253.59a1.44,1.44,0,1,1-1.44-1.45A1.44,1.44,0,0,1,299.6,253.59Z"/><path class="cls-37" d="M356.69,171.82l7.57-4.63H401.1a6.84,6.84,0,0,0,6.82-6.86v-6a6.84,6.84,0,0,0-6.82-6.86H363.51a6.84,6.84,0,0,0-6.82,6.86Z"/><path class="cls-3" d="M376.55,157.35a1.44,1.44,0,0,1-2.88,0,1.44,1.44,0,1,1,2.88,0Z"/><path class="cls-3" d="M385.19,157.35a1.44,1.44,0,1,1-1.44-1.45A1.44,1.44,0,0,1,385.19,157.35Z"/><path class="cls-3" d="M393.82,157.35a1.44,1.44,0,0,1-2.88,0,1.44,1.44,0,1,1,2.88,0Z"/><path class="cls-37" d="M272.17,200.19l-7.57-4.64H227.76a6.84,6.84,0,0,1-6.82-6.86v-6a6.84,6.84,0,0,1,6.82-6.86h37.59a6.84,6.84,0,0,1,6.82,6.86Z"/><path class="cls-3" d="M252.31,185.71a1.44,1.44,0,1,0,1.44-1.44A1.44,1.44,0,0,0,252.31,185.71Z"/><path class="cls-3" d="M243.67,185.71a1.44,1.44,0,1,0,2.88,0,1.44,1.44,0,0,0-2.88,0Z"/><path class="cls-3" d="M235,185.71a1.44,1.44,0,1,0,1.44-1.44A1.44,1.44,0,0,0,235,185.71Z"/><path class="cls-37" d="M112,132.86a58,58,0,0,1,2.63,11.42"/><path class="cls-37" d="M122.5,129.33l-2.19,12.75"/><path class="cls-37" d="M133.55,135.5a18.54,18.54,0,0,0-4,5.7"/></g></svg>