<svg id="Capa_1" data-name="Capa 1" xmlns="http://www.w3.org/2000/svg" xmlns:xlink="http://www.w3.org/1999/xlink" viewBox="0 0 2992.87 1447.73"><defs><style>.cls-1{fill:none;}.cls-2{clip-path:url(#clip-path);}.cls-3{fill:#7ecbdd;}.cls-4{fill:#96afdb;}.cls-5{fill:#2e3552;}.cls-6{fill:#f49648;}.cls-7{fill:#ced5ed;}.cls-8{fill:#f9fafe;}.cls-9{fill:#2a488c;}.cls-10{fill:#51b2c4;}.cls-11{fill:#dde3f4;}.cls-12{fill:#4d67ac;}.cls-13{fill:#44959f;}.cls-14{fill:#9faeda;}.cls-15{fill:#cbd3ed;}.cls-16{fill:#35488c;}.cls-17{fill:#499a9e;}.cls-18{fill:#e5c7bd;}.cls-19{fill:#f7b17f;}.cls-20{fill:#233862;}.cls-21{fill:#428f99;}.cls-22{fill:#aa453d;}.cls-23{fill:#ee975d;}.cls-24{fill:#b0c1e5;}.cls-25{fill:#fff;}.cls-26{fill:#2a4e96;}.cls-27{fill:#286a75;}.cls-28{fill:#1a355e;}.cls-29{fill:#f5a46c;}.cls-30{fill:#2d3a64;}.cls-31{fill:#ee985f;}.cls-32{fill:#44939e;}.cls-33{fill:#d4dcf1;}.cls-34{fill:#c6d1ec;}.cls-35{fill:#a2b7e0;}</style><clipPath id="clip-path" transform="translate(-440.8 -455.49)"><rect class="cls-1" x="360.19" y="194.72" width="3199.88" height="1999.8"/></clipPath></defs><title>header</title><g class="cls-2"><path class="cls-3" d="M3331.65,1895.48c-.92,2.15-160.15,4.72-161.29,6.87H2899l-79.42-.21H2108.49l-207.67-.22H1353.34l-228.67-.21H711.16l-2.06-5.17-.23-.43a2.06,2.06,0,0,1-.23-.65c-.91-1.72-365.39-486.33,201.25-823.68,221.7-132-13.88-219.14,162.42-366.08,116.41-97,238.93-76.63,364.85-56.25,131.95,21.37,267.64,42.73,403.92-71.05,260.39-217.18,808.13-117.74,1032.6,75.3C2903.12,679,3050.43,769,2944.92,949.07c-66.62,113.67,130,141.9,228.68,148.52,337.44,22.65,160.33,793.58,158.05,797.89" transform="translate(-440.8 -455.49)"/></g><path class="cls-4" d="M2447.7,893a5.65,5.65,0,0,1-5.65-5.65V642.48a5.65,5.65,0,0,1,11.29,0V887.33a5.65,5.65,0,0,1-5.64,5.65" transform="translate(-440.8 -455.49)"/><path class="cls-5" d="M3430.28,1903.22H444.19a3.39,3.39,0,0,1-3.39-3.39v-1.15a3.4,3.4,0,0,1,3.39-3.4H3430.28a3.41,3.41,0,0,1,3.39,3.4v1.15a3.4,3.4,0,0,1-3.39,3.39" transform="translate(-440.8 -455.49)"/><path class="cls-6" d="M1438.9,1545.39a14,14,0,0,1-7.85-2.4c-3.36-2.32-5.85-6.66-2.75-11.9,4.44-7.47,5.38-16.53,5.39-16.62l1.65.1a46.42,46.42,0,0,1-5.54,17.11c-2.29,3.86-1.42,7.71,2.32,10.29a11.52,11.52,0,0,0,11.78.83l.95,1.1a12.06,12.06,0,0,1-5.95,1.49Z" transform="translate(-440.8 -455.49)"/><path class="cls-7" d="M1559.79,1412.67H1552a30.33,30.33,0,0,0,18.69-6.4,31.23,31.23,0,0,0,11.74-20.22,206.55,206.55,0,0,1,7.51-32.56c23.38-73.8,87.5-137.51,162.92-137.51h292.88a71.82,71.82,0,0,1,71.81,71.83v10.86h0c-10-27.89-37.17-47.88-69-47.88H1749.9c-64.47,0-120.84,44.75-151.42,102.7a212.55,212.55,0,0,0-19.63,52.78,31.36,31.36,0,0,1-19.06,6.4" transform="translate(-440.8 -455.49)"/><path class="cls-8" d="M2649.53,969V1833a61.21,61.21,0,0,1-61.22,61.21H1218.89a61.22,61.22,0,0,1-60.91-55q-.24-2.31-.3-4.68c0-.53,0-1,0-1.57v-211.1c0-1.65.08-3.27.2-4.89a61.21,61.21,0,0,1,61-56.34h822.88a75.82,75.82,0,0,0,75.81-75.81V1287.81a71.82,71.82,0,0,0-71.81-71.83H1752.89c-75.42,0-139.54,63.71-162.92,137.51a206.55,206.55,0,0,0-7.51,32.56,31.23,31.23,0,0,1-11.74,20.22,30.33,30.33,0,0,1-18.69,6.4H1289.88a50.85,50.85,0,0,1-50.85-50.85V971.4a83.6,83.6,0,0,1,83.63-83.63H2568.34a81.19,81.19,0,0,1,80.2,68.52,80.27,80.27,0,0,1,1,12.68" transform="translate(-440.8 -455.49)"/><polyline class="cls-9" points="988.25 956.59 1017.26 956.59 1017.26 1059.04 988.25 1059.04 988.25 956.59"/><polygon class="cls-9" points="1017.26 999.44 1051.24 999.44 1051.24 981.2 1017.26 981.2 1017.26 999.44 1017.26 999.44"/><path class="cls-9" d="M1488.58,1445.81a17.14,17.14,0,1,1,17.14,17.14,17.14,17.14,0,0,1-17.14-17.14Z" transform="translate(-440.8 -455.49)"/><polygon class="cls-9" points="992.4 1040.46 973.33 1040.46 973.33 1025.44 992.4 1025.44 992.4 1040.46 992.4 1040.46"/><polyline class="cls-9" points="1087.02 431.7 1042.82 431.7 1042.82 402.96 1087.02 402.96 1087.02 431.7"/><path class="cls-10" d="M2499.14,868.91h-97.77a16.73,16.73,0,0,1-16.72-17.69l1.59-27.43v-.25l1.08-18.49,3-51.53.95-16.23,2.27-39.38.84-14.39a16.73,16.73,0,0,1,16.7-15.77h76.68a16.55,16.55,0,0,1,7.55,1.8,16.81,16.81,0,0,1,9.16,13.8l.79,11.55,2.25,33.25.36,5.24,3.72,54.74,3,43.78,1.31,19.13a16.74,16.74,0,0,1-16.71,17.87" transform="translate(-440.8 -455.49)"/><path class="cls-7" d="M1507.1,887.77h-2.76v-.59h2.76v.59m-62.16,0h-2.76v-.59h2.76v.59" transform="translate(-440.8 -455.49)"/><polyline class="cls-11" points="1066.3 885.61 1004.14 885.61 1004.14 884.23 1001.38 884.23 1001.38 885.61 1001.38 432.29 1004.14 432.29 1004.14 882.85 1063.54 882.85 1063.54 432.29 1066.3 432.29 1066.3 885.61"/><polyline class="cls-12" points="1066.3 431.7 1063.54 431.7 1063.54 431.18 1066.3 431.18 1066.3 431.7"/><path class="cls-13" d="M2694.37,1259.48h-44.83V1015h44.83a17.6,17.6,0,0,1,17.6,17.59v209.26a17.59,17.59,0,0,1-17.6,17.59Z" transform="translate(-440.8 -455.49)"/><polygon class="cls-14" points="1102.35 1104.61 895.7 1104.61 895.7 1099.73 1102.35 1099.73 1102.35 1104.61 1102.35 1104.61"/><polygon class="cls-9" points="1002.76 599.67 982.86 576.46 982.86 431.7 1002.76 431.7 1002.76 599.67 1002.76 599.67"/><polyline class="cls-11" points="1004.14 956.59 1001.38 956.59 1001.38 885.61 1004.14 885.61 1004.14 956.59"/><polyline class="cls-12" points="1004.14 956.59 1001.38 956.59 1004.14 956.59 1004.14 956.59"/><polyline class="cls-15" points="1004.14 885.61 1001.38 885.61 1001.38 884.23 1004.14 884.23 1004.14 885.61"/><path class="cls-7" d="M2649.54,1833.8h0c0-.26,0-.52,0-.78v-2h0v2.77" transform="translate(-440.8 -455.49)"/><path class="cls-11" d="M2649.54,1833.8h-60.95l-.19-2.77h61.14v2.77" transform="translate(-440.8 -455.49)"/><path class="cls-7" d="M1157.66,1833.8h0v0" transform="translate(-440.8 -455.49)"/><path class="cls-11" d="M2463.09,1833.8H1157.66V1831H2463.25l-.11,1.91h0l0,.86" transform="translate(-440.8 -455.49)"/><path class="cls-9" d="M1582.94,960.12a11,11,0,1,1,11,11,11,11,0,0,1-11-11Z" transform="translate(-440.8 -455.49)"/><path class="cls-9" d="M1626.31,960.12a11.05,11.05,0,1,1,11,11,11.05,11.05,0,0,1-11-11Z" transform="translate(-440.8 -455.49)"/><path class="cls-9" d="M1669.69,960.12a11,11,0,1,1,11,11,11,11,0,0,1-11-11Z" transform="translate(-440.8 -455.49)"/><polygon class="cls-9" points="1068.65 413.19 1061.46 413.19 1061.46 374.51 1068.65 374.51 1068.65 413.19 1068.65 413.19"/><polygon class="cls-9" points="1003.86 1099.73 1003.19 1099.73 1000.92 1059.04 1006.23 1059.04 1003.86 1099.73 1003.86 1099.73"/><polygon class="cls-9" points="1012.21 1099.73 1011.53 1099.73 1009.27 1059.04 1014.58 1059.04 1012.21 1099.73 1012.21 1099.73"/><path class="cls-16" d="M1455.84,1555.22h-15.22a5.49,5.49,0,0,1-5.23-5.69,1.58,1.58,0,1,1,3.14,0,2.19,2.19,0,0,0,2.09,2.27h15.22a2.19,2.19,0,0,0,2.09-2.27,1.58,1.58,0,1,1,3.14,0,5.49,5.49,0,0,1-5.23,5.69Z" transform="translate(-440.8 -455.49)"/><path class="cls-17" d="M2439.09,1591.05h-47.81a21.24,21.24,0,0,1,0-42.48h47.81a21.24,21.24,0,0,1,0,42.48Z" transform="translate(-440.8 -455.49)"/><path class="cls-10" d="M2390.77,1550a19.37,19.37,0,0,0-19.35,19.34v1a19.37,19.37,0,0,0,19.35,19.34h144.74a19.37,19.37,0,0,0,19.34-19.34v-1a19.37,19.37,0,0,0-19.34-19.34Zm144.74,42.48H2390.77a22.13,22.13,0,0,1-22.11-22.1v-1a22.13,22.13,0,0,1,22.11-22.1h144.74a22.13,22.13,0,0,1,22.1,22.1v1a22.13,22.13,0,0,1-22.1,22.1Z" transform="translate(-440.8 -455.49)"/><path class="cls-9" d="M2388.84,1519.52h0a5.89,5.89,0,0,1-5.87-5.87v-19.32a5.87,5.87,0,1,1,11.73,0v19.32a5.88,5.88,0,0,1-5.86,5.87Z" transform="translate(-440.8 -455.49)"/><path class="cls-9" d="M2466.82,1519.52h0a5.88,5.88,0,0,1-5.86-5.87v-19.32a5.87,5.87,0,1,1,11.73,0v19.32a5.89,5.89,0,0,1-5.87,5.87Z" transform="translate(-440.8 -455.49)"/><path class="cls-9" d="M2544.81,1519.52h0a5.88,5.88,0,0,1-5.86-5.87v-19.32a5.87,5.87,0,1,1,11.73,0v19.32a5.89,5.89,0,0,1-5.87,5.87Z" transform="translate(-440.8 -455.49)"/><path class="cls-18" d="M2387.32,805.05l1.15-19.78-1.14,19.78h0" transform="translate(-440.8 -455.49)"/><path class="cls-13" d="M2387.33,805.05l1.14-19.78,1.83-31.75a108,108,0,0,0,11.13.46c18.65,0,58.86-3.14,106.06-25.83l2,29.74s-31.19,38.59-122.19,47.16" transform="translate(-440.8 -455.49)"/><path class="cls-13" d="M2462.56,868.91h-61.19a16.73,16.73,0,0,1-16.75-16.69c0-.33,0-.67,0-1l1.59-27.43v-.25s60-4,125.32-35.41l3,43.78s-16.64,20.1-52,37" transform="translate(-440.8 -455.49)"/><path class="cls-13" d="M2391.25,737.29l2.27-39.38c2.63.14,5.45.23,8.45.23,23.59,0,57.89-5.23,93.32-28.59a16.81,16.81,0,0,1,9.16,13.8l.79,11.55c-11,10.15-44.51,35.06-114,42.39" transform="translate(-440.8 -455.49)"/><path class="cls-6" d="M1444,887.62l-.86-.88L1502,829.39h.23c205.23-10.1,399.27-62.63,401.2-63.16l.33,1.19c-1.94.53-196,53.06-401.23,63.19l-58.54,57Z" transform="translate(-440.8 -455.49)"/><path class="cls-19" d="M2025.54,1022.45a5.93,5.93,0,0,1,1.06,6.33l0,0c-1.53,4.21-6.57,8.92-12.42,13.63-.75.6-1.42,1.15-2,1.66l-.44.4-.35.31c-5.46,5-3.4,6.19-13.21,16.4-11.19,11.64-18.89,11.85-21.08,10.79-1.86-.9,1.91-7.08,6.08-14l.61-1c.56-.92,1.11-1.86,1.66-2.78,4.89-8.35,3.63-12.27,2.48-24.7-1-10.1-15.71-56.41-15.71-56.41l21.43-3.7s6.46,36.89,13.57,42.57c3.8,3,8.06,3.06,11.72,5.31.26.15.51.31.76.48a28.18,28.18,0,0,1,5.86,4.71Z" transform="translate(-440.8 -455.49)"/><path class="cls-20" d="M2025.54,1022.45a5.93,5.93,0,0,1,1.06,6.33l0,0c-1.87,4.21-6.78,8.9-12.44,13.58-.74.62-1.4,1.18-2,1.71l-.44.4-.35.31c-5.46,5-3.4,6.19-13.21,16.4-11.19,11.64-18.89,11.85-21.08,10.79-1.86-.9,1.91-7.08,6.08-14a47.48,47.48,0,0,0,19.94-14.69c6.74-8.59,11.23-19.64,15.82-26,.26.15.51.31.76.48a28.18,28.18,0,0,1,5.86,4.71Z" transform="translate(-440.8 -455.49)"/><path class="cls-19" d="M1852.69,1009.06c-1.32,6.62-10.75,5.52-21.29,2.94s-8,.49-23-1.17-19.54-7.26-20-9.49c-.41-2,7-2.67,15-3.59l3-.36c9-1.12,15.54-6.91,23.69-11.67,7.73-4.51,19.25-22.86,19.25-22.86l20.57,1.63s-10.8,16.39-15,23.52c-2.46,4.19-2.33,9.74-2,14a26.3,26.3,0,0,1-.16,7Z" transform="translate(-440.8 -455.49)"/><path class="cls-20" d="M1831.4,1012c-10.54-2.57-8,.49-23-1.17s-19.54-7.26-20-9.49c-.41-2,7-2.67,15-3.59l.07.15a42.3,42.3,0,0,0,21.48,6.68c10.18.25,21-2.67,28-2.55a26.3,26.3,0,0,1-.16,7c-1.32,6.62-10.75,5.52-21.29,2.94Z" transform="translate(-440.8 -455.49)"/><path class="cls-21" d="M1931.51,877.55l19.23,51.74,25.1,67.55a40.6,40.6,0,0,0,13.34-1.22c6-1.73,12.89-6.28,12.89-6.28s-7-72.53-20-114.17c-3.33-10.69-7.07-19.33-11.19-24.2-20.15-23.82-39.4,26.58-39.4,26.58Z" transform="translate(-440.8 -455.49)"/><path class="cls-10" d="M1951.06,795.38c12.6-4.06,48.52,1.16,84.61,8.22l7.56-12.46,77.95-6.09s25.72,57,11.64,93.39c-2.07,5.34-6.18,8.77-13.19,8.88h-1.14l-61.46,0c-38.77,0-82-26.64-87.64-27.76-9.17-1.84-12.83,16.49-22,35.73s-86.13,85.22-86.13,85.22-11.83.12-16.72-1.71c-5.25-2-7.18-4.53-7.18-4.53s85.29-169.69,113.7-178.86Z" transform="translate(-440.8 -455.49)"/><path class="cls-22" d="M2029.24,675.74c23.5,21.25,80.84,59,81.17,58.81,0,0,18.36,12.35,31.57,7.45,22-8.15,40.29-39.79,12.36-77.3-13.92-18.72-25.94-25.27-21.79-49,4.48-25.67-5.48-58.76-35.14-61.68-2.48-.24-17.43-3-28.35-.23-27.84,7.16-79,106.59-39.82,121.91Z" transform="translate(-440.8 -455.49)"/><path class="cls-19" d="M2063.85,661.75c-.14,0,13,8.39,22.92,6.53,9.32-1.73,18.34-13.84,18.22-13.88-3.8-1.08-6.57-5.7-4.62-28.48l-1.78.2-29.81,3.41s-.09,9.28-.78,18c-.58,7.3-2.41,13.6-4.15,14.24Z" transform="translate(-440.8 -455.49)"/><path class="cls-23" d="M2068.78,629.53s-.09,9.28-.78,18c16.45.88,26.36-13.38,30.59-21.39l-29.81,3.41Z" transform="translate(-440.8 -455.49)"/><path class="cls-19" d="M2062.63,637.31s38.78,3.83,40.79-20.36,8.37-40-16.31-43.45-30.26,5.36-32.89,13.27-1.63,48.92,8.41,50.54Z" transform="translate(-440.8 -455.49)"/><path class="cls-22" d="M2066.78,569.68s4.89,29.55,27,36.56c16.12,5.12,23.42,1.74,23.42,1.74a65.64,65.64,0,0,1-10.52-24.58,11.82,11.82,0,0,0-7.88-9c-11.46-3.76-25.33-14.06-32-4.69Z" transform="translate(-440.8 -455.49)"/><path class="cls-22" d="M2074.09,576s-7.31,1.63-13.79,11.06c-3.54,5.15-7.64,18.15-6.94,23.9,0,0-6.78-27.35,3.11-37.52,10.5-10.79,17.62,2.56,17.62,2.56Z" transform="translate(-440.8 -455.49)"/><path class="cls-24" d="M2134.51,741.81c-.69,2.94-1.28,5.64-1.76,8.13-.79,4-1.33,7.49-1.72,10.56-1.18,9.54-.82,15.19-1.63,21.37a52.61,52.61,0,0,1-2.9,11.64c-1.6,4.43-43.75,8.38-67.73,6.79-7.61-.5-13.41-1.57-15.47-3.35-8.55-7.43-7.7,8.91-8.88-69.27-.56-38.14,32.36-72.1,32.36-72.1s2.63,16.29,35.29-3.1c1.16-.68,14,18.37,26.4,41.82,13.63,25.9,9.89,31.38,6,47.51Z" transform="translate(-440.8 -455.49)"/><path class="cls-10" d="M1950.74,929.29l25.1,67.55a40.6,40.6,0,0,0,13.34-1.22c6-1.73,12.89-6.28,12.89-6.28s-7-72.53-20-114.17l-31.36,54.12Z" transform="translate(-440.8 -455.49)"/><path class="cls-24" d="M2066.78,655.57s-33.6,5.7-37.54,20.17S1998,771.11,1998,771.11s21.12,7.21,29-.68,27.46-73.21,27.46-73.21l12.28-41.65Z" transform="translate(-440.8 -455.49)"/><path class="cls-19" d="M1929.81,752.52l-8-3.16s-4.79-1.06-7.37-.25-9.06.73-9.09,1.79,7.38,4.36,7.38,4.36l.23-.09c-2.81,6.38-16.89,10-17.57,12.35-.82,2.84,5.73,4.3,9.29,5.19s12.31.79,16.62-3.75c3.14-3.32,8.47-7.89,8.47-7.89v-8.55Z" transform="translate(-440.8 -455.49)"/><path class="cls-25" d="M2071.58,623.05a6.68,6.68,0,0,1-5.92,4c-4.3,0-5.46-.65-6.27-1.56a13.62,13.62,0,0,1-1.62-2.66,36.56,36.56,0,0,1,13.81.24Z" transform="translate(-440.8 -455.49)"/><path class="cls-24" d="M2007.4,743.15l-81.35,6.21s-1.7,7.89,3.55,16.84c0,0,73.38,14.34,92.53,7s17-41.89,17-41.89l-31.73,11.82Z" transform="translate(-440.8 -455.49)"/><path class="cls-19" d="M2058.11,744.56l-5.4-6.64s-3.66-3.26-6.31-3.81-8.26-3.79-8.81-2.88,4.31,7.41,4.31,7.41l.25,0c-5.57,4.19-19.63.49-21.36,2.2-2.1,2.07,2.89,6.55,5.57,9.06s10.35,6.7,16.33,4.84c4.37-1.36,11.25-2.74,11.25-2.74l4.17-7.47Z" transform="translate(-440.8 -455.49)"/><path class="cls-4" d="M2131,760.5c-1.18,9.54-.82,15.19-1.63,21.37-30.5.1-71.29-23.56-71.29-23.56L2131,760.5Z" transform="translate(-440.8 -455.49)"/><path class="cls-4" d="M2058.11,738.3s47.52-1.41,55.54-28.43c8.8-29.68,18.65,12.21,18.65,12.21l-5.24,26.73h-52.14l-16.81-10.51Z" transform="translate(-440.8 -455.49)"/><path class="cls-24" d="M2102.07,652.49s30.85,2,38.56,14,17.28,73.12,13.27,94.1-102.81-4-102.81-4l3.15-18.2s57,.33,60.27-7.1c4.32-9.87-12.44-78.84-12.44-78.84Z" transform="translate(-440.8 -455.49)"/><path class="cls-6" d="M2143.33,751.35c-37.91,0-74.95-2.8-104.71-10.59a.61.61,0,0,1,.31-1.19c33.91,8.87,99.79,16.7,221.06,3.6,72.55-7.84,131.31-19.63,131.9-19.75a.62.62,0,0,1,.24,1.21c-.58.12-59.4,11.92-132,19.77-34.65,3.74-76.21,7-116.79,7Z" transform="translate(-440.8 -455.49)"/><path class="cls-6" d="M1945.12,763.08a366.6,366.6,0,0,1-37.51-2,.62.62,0,0,1-.55-.68.61.61,0,0,1,.67-.55c76.42,7.88,118-10.32,118.38-10.5a.62.62,0,0,1,.82.31.61.61,0,0,1-.31.81c-.34.16-28.73,12.59-81.5,12.59Z" transform="translate(-440.8 -455.49)"/><path class="cls-26" d="M2353.13,1277.81a112.29,112.29,0,1,1,112.28,112.29,112.29,112.29,0,0,1-112.28-112.29Z" transform="translate(-440.8 -455.49)"/><path class="cls-25" d="M2380.83,1279.58a84.59,84.59,0,1,1,84.58,84.58,84.59,84.59,0,0,1-84.58-84.58Z" transform="translate(-440.8 -455.49)"/><path class="cls-26" d="M2378.68,1044.83a68.6,68.6,0,1,1,68.6,68.6,68.6,68.6,0,0,1-68.6-68.6Z" transform="translate(-440.8 -455.49)"/><path class="cls-25" d="M2395.6,1045.91a51.68,51.68,0,1,1,51.68,51.68,51.68,51.68,0,0,1-51.68-51.68Z" transform="translate(-440.8 -455.49)"/><path class="cls-27" d="M2228,1254.78s40.3,11,61.17,5.85,61-27.26,61-27.26l6.32,11.06s-32.85,48.94-63.21,54.5-65.32-44.15-65.32-44.15Z" transform="translate(-440.8 -455.49)"/><path class="cls-19" d="M2415.94,1390.42s20.87,8.32,27.91,6.1,19.18-9,21.37-14.59-14.33,1.45-19.91,0-11.65-3.16-22.58,0-6.79,8.49-6.79,8.49Z" transform="translate(-440.8 -455.49)"/><path class="cls-28" d="M2226.17,1870.52s1.58,25.39,6.29,31.36H2305c-.46-2.53-2.51-8.78-11.58-10.37-11.47-2-30.66-10-37.6-25.2-7.31-15.94-29.67,4.21-29.67,4.21Z" transform="translate(-440.8 -455.49)"/><path class="cls-28" d="M2097.41,1867s-4.79,31.61,1.43,32.18c.82.07,29.89,0,37.79,1.2,12.9,1.94,34.43.25,34.43.25a3.41,3.41,0,0,0,3.09-5.13c-1.51-2.55-4.38-5.27-9.86-6.32-11.43-2.2-30.47-10.6-37.15-25.87-7-16.06-29.73,3.69-29.73,3.69Z" transform="translate(-440.8 -455.49)"/><path class="cls-4" d="M2260.29,1532.58s-18.25,63.84-70.53,174.71-56.33,161.38-56.33,161.38l-36-1.69s3.39-132,28.09-187.91,29.73-209,29.73-209l105.06,62.55Z" transform="translate(-440.8 -455.49)"/><path class="cls-24" d="M2289.58,1477.65s1.45,98.86-15.65,220.23-11.31,172.9-11.31,172.9l-41,1.37s-24.48-121.43-17.46-182.18-33.53-208.47-33.53-208.47l118.91-3.85Z" transform="translate(-440.8 -455.49)"/><path class="cls-19" d="M2208.75,1246.31l19.32,14.32,27.92-5.88c-.38-2.55-2.23-13.1-3.9-22.66-.1-.57-.21-1.13-.3-1.68-1.44-8.14-2.68-15.12-2.68-15.12l-26.08-13-9.73-4.85c0,.17.76,9,.86,10.32,1.82,23-5.41,38.55-5.41,38.55Z" transform="translate(-440.8 -455.49)"/><path class="cls-10" d="M2293.33,1480.91c1.77,17.64-139.39,38.52-139.93,8.93-.46-26,15-169.27,19.84-189.76,8.49-36.27,16.12-57,32.29-61.74,6-1.74,28,4,43.89,8.59a26,26,0,0,1,3.28,1.14,33.7,33.7,0,0,1,19.76,21.64c2.45,8.26,5.28,18.83,7.56,30.5a231.84,231.84,0,0,1,4.28,33.12q.21,3.53.22,7c.09,8.66.85,19.84,1.91,32.27.67,7.83,1.47,16.17,2.3,24.66.25,2.43.5,4.88.73,7.34.18,1.7,2.88,57.67,3.67,72.65,0,.22,0,.41,0,.6v.07c0,.21,0,.43,0,.63.08,1.34.12,2.16.13,2.34Z" transform="translate(-440.8 -455.49)"/><path class="cls-29" d="M2216.12,1208.17c5.72,11,27.07,20.43,36,23.92-.1-.57-.21-1.13-.3-1.68-1.44-8.14-2.68-15.12-2.68-15.12l-26.08-13c-5.77-.09-9.28,1.37-6.91,5.88Z" transform="translate(-440.8 -455.49)"/><path class="cls-19" d="M2261.78,1213.76s-47.05,14.68-55.74-14.76-20.61-47.38,9.06-58,38.85-1.11,44.14,8,14.56,60.17,2.54,64.75Z" transform="translate(-440.8 -455.49)"/><path class="cls-28" d="M2257.4,1146.17s-3,34.26-10.09,32.78-13.51-2.59-12.47,7.73,10.86,22.26-11,24.09-53.22-54.49-47.22-65.15c17.3-30.77,105.77-37,80.76.55Z" transform="translate(-440.8 -455.49)"/><path class="cls-19" d="M2350.25,1233.37s8.71-17.08,15.58-22.29,24.86-3.48,25.52-2.09c2,4.29-14.71,10.53-16.71,14.38s6,3.65-.31,10.28c-5.29,5.61-17.76,10.78-17.76,10.78l-6.32-11.06Z" transform="translate(-440.8 -455.49)"/><path class="cls-19" d="M2367.67,1226.85c.11,0,5.68-.65,11.11-1.24,4-.43,7.91-2.21,9.55-2.29,3.87-.19,1.14,6-7.23,9-7.09,2.59-9.1,6.79-15.79,7.92-8.09,1.37,2.36-13.41,2.36-13.41Z" transform="translate(-440.8 -455.49)"/><path class="cls-27" d="M2254,1239.09c-.61-.25-38-11.28-42-9.94s-6.47,9.19-6.47,9.19l57.7,16.44s-1.38-12.4-9.19-15.69Z" transform="translate(-440.8 -455.49)"/><path class="cls-19" d="M2422.73,1381.93s6.68-5.65,12.5-6.92,10.93-6.56,10.93-4-4.37,8.74-4.37,10.93-19.06,0-19.06,0Z" transform="translate(-440.8 -455.49)"/><path class="cls-10" d="M2286.43,1372.62c-30-11.38-52.7-55.58-52.7-55.58l50.57,16.29q.21,3.53.22,7c.09,8.66.85,19.84,1.91,32.27Z" transform="translate(-440.8 -455.49)"/><path class="cls-10" d="M2423.66,1386.75l.06-.24a11.09,11.09,0,0,0-5.94-12.78c-18.83-9.08-67.62-32.6-73.06-35.52-5.75-3.08-62.86-58-79.94-74.47a11.08,11.08,0,0,0-11.16-2.56l-47.32,15.46a11.11,11.11,0,0,0-2.83,19.72c34.8,23.86,107.61,73.49,120.7,80.18,23.07,11.8,69.76,18,87,19.91a11.08,11.08,0,0,0,11.45-6.66,24,24,0,0,0,1-3Z" transform="translate(-440.8 -455.49)"/><path class="cls-13" d="M961.89,1462.47s-57.71,5.46-88.69,95.9-21.94,259.08-44.83,276-146.3-26.27-156.18,1.49,0,31.05-27.15,17.88-73.22-17.7-63.35,4.32-51,7.25-49.37,37.26H843s147.1-15.25,142-81.07S928,1595,959.25,1537s72.08-88.16,72.08-88.16l-69.44,13.66Z" transform="translate(-440.8 -455.49)"/><path class="cls-24" d="M918.38,1873.19l-13,4.86s-56.71-78.65-63.7-147.86c-1.24-12.35-.83-24.32,1.87-35.38,0,0-.56-3.16-1.53-8.76-.44-2.61-1-5.75-1.63-9.36-1.84-10.56-4.38-25-7.28-41.47-6.67-37.88-15.32-86.3-22-121.89l3.52-1.13,38.06-12.28,7.87-25,28.34-7.47s6.34,12.39,12,70.9c1,7.68,2,16.14,2.7,25.32a500.93,500.93,0,0,1-2.69,102.49q-2,15.25-5,31.46c-1.49,7.91-1.72,18.69-1.09,31.06,2.86,56.57,23.62,144.49,23.62,144.49Z" transform="translate(-440.8 -455.49)"/><path class="cls-4" d="M903.52,1563.69,842,1686.05c-.44-2.61-1-5.75-1.63-9.36-1.84-10.56-4.38-25-7.28-41.47-6.67-37.88-15.32-86.3-22-121.89l3.52-1.13,38.06-12.28,7.87-25,28.34-7.47s6.34,12.39,12,70.9c1,7.68,2,16.14,2.7,25.32Z" transform="translate(-440.8 -455.49)"/><path class="cls-24" d="M876.45,1483.18,875,1471c-23.87,6.34-87.65-17.72-87.65-17.72s-23.13,20.33-20.09,69.06c1.48,23.78,4.19,124.84,7,154.75,1,10.84,1.91,18.55,2.28,21.63v0a4.28,4.28,0,0,1-.7,2.65,139.68,139.68,0,0,0-10.43,22c-27.75,73.94,4.27,165,4.27,165L778,1885s18.23-101.34,33-146.12c2.52-7.59,4.93-13.56,7.14-17.13,6.43-10.39,12.41-27.37,17.83-47.56,10.25-38.18,18.5-87.84,24-126.18.76,0,16.42-64.8,16.42-64.8Z" transform="translate(-440.8 -455.49)"/><path class="cls-19" d="M1047.81,1442.57l-1.78,12s-.79,0-2.17-.09c-4.35-.3-14.92-.89-26.88-2.18-18-1.78-39.32-4.94-47.82-10.18-12.94-7.9-34.19-32.11-48-56.32a15,15,0,0,1-1-1.78c-7.21-12.84-12.25-25.59-12.65-35.76a51.12,51.12,0,0,1,1.68-16.21,41.31,41.31,0,0,1,7.31-14.62,7.11,7.11,0,0,1,1.39-1.68,34,34,0,0,1,9.38-8c2.37-1,4.94.2,7.61,3.07v.09a45.39,45.39,0,0,1,6.82,10.08c.1.1.2.2.2.3.49.89,1,1.88,1.58,3a2.46,2.46,0,0,1,.39.7q1.64,3.4,3.26,7.11c12.16,26.48,25.1,66.6,35.87,78.55,4.65,5.14,25.89,15.22,42.79,22.73,12.15,5.34,22,9.29,22,9.29Z" transform="translate(-440.8 -455.49)"/><path class="cls-19" d="M922.05,1335a74.25,74.25,0,0,1-27.49,6.44c-41,2.25-50.36-33.73-52-57.6a34.3,34.3,0,0,1,14.08-1.79c2.91.17,5.95.46,8.45.77,5-2.62,14-15.36,19.25-36.67l1.77.82,29.62,13.93s-3.15,9.63-5.47,18.85c-1.81,7.22-3.12,14.19-2,16.14,2.34,1,3.73,1.55,3.73,1.55v0A203,203,0,0,1,922.05,1335Z" transform="translate(-440.8 -455.49)"/><path class="cls-10" d="M932.32,1361.9c-.31.82-.65,1.62-1,2.44-10.39,22.39-29.63,115.11-29.63,115.11,2.74,16.68-125.3-3.27-125.63-18.45-4.51-16.09,16-42,27.57-54.93a37,37,0,0,0,3.88-5.22,36.3,36.3,0,0,0,5.24-15.31c2.28-21.52,1.41-41.68,1.6-54h0c2.26-1.67,4.45-3.22,6.48-4.69a57.28,57.28,0,0,0,7.89-6.54c2.23-2.35,3.63-4.75,3.79-7.45a41,41,0,0,0-.16-6.25c-.1-1-.23-2-.38-3a84.87,84.87,0,0,0-5.94-19.86c11-4.46,30.59-1.81,30.59-1.81s0,1.09,0,2.87c-.07,7.16,0,25.52,2.29,29,2.87,4.33,55.32,23.29,58.09,17.42s-4.74-32.85-5-33.87v0c17.57,6.89,23.85,12.68,23.85,12.68-10.59,6.87,4.74,30.09-3.44,51.81Z" transform="translate(-440.8 -455.49)"/><path class="cls-30" d="M897,1168.47c-.06-1.78-1.44-21-30.64-22,0,0,14.36,1.71,16.84,8,0,0-9.78-7.8-17.74-5.29s-12.64,16.46-12.69,21,4.38,19.38,9.43,20.63a15.37,15.37,0,0,0,6.12,0,69.56,69.56,0,0,0-3.92,7c-11.65,23.92.36,47.3,10.23,44.71,6.33-1.65,8.12,9.14,8.12,9.14L944.2,1202s-22.58-46.72-47.22-33.57Z" transform="translate(-440.8 -455.49)"/><path class="cls-31" d="M915.68,1260.87s-3.15,9.63-5.47,18.86c-17.31-4.83-22.57-23-24.15-32.78l29.62,13.92Z" transform="translate(-440.8 -455.49)"/><path class="cls-19" d="M919.32,1271.06s-41.41-9.58-35-35.28,5.3-44.24,32-39.21,29.4,16.11,29.36,25.2-15.39,51.13-26.33,49.29Z" transform="translate(-440.8 -455.49)"/><path class="cls-30" d="M948,1207.19c-4.45-9.32-9.69-8.82-13-7.17-19.46-18-38.54-3.3-38.54-3.3a50.58,50.58,0,0,1-23.27,25s6.36,6.52,24.8,6.37c5.63,0,11.3-2.63,16.45-6.19a99.11,99.11,0,0,1-21.59,16.1c23.08-4.41,38.56-31.13,40.14-34,2,2.89,5.7,9,6,14.22.43,7.06-2,20.75,2,21.27,0,0,13.61-18.37,6.93-32.33Z" transform="translate(-440.8 -455.49)"/><path class="cls-10" d="M935.76,1310.09s10,17.39,11.47,21.87c0,0-12.93-.5-18.16,9.45,0,0-1.25-29,6.69-31.32Z" transform="translate(-440.8 -455.49)"/><path class="cls-10" d="M867.18,1448.3c-25.25-.27-46.63-26.49-59.7-47.45a36.3,36.3,0,0,0,5.24-15.31c2.28-21.52,1.41-41.68,1.6-54h0c2.26-1.67,4.45-3.22,6.48-4.69a57.28,57.28,0,0,0,7.89-6.54c20.68,35,72.73,128.3,38.49,127.94Z" transform="translate(-440.8 -455.49)"/><path class="cls-20" d="M818.05,1895.11H752.28s-1.57-10,1.86-17.62c3.29-7.3,8.45-10.62,7.22-19.44,4.17,4.3,11,9.12,20.49,7.84,1.17,1.88,7.52,12,11.41,14.79,4.3,3.09,23.46,2,24.79,14.43Z" transform="translate(-440.8 -455.49)"/><path class="cls-20" d="M959.25,1895.11H893.48s-2.45-10.49,1.86-17.62c3.82-6.32,2.36-9.92-.47-15.14a25.44,25.44,0,0,0,11.08,2.08c3.27-.18,6.74-1.67,9.77-3.44,2.83,3.23,14.95,17,18.74,19.69,4.3,3.09,23.46,2,24.79,14.43Z" transform="translate(-440.8 -455.49)"/><path class="cls-19" d="M968,1466l-2.65,10.2s-32.84-6.88-40.05-8.46h-.1c-12.35-3-26.19-6.53-37.85-10.48-8.2-2.86-15.31-5.93-20.15-9a11.93,11.93,0,0,1-1.39-1c-11.56-8.4-25.29-33.1-36-59.58-1.48-3.66-2.87-7.31-4.25-10.87a271.38,271.38,0,0,1-11.27-37.55,105.45,105.45,0,0,1-2.66-17.88,43.22,43.22,0,0,1-.1-5c.2-28.66,14.42-32.61,14.42-32.61a10.13,10.13,0,0,1,1-.29c2.47-.4,5,1.28,7.71,4.54,3.36,4,6.92,10.67,10.57,18.67,5.63,12.75,11.56,29.25,17.1,45.66,3.06,9,6,18,9,26.28,1.68,5,3.36,9.78,4.94,14.13,3.06,8.3,5.83,15,8.3,19.27,1.58,2.76,6.12,6.62,12.15,11,10.47,7.61,71.26,43,71.26,43Z" transform="translate(-440.8 -455.49)"/><path class="cls-10" d="M845.22,1306.75c-19-5.25-33.7,9.6-33.7,9.6.24-28.6,14.48-32.52,14.48-32.52,5.73-2.37,12.37,7.55,19.22,22.92Z" transform="translate(-440.8 -455.49)"/><path class="cls-26" d="M1595.27,1554.65c.56,1.58-234.72,120.92-234.72,120.92s27.14,13.27,65.21,4.45,184.11-92.83,184.11-92.83l-14.6-32.54Z" transform="translate(-440.8 -455.49)"/><path class="cls-10" d="M1358.53,1555.22s-78,125.71-286.37-104.12a29.67,29.67,0,0,0-29.23-8.88l-81,20.25s7-.56,10.74,3.28a21,21,0,0,1,4.26,7.51c16.72,46.65,79.3,202.93,180.76,246.13,119.72,51,246.62,21.53,341.54-164.17Z" transform="translate(-440.8 -455.49)"/><path class="cls-10" d="M1891.86,1605.78c-.19.34-.39.68-.58,1-4.62,8-15.21,27.68-26.87,49.19-5.52,10.21-11.29,20.83-16.77,30.83-9.44,17.25-18,32.62-23.05,40.74s-8.84,14-10.36,16.37v0a3.81,3.81,0,0,0-.5,2.39,125.93,125.93,0,0,1-.33,21.64c-7,70-54.23,107.49-54.23,107.49l-14,2.07S1765,1804,1770.84,1762.4c1-7.05,1.42-12.77,1.07-16.49-1-10.84.89-26.75,4.53-45,6.48-32.46,18.36-72.3,28.69-104.19.66-2,20.39-73.42,20.39-73.42,16.56,14.48,77,20.45,77,20.45s10.25,24.91-10.63,62Z" transform="translate(-440.8 -455.49)"/><path class="cls-20" d="M1715.68,1895.31h58.56s1.41-8.93-1.65-15.7c-2.93-6.5-7.11-6.7-.54-16.89-3.72,3.83-15.68,5.42-24.15,4.28-1,1.68-6.68,13-10.15,15.45-3.83,2.75-20.89,1.77-22.07,12.86Z" transform="translate(-440.8 -455.49)"/><path class="cls-10" d="M1891.86,1605.78c-.19.34-.39.68-.58,1-4.62,8-29.58,54.13-41.25,75.64,13.52-55.6,4.12-111.2,4.12-111.2l37.71,34.53Z" transform="translate(-440.8 -455.49)"/><path class="cls-30" d="M1665.82,1331.15s-2.32-25.27,25.91-25.27c0,0-8.55,2.32-13,7,0,0,18-10.57,37.61,5.67s7.42,57,13.38,64.72,29.16,9.29,26.33,34.3-73.66,56.34-69.11,77c0,0-27.75-40.79-7.91-59.41,0,0-9.67,9.11-10.65,19.94,0,0-2.63-21.14,10.83-27.91,11.9-6,21.66-27.87,20.62-31.78s-34-64.25-34-64.25Z" transform="translate(-440.8 -455.49)"/><path class="cls-19" d="M1705.67,1437.26s-40.17,101.37-48.83,97.61-59.67-20-59.67-20l-3.36,12.42s48.55,37.41,73.53,39.05,58.82-72,58.82-72l-20.49-57.15Z" transform="translate(-440.8 -455.49)"/><path class="cls-26" d="M1665.39,1699a30.89,30.89,0,1,0-41.86-12.49,30.93,30.93,0,0,0,41.86,12.49Zm-38.72-71.66a50.55,50.55,0,1,1-20.44,68.51,50.62,50.62,0,0,1,20.44-68.51Z" transform="translate(-440.8 -455.49)"/><path class="cls-26" d="M1604,1540a30.89,30.89,0,1,0,37.26-22.81A30.91,30.91,0,0,0,1604,1540Zm-19.12-4.6a50.56,50.56,0,1,1,37.33,61,50.62,50.62,0,0,1-37.33-61Z" transform="translate(-440.8 -455.49)"/><path class="cls-30" d="M1673.8,1327.59c-.38-1.53,33.45,15.3,35.17,17.2,15.87,17.6,11.34,40.57,2.26,40.79-5.82.14-4.69,9.82-4.69,9.82L1641.67,1368s7.81-45.55,32.13-40.37Z" transform="translate(-440.8 -455.49)"/><path class="cls-24" d="M1695.6,1439.37s-8.64,9-8.64,35.72c0,0,11.91,18.79,42.78,23.55,0,0-26.54-59.28-34.14-59.27Z" transform="translate(-440.8 -455.49)"/><path class="cls-10" d="M1846.2,1548.1l-.2-10.95c21.82,2.75,75.25-26.08,75.25-26.08s22.83,15.19,26,58.55c1.52,21.17,11.17,110.69,12.24,137.42.39,9.68.52,16.6.56,19.36v0a3.76,3.76,0,0,0,.93,2.25,125.19,125.19,0,0,1,11.82,18.13c33.3,62,15.89,146.14,15.89,146.14l-7.73-2s-28.16-87.28-46.56-125c-3.13-6.4-6-11.38-8.34-14.26-6.92-8.41-14.22-22.68-21.41-39.86-13.59-32.47-58.41-163.74-58.41-163.74Z" transform="translate(-440.8 -455.49)"/><path class="cls-20" d="M1942.08,1895.31h58.56s1.41-8.93-1.65-15.7c-2.93-6.5-7.53-9.45-6.43-17.31-3.72,3.83-9.78,8.12-18.25,7-1,1.68-6.7,10.68-10.16,13.17-3.83,2.75-20.89,1.77-22.07,12.86Z" transform="translate(-440.8 -455.49)"/><path class="cls-24" d="M1733.69,1511.22c7.87,1.34-1.28,7.59,9.54,8.77,15.39,1.68,31.29,2.83,39.62,6.15,3,1.21,5.07,2.71,5.71,4.62,3.61,10.86,19.52,27.61,19.52,27.61,102-4.64,113.17-47.3,113.17-47.3-66.18-64.28-127-102.18-173.51-107.2-8-.86-18,4.19-25.17,7.37-16.27,7.25-27,28.13-27,28.13s8.2,66.75,38.09,71.85Z" transform="translate(-440.8 -455.49)"/><path class="cls-4" d="M1743.23,1520c15.39,1.68,31.29,2.83,39.62,6.15,3.41-50.86-20.59-89.12-20.59-89.12s-15.66,63.72-19,83Z" transform="translate(-440.8 -455.49)"/><path class="cls-19" d="M1729.94,1428.41s38.73-2.11,45.61,22.2S1762.64,1572,1758.37,1582c-7.76,18.23-45.56,70.28-45.56,70.28L1698.9,1648s25.21-79.51,30.84-87.38c8.83-12.35-11.39-121.67.2-132.25Z" transform="translate(-440.8 -455.49)"/><path class="cls-19" d="M1698.9,1648s-.71,6.16-3.32,9.35-10.18,10.88-10.31,15.39c0,0,.38,2,2,1.63s7.27-6,10.17-5.55c0,0-1.54,9-3.08,11.58s-.31,13.34.61,15.53,12.22-11.79,16.86-18,.08-31.6.08-31.6l-13,1.7Z" transform="translate(-440.8 -455.49)"/><path class="cls-24" d="M1783.18,1483.13c-.1.56-36.64,6.72-59.5-4.88,0,0-19.1-59.83,8.19-57s43.45,11.45,44.14,24.52,7.17,37.32,7.17,37.32Z" transform="translate(-440.8 -455.49)"/><path class="cls-19" d="M1599.51,1510.25s-10-2.08-13.75,3.17-1.23,21,5.56,20.36,7.43-10.49,8.19-14.19,0-9.34,0-9.34Z" transform="translate(-440.8 -455.49)"/><path class="cls-19" d="M1722.57,1411.24s-10.76,40.18-27,28.13c.46-1.94-2.37-7.58-5.7-13.3-4.26-7.32-9.33-14.8-9.33-14.8l21.92-19.2,1.31-1.15c6.71,11.72,13.29,16.32,18.77,20.32Z" transform="translate(-440.8 -455.49)"/><path class="cls-31" d="M1680.57,1411.28s5.07,7.46,9.33,14.79c13.62-8.4,13.64-25.27,12.59-34l-21.92,19.21Z" transform="translate(-440.8 -455.49)"/><path class="cls-19" d="M1680,1420.9s33.07-18.41,21.29-38.83-15.44-36.55-37.06-25.67-21.19,21-18.91,28.81,25.77,40,34.68,35.69Z" transform="translate(-440.8 -455.49)"/><path class="cls-30" d="M1639.7,1373.29c1.51-9.06,6.12-9.93,9.33-9.32,12.22-20.21,32.18-12.32,32.18-12.32a45.08,45.08,0,0,0,26.07,15.66s-3.84,7.14-19.66,11.56c-4.83,1.35-10.31.53-15.6-1.25a88.39,88.39,0,0,0,22.45,8.47c-20.84,1.9-40.67-17.15-42.73-19.19-1,2.95-2.65,9.13-1.64,13.65,1.37,6.15,6.83,17.27,3.5,18.71,0,0-16.17-12.37-13.9-26Z" transform="translate(-440.8 -455.49)"/><path class="cls-26" d="M1610.52,1668.12c.14-1.67-257.88-56.67-257.88-56.67s22.82-19.79,61.88-21,201.76,42.5,201.76,42.5l-5.76,35.2Z" transform="translate(-440.8 -455.49)"/><path class="cls-6" d="M1507,1616.46a5.65,5.65,0,1,1-5.57,5.71,5.64,5.64,0,0,1,5.57-5.71Z" transform="translate(-440.8 -455.49)"/><path class="cls-19" d="M961.65,1462.32s16.72,6.52,20,9,9.46,10.83,10.58,15.2c0,0-.06,1.79-1.73,1.79S985,1482,982.3,1483c0,0,3.48,8.48,5.53,10.62s3.23,13,2.81,15.29-14.5-8.83-20.4-13.91c-3.14-2.71-3-9.27-4-16.69-.85-6.5-18.81-10.27-18.81-10.27l14.24-5.7Z" transform="translate(-440.8 -455.49)"/><path class="cls-19" d="M3056.47,1311.79a283,283,0,0,1-21.72,23.36c-14.45,13.89-33.85,29.38-50.87,32.27a27.27,27.27,0,0,1-13.1-.65c-8.52-2.74-17.21-8.47-25.42-15.48-23.39-20-42.81-50.12-42.81-50.12l12.16-13.78s27.22,20.21,44.25,31.07c6.77,4.29,11.94,7.12,13.14,6.6,4.23-1.81,77.45-51.18,77.45-51.18l6.92,37.91Z" transform="translate(-440.8 -455.49)"/><path class="cls-4" d="M3056.47,1311.79a283,283,0,0,1-21.72,23.36c-18.95,13.32-39,26-50.87,32.27-5,2.65-8.55,4.15-9.93,4.07-9-.53-28.3-12.7-28.3-12.7a43.24,43.24,0,0,1-.29-7.5c.87-18.51,13.2-32.39,13.6-32.83,6.77,4.29,11.94,7.12,13.14,6.6,4.23-1.81,77.45-51.18,77.45-51.18l6.92,37.91Z" transform="translate(-440.8 -455.49)"/><path class="cls-24" d="M2926.39,1489.1c2.5,15.33,4.21,26.48,4.21,26.48-18.81,8.2-40.33,11.56-61.31,12.22-7,.23-13.95.15-20.72-.16-10.55-.46-20.67-1.47-29.9-2.71a348.87,348.87,0,0,1-46.59-9.35c0-28.4,7.57-51.41,16.2-70.4,9.73-21.44,20.8-37.78,23.83-51,3.81-16.62-4.29-55.36-10.15-79.53-3-12.25-5.37-20.74-5.37-20.74-20.43-30-10.62-47.53-10.62-47.53s9.52-4,21.43-7.6l.18-.06c4.09-1.24,8.44-2.44,12.79-3.43a102,102,0,0,1,13.2-2.19c11.64-1,12.25-27.44,12.25-27.44s4.74-2.11,16.12-1.78a85.91,85.91,0,0,1,14.12,1.78s0,20.9,9.78,25.25c5,2.24,14.6,6.33,24,10.3h0l.94.39,3.09,1.31,4,1.69,1.93.82,3.1,1.31,12.08,5.08c4.36,11.29-10.9,36.64-10.9,36.64a26,26,0,0,1,1.06,5.7c0,.31.05.63.08,1,.54,8.24-1,19.58-3.39,31.94-4.16,21.81-10.74,46.81-12.3,63.63-.55,5.9-.48,10.8.53,14.19a3.33,3.33,0,0,0,.13.45c.65,2,1.37,4.59,2.14,7.77,4.29,17.67,10.16,52,14.08,76.06Z" transform="translate(-440.8 -455.49)"/><path class="cls-24" d="M2945.84,1890.24l-72.33-47a17.19,17.19,0,0,1-7.82-14.61l4.36-364.13c0-3.16-7.23-6.41-10.39-6.41s-12.58,1.34-12.58,4.5l8.43,368.42a11.88,11.88,0,0,1-5.4,10.23l-75.4,49a2.54,2.54,0,0,0,1.38,4.67l76.94-33.74a18.06,18.06,0,0,1,14.48,0l76.94,33.74a2.54,2.54,0,0,0,1.39-4.67Z" transform="translate(-440.8 -455.49)"/><path class="cls-19" d="M3102.16,1260.61s-20.4,24.21-46.38,14.08c0,0-5.59-13.52-5.67-23.48,0-1.23,0-2.42,0-3.55-.14-11.22-.52-17.51-.52-17.51h0c1.18-.49,39.71-16.31,39.68-15-.66,30.35,12.9,45.47,12.9,45.47Z" transform="translate(-440.8 -455.49)"/><path class="cls-23" d="M3085.39,1222.38c-3.71,6.89-16.46,20.36-35.32,25.28-.14-11.22-.52-17.51-.52-17.51h0c1.06-.29,36.92-9.79,35.81-7.76Z" transform="translate(-440.8 -455.49)"/><path class="cls-10" d="M2926.39,1489.1a244,244,0,0,1-56.63-.28,173.43,173.43,0,0,1-22.18-4.31c-22.93-6.11-45.13-17.81-59.3-39.33,9.72-21.44,20.8-37.79,23.84-51,3.79-16.62-4.3-55.36-10.16-79.53l5.44-75.87h0l.18,0,12.79-3.43s-4.34,48.55,64.43,51.41c21.65.89,33.81,3.85,40.32,7.46,2.48,27.62-21,93-14.95,111.16,4.25,12.73,11.6,55.44,16.22,83.83Z" transform="translate(-440.8 -455.49)"/><path class="cls-19" d="M3041.48,1229s43.34,10.19,49.27-16.9,15.51-44-11.91-51.66-35.07,1.5-39.25,10.06-9.23,55.15,1.89,58.5Z" transform="translate(-440.8 -455.49)"/><path class="cls-22" d="M3089.26,1219.46c.6.38,9.92,3.25,27.58-31.94,2.77-5.52,4.66-17.47-1.8-28s-29.38-18.86-48.41-22.47-23.61,7.1-28.09,17.87c-4.71,11.3-18.3,20.6-18.3,20.6,16.42,9.17,36.19-3.94,43-1.79s9.27,13,9.78,16.41,1.3,6.34,9.92,3.25,3.89,12.21,2.51,15.14c0,0-1.17,7.79,3.77,11Z" transform="translate(-440.8 -455.49)"/><path class="cls-30" d="M3200.9,1894.91h26.24c5.5,0,11.61-5.51,13.14-15.59s12.84-15.59,15.29-23.85-10.09-19.87-10.09-19.87l-2.1-2.7-2.18-2.8-20.78,4.88s-.52,5-.84,11.26c-.22,4.55-.34,9.81-.08,14.43.61,11-3.09,22.86-12.86,25s-5.74,9.24-5.74,9.24Z" transform="translate(-440.8 -455.49)"/><path class="cls-30" d="M3018.22,1894.91h69.56a6.46,6.46,0,0,0,1.48-.43c4.64-2.33,3.19-20.1,2.63-25.6-.11-1-.18-1.61-.18-1.61s-24.46-19.56-27.83-4.58c-.11.46-.23.92-.36,1.37h0c-4.24,14-23.23,20.38-34.19,22.16-8.38,1.36-10.55,6.24-11.11,8.68Z" transform="translate(-440.8 -455.49)"/><path class="cls-10" d="M3032.24,1493.8s3.72,46.34,8.08,102c5.94,75.67,13.07,168.63,13.78,186.24,1.22,30.58,6.12,79.49,6.12,79.49s11.61,11.62,34.85,6.73c0,0,20.71-69.83,26.63-143.71l.27-3.65c5.5-75.21,14.06-233.58,14.06-233.58l-103.79,6.43Z" transform="translate(-440.8 -455.49)"/><path class="cls-32" d="M3032.24,1493.8s3.72,46.34,8.08,102l81.38,128.75.27-3.65c5.5-75.21,14.06-233.58,14.06-233.58l-103.79,6.43Z" transform="translate(-440.8 -455.49)"/><path class="cls-10" d="M3049.21,1499.3s66.95,167.84,111,246.72S3218,1846.91,3218,1846.91s25.22-10.09,27.51-17c0,0-16.83-152.28-46.32-189.4-16.65-21-36.22-83.92-37.14-105.93s-6-65.58-6-65.58l-106.85,30.27Z" transform="translate(-440.8 -455.49)"/><path class="cls-24" d="M3153.9,1497.81c-18.33,10.83-35.63,18.86-55.72,23.11-23.8,5.17-52.88,3-62.63,4.18a4.09,4.09,0,0,1-2.85-.72c-.71-.45-4.55-29.82-8.2-67-.16-1.43-.34-3-.37-4.44l-.06-.52q-.6-5.81-1.15-11.78c-.49-5.58-1-11.24-1.4-16.94q-.51-6.65-1-13.31c-.06-1-.13-2-.2-2.91-1.13-16.39-2-32.53-2.22-46.88,0-2.38-.06-4.7-.07-7v-.31c-.06-9.49.2-18,.82-25,.16-1.79.34-3.48.56-5.07,2.85-21.54,13.27-36.7,23.06-48.08l9.52-11.9c9.19.8,17.21,2.16,26.18-3.59,9.72-6.23,14-14.64,16-13.54,15,8.81,33.3,33,41.46,62.38a332.84,332.84,0,0,1,9.7,52.39q1.18,10.78,1.8,21.93c2.13,39.8,8.37,73.8,12,93.57,1,5.68,1.86,10.21,2.3,13.34.45,2.84-5.1,6.65-7.53,8.09Z" transform="translate(-440.8 -455.49)"/><path class="cls-4" d="M3084.78,1311.79s-8.46,72-63.26,111.93q-.51-6.65-1-13.31c-.06-1-.13-2-.2-2.91-1.13-16.39-2-32.53-2.22-46.88,0-2.38-.06-4.7-.07-7v-.31c.05-8.47.31-16.14.82-22.68,16.78-10.28,38.53-17.47,65.92-18.85Z" transform="translate(-440.8 -455.49)"/><path class="cls-17" d="M2909.81,1241.16s-1.53,98-59.15,133.74-16.69,246.69-33.45,324.49,150.4,14.33,158.86-73.48-73-223.13-72.29-239.92,21.28-124.11,19.1-139.3l-13.07-5.53Z" transform="translate(-440.8 -455.49)"/><path class="cls-19" d="M3012.22,1396.92c-7.57,4.65-13.59,8-16.94,9.23-9.21,3.36-24,5.19-40.08,6.11-35.15,2-76-.24-76-.24-6.17,4.44-17,3.67-26.21-1.5s-7.17-2.93-13.76-6.46c-3.29-1.76-3-4.25-1.83-6.31a9.28,9.28,0,0,1,5.84-4.4c12.26-3.18,17.58-2.25,22.87-.65-1.13-1.59-1.69-3.16-1.43-4.12.36-1.33,9.28,4,13.22,6.39,13.23,1.88,44.4-7.34,67.65-15.2,14-4.72,25.14-9,27.76-10,2.13-.83,8.87-7.63,17.23-16.7,5.1,15.12,12.24,31.66,21.71,43.82Z" transform="translate(-440.8 -455.49)"/><path class="cls-24" d="M3091,1343.74c-27.46,19.37-78.54,55.63-91.87,63-8.58,4.76-19.7,14-36,17.68-23.28-15.83-17.63-44.67-17.63-44.67,14-4.72,25.14-9,27.76-10,7-2.7,63.81-69.94,63.81-69.94s21.65-27.82,41.13-23.24c16.93,4,24.26,16.53,27.26,28.73a36.39,36.39,0,0,1-14.49,38.39Z" transform="translate(-440.8 -455.49)"/><path class="cls-4" d="M2575,1896.8h-97.77a16.73,16.73,0,0,1-16.72-17.69l1.59-27.43,0-.26,1.07-18.48,3-51.53.95-16.23,2.27-39.38.84-14.39a16.73,16.73,0,0,1,16.7-15.77h76.68a16.55,16.55,0,0,1,7.55,1.8,16.79,16.79,0,0,1,9.16,13.8l.79,11.55,2.26,33.25.35,5.24,3.72,54.74,3,43.78,1.31,19.13A16.74,16.74,0,0,1,2575,1896.8" transform="translate(-440.8 -455.49)"/><polyline class="cls-33" points="2022.45 1375.54 2022.45 1375.54 2023.68 1354.22 2022.45 1375.54"/><polyline class="cls-34" points="2022.34 1377.45 2022.45 1375.54 2022.45 1375.54 2022.34 1377.45 2022.34 1377.45"/><path class="cls-35" d="M2463.14,1832.94l.11-1.91,1.23-21.32,1.64-28.3a107.77,107.77,0,0,0,11.13.46c18.65,0,58.85-3.14,106.05-25.83l2,29.74s-31.18,38.59-122.18,47.16" transform="translate(-440.8 -455.49)"/><path class="cls-35" d="M2538.37,1896.8h-61.19a16.74,16.74,0,0,1-16.75-16.69c0-.33,0-.67,0-1l1.59-27.43,0-.26s60-4,125.31-35.4l3,43.78s-16.63,20.1-52,37" transform="translate(-440.8 -455.49)"/><path class="cls-35" d="M2467.06,1765.18l2.27-39.38c2.63.14,5.46.23,8.45.23,23.6,0,57.89-5.23,93.32-28.59a16.79,16.79,0,0,1,9.16,13.8l.79,11.55c-11,10.14-44.5,35.06-114,42.39" transform="translate(-440.8 -455.49)"/></svg>