<?xml version="1.0" encoding="utf-8"?>
<!-- Generator: Adobe Illustrator 26.1.0, SVG Export Plug-In . SVG Version: 6.00 Build 0)  -->
<svg version="1.1" id="Capa_1" xmlns="http://www.w3.org/2000/svg" xmlns:xlink="http://www.w3.org/1999/xlink" x="0px" y="0px"
	 viewBox="0 0 492 125" style="enable-background:new 0 0 492 125;" xml:space="preserve">
<style type="text/css">
	.st0{fill:#1D1D1B;}
	.st1{fill:#FFFFFF;}
	.st2{fill:#2A2C2D;}
</style>
<g>
	<path class="st0" d="M154.38,72.59c0.01,1.08-0.16,2.16-0.47,3.21c-0.67,2.24-1.97,4.29-3.73,5.85c-0.84,0.74-1.78,1.37-2.8,1.84
		c-2.12,0.99-4.7,1.47-7.64,1.47c-9.87,0-15.75-4.99-15.75-13.31v-0.55h7.02v0.55c0,4.55,2.54,6.42,8.73,6.42
		c2.9,0,4.68-0.4,5.83-1.3c1.23-0.97,1.78-2.59,1.78-5.12c0-1.12-0.8-2.11-2.36-2.94c-1.65-0.9-3.52-1.45-5.14-1.91
		c-2.34-0.66-4.86-1.27-7.68-1.89c-1.89-0.42-4.41-1.32-5.75-3.27c-1.27-1.89-1.34-4.24-1.16-5.87c0.36-3.27,1.45-5.82,3.21-7.56
		l0.11-0.11c2.32-2.17,5.59-3.21,10.07-3.21c9.4,0,14.59,4.7,14.63,13.25v0.55l-0.56,0.09h-6.44v-0.55
		c-0.02-4.81-1.94-6.41-7.64-6.41h-0.07c-1.6,0-3.43,0.09-4.68,1.03c-0.58,0.44-1.02,1.08-1.29,1.93c-0.31,0.99-0.44,1.96-0.36,2.75
		c0.02,0.35,0.13,0.66,0.29,0.86c0.31,0.4,0.87,0.59,1.4,0.79l0.24,0.07c0.62,0.24,1.27,0.42,1.92,0.59l0.58,0.18
		c0.73,0.22,1.54,0.44,2.32,0.57c0.25,0.07,5.97,1.21,8.95,2.55c2.16,0.75,4.21,2.7,5.44,5.18
		C154.06,69.65,154.37,71.12,154.38,72.59"/>
	<path class="st0" d="M191.56,46.11v21.27c0,8.76-7.32,15.85-16.27,15.64c-8.73-0.21-15.47-7.75-15.47-16.36V46.11
		c0-0.04,0.04-0.08,0.08-0.08h7.01c0.04,0,0.08,0.04,0.08,0.08v21.27c0,4.72,3.92,8.55,8.69,8.55c4.79,0,8.69-3.82,8.69-8.55V46.11
		c0-0.04,0.03-0.08,0.08-0.08h7.03C191.52,46.03,191.56,46.06,191.56,46.11"/>
	<rect x="198.48" y="46.04" class="st0" width="7.17" height="36.98"/>
	<polygon class="st0" points="239.7,46.03 239.7,52.55 228.48,52.55 228.48,83 221.31,83 221.31,52.55 210.1,52.55 210.1,46.03 	"/>
	<polygon class="st0" points="251.33,52.55 251.33,61.25 271.27,61.25 271.27,67.78 251.33,67.78 251.33,76.5 271.27,76.5 
		271.27,83.02 244.16,83.02 244.16,46.03 271.27,46.03 271.27,52.55 	"/>
	<polygon class="st0" points="285.23,52.55 285.23,61.25 303.3,61.25 303.3,67.78 285.23,67.78 285.23,83 278.06,83 278.06,46.03 
		305.92,46.03 305.92,52.55 	"/>
	<path class="st0" d="M339.68,83h-7.17l-2.58-6.66h-16.46L310.88,83h-7.17l14.41-36.97h7.17L339.68,83z M327.39,69.82l-5.68-14.59
		l-5.68,14.59H327.39z"/>
	<path class="st0" d="M370.18,71.07l6.88,1.43c-3.16,6.24-9.69,10.52-17.24,10.52c-10.65,0-19.27-8.5-19.27-19s8.62-19,19.27-19
		c7.55,0,14.08,4.28,17.24,10.52l-6.88,1.43c-2.29-3.23-6.08-5.36-10.36-5.36c-6.93,0-12.58,5.56-12.58,12.41
		c0,6.85,5.66,12.41,12.58,12.41C364.1,76.43,367.88,74.3,370.18,71.07"/>
	<polygon class="st0" points="408.82,46.03 408.82,52.55 397.59,52.55 397.59,83 390.42,83 390.42,52.55 379.22,52.55 379.22,46.03 
			"/>
	<path class="st0" d="M428.26,83.01c-12.6,0-18.78-9.65-18.78-19.25c0-9.55,6.18-19.15,18.78-19.15c12.41,0,18.69,9.6,18.69,19.15
		C446.94,73.36,440.67,83.01,428.26,83.01 M428.26,51.37c-7.64,0-11.43,6.24-11.43,12.53c0,6.19,3.79,12.39,11.43,12.39
		c7.54,0,11.39-6.19,11.39-12.39C439.65,57.61,435.8,51.37,428.26,51.37 M428.21,67.5c-2.04,0-3.65-1.63-3.65-3.6
		c0-2.02,1.61-3.65,3.65-3.65c2.04,0,3.65,1.63,3.65,3.65C431.86,65.87,430.25,67.5,428.21,67.5"/>
	<path class="st0" d="M474.92,83.01h-6.96c-0.15,0-0.44-0.14-0.49-0.29l-7.1-15.22h-4.18v15.07c0,0.19-0.25,0.43-0.54,0.43h-6.38
		c-0.24,0-0.49-0.24-0.49-0.43V60.44h7.4h5.69c1.6,0,5.74-0.19,5.74-4.42c0-4.22-4.57-4.46-5.74-4.46h-5.69h-7.4v-6.53
		c0-0.19,0.24-0.43,0.49-0.43h12.6c2.19,0,13.14,0.1,13.14,11.42c0,5.86-3.26,8.93-7.15,10.32c2.43,5.42,5.06,10.7,7.49,16.03
		C475.5,82.72,475.31,83.01,474.92,83.01"/>
	<path class="st0" d="M313.93,89.87h-1.53v-0.6c0-0.17-0.14-0.31-0.31-0.31h-6.53c-0.17,0-0.31,0.14-0.31,0.31v6.44
		c0,0.17,0.14,0.31,0.31,0.31h6.53c0.17,0,0.31-0.14,0.31-0.31v-2.18h-2.41v-1.51h3.95v3.7c0,1.01-0.82,1.82-1.85,1.82h-6.53
		c-1.02,0-1.84-0.81-1.84-1.82v-6.44c0-1.01,0.82-1.82,1.84-1.82h6.53c1.02,0,1.85,0.81,1.85,1.82V89.87z"/>
	<polygon class="st0" points="324.89,88.96 317.05,88.96 317.05,91.73 323.36,91.73 323.36,93.25 317.05,93.25 317.05,96.02 
		324.89,96.02 324.89,97.53 315.52,97.53 315.52,87.45 324.89,87.45 	"/>
	<path class="st0" d="M336.52,89.86h-1.53v-0.59c0-0.17-0.14-0.31-0.31-0.31h-6.53c-0.17,0-0.31,0.14-0.31,0.31v2.16
		c0,0.17,0.14,0.31,0.31,0.31h6.53c1.02,0,1.85,0.81,1.85,1.82v2.15c0,1.01-0.82,1.82-1.85,1.82h-6.53c-1.02,0-1.85-0.81-1.85-1.82
		v-0.59h1.53v0.59c0,0.17,0.14,0.31,0.31,0.31h6.53c0.17,0,0.31-0.14,0.31-0.31v-2.15c0-0.17-0.14-0.31-0.31-0.31h-6.53
		c-1.02,0-1.85-0.81-1.85-1.82v-2.16c0-1.01,0.82-1.82,1.85-1.82h6.53c1.02,0,1.85,0.81,1.85,1.82V89.86z"/>
	<polygon class="st0" points="347.74,87.45 347.74,88.96 343.4,88.96 343.4,97.53 341.87,97.53 341.87,88.96 337.52,88.96 
		337.52,87.45 	"/>
	<path class="st0" d="M357.16,87.45c1.02,0,1.85,0.81,1.85,1.82v6.44c0,1.01-0.82,1.82-1.85,1.82h-6.53c-1.02,0-1.85-0.81-1.85-1.82
		v-6.44c0-1.01,0.82-1.82,1.85-1.82H357.16z M357.16,96.02c0.17,0,0.31-0.14,0.31-0.31v-6.44c0-0.17-0.14-0.31-0.31-0.31h-6.53
		c-0.17,0-0.31,0.14-0.31,0.31v6.44c0,0.17,0.14,0.31,0.31,0.31H357.16z"/>
	<path class="st0" d="M370.77,92.11c0,1-0.82,1.82-1.85,1.82h-1.04l2.88,3.39v0.21h-1.82l-3.07-3.6h-3.49
		c-0.11,0-0.21-0.02-0.31-0.03v3.63h-1.53V87.47h8.38c1.02,0,1.85,0.83,1.85,1.82V92.11z M368.92,92.42c0.17,0,0.31-0.14,0.31-0.31
		v-2.83c0-0.17-0.14-0.31-0.31-0.31h-6.53c-0.17,0-0.31,0.14-0.31,0.31v2.83c0,0.17,0.14,0.31,0.31,0.31H368.92z"/>
	<path class="st0" d="M384.79,87.45c1.02,0,1.84,0.81,1.84,1.82v6.44c0,1.01-0.82,1.82-1.84,1.82h-8.38V87.45H384.79z M385.1,89.27
		c0-0.17-0.14-0.31-0.31-0.31h-6.53c-0.17,0-0.31,0.14-0.31,0.31v6.44c0,0.17,0.14,0.31,0.31,0.31h6.53c0.17,0,0.31-0.14,0.31-0.31
		V89.27z"/>
	<polygon class="st0" points="397.62,88.96 389.79,88.96 389.79,91.73 396.09,91.73 396.09,93.25 389.79,93.25 389.79,96.02 
		397.62,96.02 397.62,97.53 388.25,97.53 388.25,87.45 397.62,87.45 	"/>
	<rect x="403.23" y="87.45" class="st0" width="1.53" height="10.08"/>
	<polygon class="st0" points="415.03,87.45 416.56,87.45 416.56,97.53 414.74,97.53 407.87,89.47 407.87,97.53 406.34,97.53 
		406.34,87.45 408.16,87.45 415.03,95.51 	"/>
	<path class="st0" d="M428.3,89.86h-1.53v-0.59c0-0.17-0.14-0.31-0.31-0.31h-6.53c-0.17,0-0.31,0.14-0.31,0.31v2.16
		c0,0.17,0.14,0.31,0.31,0.31h6.53c1.02,0,1.85,0.81,1.85,1.82v2.15c0,1.01-0.82,1.82-1.85,1.82h-6.53c-1.02,0-1.85-0.81-1.85-1.82
		v-0.59h1.53v0.59c0,0.17,0.14,0.31,0.31,0.31h6.53c0.17,0,0.31-0.14,0.31-0.31v-2.15c0-0.17-0.14-0.31-0.31-0.31h-6.53
		c-1.02,0-1.85-0.81-1.85-1.82v-2.16c0-1.01,0.82-1.82,1.85-1.82h6.53c1.02,0,1.85,0.81,1.85,1.82V89.86z"/>
	<path class="st0" d="M438.48,87.45h1.53v8.26c0,1.01-0.82,1.82-1.84,1.82h-6.53c-1.02,0-1.85-0.81-1.85-1.82v-8.26h1.53v8.26
		c0,0.17,0.14,0.31,0.31,0.31h6.53c0.17,0,0.31-0.14,0.31-0.31V87.45z"/>
	<polygon class="st0" points="451.32,87.45 453.15,87.45 453.15,97.53 451.62,97.53 451.62,89.47 447.36,94.47 443.1,89.47 
		443.1,97.53 441.57,97.53 441.57,87.45 443.39,87.45 447.36,92.11 	"/>
	<path class="st0" d="M463.09,87.45c1.02,0,1.85,0.81,1.85,1.82v6.44c0,1.01-0.82,1.82-1.85,1.82h-6.53c-1.02,0-1.84-0.81-1.84-1.82
		v-6.44c0-1.01,0.82-1.82,1.84-1.82H463.09z M463.09,96.02c0.17,0,0.31-0.14,0.31-0.31v-6.44c0-0.17-0.14-0.31-0.31-0.31h-6.53
		c-0.17,0-0.31,0.14-0.31,0.31v6.44c0,0.17,0.14,0.31,0.31,0.31H463.09z"/>
	<path class="st0" d="M476.65,89.86h-1.53v-0.59c0-0.17-0.14-0.31-0.31-0.31h-6.53c-0.17,0-0.31,0.14-0.31,0.31v2.16
		c0,0.17,0.14,0.31,0.31,0.31h6.53c1.02,0,1.85,0.81,1.85,1.82v2.15c0,1.01-0.83,1.82-1.85,1.82h-6.53c-1.02,0-1.84-0.81-1.84-1.82
		v-0.59h1.53v0.59c0,0.17,0.14,0.31,0.31,0.31h6.53c0.17,0,0.31-0.14,0.31-0.31v-2.15c0-0.17-0.14-0.31-0.31-0.31h-6.53
		c-1.02,0-1.84-0.81-1.84-1.82v-2.16c0-1.01,0.82-1.82,1.84-1.82h6.53c1.02,0,1.85,0.81,1.85,1.82V89.86z"/>
	<polygon points="28.49,41.54 22.34,35.37 34.22,23.49 40.39,29.63 45.31,26.82 49.4,25.05 52.95,23.91 55.95,23.19 55.95,14.5 
		72.76,14.5 72.76,23.19 76.43,24.11 78.43,24.74 81.09,25.76 83.69,26.97 86.45,28.49 88.32,29.63 94.49,23.49 99.02,28.02 
		106.37,35.37 100.22,41.54 101.58,43.76 102.89,46.16 104.12,48.81 105.24,51.81 105.98,54.23 106.67,57.1 115.36,57.1 
		115.36,73.9 106.67,73.9 105.49,78.45 104.27,81.8 103.03,84.54 101.54,87.31 100.22,89.47 106.37,95.61 94.49,107.51 
		88.32,101.36 83.69,104.18 78.96,106.07 75.08,107.26 72.76,107.81 72.76,116.5 55.95,116.5 55.95,107.81 52.67,107.01 
		48.78,105.71 46.08,104.55 43.17,103.05 40.39,101.36 34.22,107.51 22.34,95.61 28.49,89.47 25.68,84.54 23.45,79.14 22.34,75.21 
		22.05,73.9 13.35,73.9 13.35,57.1 22.05,57.1 23.53,51.62 24.87,47.89 26.84,44.14 	"/>
	<rect x="61.28" y="108.66" class="st1" width="4.48" height="3.37"/>
	<path class="st1" d="M66.18,112.44h-5.32v-4.2h5.32V112.44z M61.7,111.61h3.65v-2.53H61.7V111.61z"/>
	<rect x="16.44" y="63.81" class="st1" width="4.48" height="3.37"/>
	<path class="st1" d="M21.34,67.6h-5.32v-4.2h5.32V67.6z M16.86,66.77h3.65v-2.53h-3.65V66.77z"/>
	<rect x="106.12" y="63.81" class="st1" width="4.48" height="3.37"/>
	<path class="st1" d="M111.02,67.6h-5.32v-4.2h5.32V67.6z M106.54,66.77h3.65v-2.53h-3.65V66.77z"/>
	<rect x="92.67" y="32.43" class="st1" width="4.48" height="3.37"/>
	<path class="st1" d="M97.57,36.22h-5.32v-4.21h5.32V36.22z M93.08,35.38h3.65v-2.54h-3.65V35.38z"/>
	<rect x="92.67" y="95.2" class="st1" width="4.48" height="3.37"/>
	<path class="st1" d="M97.57,98.99h-5.32v-4.2h5.32V98.99z M93.08,98.16h3.65v-2.53h-3.65V98.16z"/>
	<rect x="29.89" y="32.43" class="st1" width="4.48" height="3.37"/>
	<path class="st1" d="M34.79,36.22h-5.32v-4.21h5.32V36.22z M30.31,35.38h3.65v-2.54h-3.65V35.38z"/>
	<rect x="29.89" y="95.2" class="st1" width="4.48" height="3.37"/>
	<path class="st1" d="M34.79,98.99h-5.32v-4.2h5.32V98.99z M30.31,98.16h3.65v-2.53h-3.65V98.16z"/>
	<path class="st1" d="M63.52,30.19v-3.37c-21.33,0-38.68,17.35-38.68,38.68h3.37C28.21,46.03,44.05,30.19,63.52,30.19"/>
	<path class="st1" d="M28.63,65.92h-4.2V65.5c0-21.56,17.54-39.1,39.1-39.1h0.42v4.21h-0.42c-19.24,0-34.89,15.65-34.89,34.89V65.92
		z M25.26,65.08h2.53C28.02,45.71,43.74,30,63.1,29.78v-2.53C42.34,27.46,25.49,44.32,25.26,65.08"/>
	<path class="st1" d="M63.52,100.81v3.37c21.33,0,38.68-17.35,38.68-38.68h-3.37C98.83,84.97,82.99,100.81,63.52,100.81"/>
	<path class="st1" d="M63.52,104.59H63.1v-4.2h0.42c9.31,0,18.06-3.63,24.66-10.23c6.6-6.6,10.23-15.36,10.23-24.66v-0.42h4.21v0.42
		C102.62,87.06,85.08,104.59,63.52,104.59 M63.94,101.22v2.53c20.77-0.22,37.62-17.07,37.84-37.84h-2.54
		c-0.11,9.37-3.82,18.18-10.47,24.84C82.11,97.41,73.31,101.12,63.94,101.22"/>
	<path class="st2" d="M86.62,69.81l1.4-6.58H70.53l-0.68,3.23c-0.15-0.26-0.31-0.52-0.49-0.76c-1.39-1.96-3.83-3.87-7.33-5.72
		c-2.18-1.19-3.6-2.12-4.26-2.78c-0.66-0.66-0.99-1.44-0.99-2.35c0-0.97,0.41-1.75,1.22-2.35c0.81-0.59,1.92-0.89,3.32-0.89
		c1.75,0,3.49,0.25,5.21,0.74c1.73,0.49,3.68,1.35,5.86,2.56l2.19-10.67c-1.83-0.66-3.87-1.24-6.12-1.76
		c-2.25-0.51-4.8-0.77-7.64-0.77c-3.58,0-6.73,0.58-9.44,1.74c-2.71,1.16-4.85,2.9-6.42,5.21c-1.56,2.31-2.34,4.9-2.34,7.76
		c0,3.02,0.71,5.51,2.14,7.45c0.36,0.48,0.78,0.96,1.25,1.42c0.48,0.46,1.01,0.91,1.6,1.35c0.6,0.43,1.25,0.86,1.97,1.28
		c0.71,0.41,1.49,0.82,2.32,1.21c0.5,0.23,0.96,0.45,1.38,0.66c0.42,0.21,0.81,0.42,1.16,0.62c0.23,0.13,0.45,0.26,0.65,0.39
		c0.4,0.25,0.73,0.5,0.99,0.73c0.2,0.17,0.37,0.36,0.52,0.55c0.45,0.58,0.67,1.26,0.67,2.03c0,2.28-1.6,3.42-4.81,3.42
		c-4.03,0-8.01-1.45-11.94-4.35l-2.31,10.92c0.46,0.25,0.93,0.48,1.43,0.71c0.5,0.22,1.5,0.6,1.54,0.64
		c0.58,0.21,1.44,0.67,1.75,0.79c0.04,0.01,0.07,0.01,0.11,0.02c0.03-0.01-0.02-0.08-0.21-0.23c0.15,0.09,0.27,0.18,0.4,0.27
		c0.42,0.11,0.81,0.29,1.23,0.43c0.05,0.02,0.11,0.03,0.17,0.05c0-0.07,0-0.14-0.02-0.24c0.03,0.1,0.07,0.19,0.1,0.27
		c0.48,0.14,0.97,0.26,1.46,0.35c0.09-0.06,0.18-0.12,0.3-0.2c-0.08,0.09-0.13,0.16-0.17,0.22c0.49,0.08,0.97,0.14,1.47,0.19
		c0.2-0.04,0.41-0.07,0.63-0.11c-0.14,0.08-0.16,0.13-0.09,0.16c0.32,0.02,0.65,0.03,0.97,0.04c0.42-0.01,0.86-0.04,1.12-0.02
		c0.68,0.04,1.37,0.06,2.07,0.06c3.84,0,7.17-0.54,9.98-1.64c1.4-0.54,2.64-1.23,3.74-2.05l-1.55,7.34h8.4l2.02-9.73h8.29l1.44-6.58
		H76.5l1.03-5.02H86.62z"/>
	<path class="st1" d="M89.99,67.03l1.4-6.58H73.9l-0.68,3.24c-0.15-0.26-0.31-0.52-0.49-0.76c-1.39-1.96-3.83-3.87-7.33-5.72
		c-2.18-1.19-3.6-2.12-4.26-2.78c-0.66-0.66-0.99-1.44-0.99-2.34c0-0.97,0.41-1.75,1.22-2.35c0.81-0.59,1.92-0.89,3.32-0.89
		c1.75,0,3.49,0.25,5.21,0.74c1.73,0.49,3.68,1.35,5.86,2.56l2.19-10.68c-1.83-0.66-3.87-1.24-6.12-1.76
		c-2.25-0.51-4.8-0.77-7.64-0.77c-3.58,0-6.73,0.58-9.44,1.74c-2.71,1.16-4.85,2.9-6.42,5.21C46.78,48.21,46,50.8,46,53.66
		c0,3.02,0.71,5.51,2.14,7.45c0.36,0.48,0.78,0.96,1.25,1.42c0.48,0.46,1.01,0.91,1.61,1.35c0.6,0.43,1.25,0.86,1.97,1.28
		c0.71,0.41,1.49,0.82,2.32,1.21c0.5,0.23,0.96,0.45,1.38,0.66c0.42,0.21,0.81,0.42,1.16,0.62c0.23,0.13,0.45,0.26,0.65,0.39
		c0.4,0.25,0.73,0.5,0.99,0.73c0.2,0.17,0.37,0.36,0.52,0.55c0.45,0.58,0.67,1.26,0.67,2.03c0,2.28-1.6,3.42-4.81,3.42
		c-4.03,0-8.01-1.45-11.94-4.35l-2.31,10.92c0.45,0.25,0.93,0.48,1.43,0.71c0.5,0.23,1.5,0.6,1.54,0.64
		c0.89,0.32,2.46,1.26,1.66,0.57c0.36,0.23,0.65,0.44,0.9,0.63c0.18,0.02,0.36,0.04,0.54,0.06c0.03-0.01,0.05-0.02,0.09-0.02
		c0.08,0,0.14,0.03,0.2,0.06c0.02,0,0.04,0.01,0.06,0.01c0-0.07-0.01-0.14-0.02-0.24c0.03,0.1,0.06,0.17,0.09,0.25
		c0.52,0.08,1.04,0.19,1.55,0.31c0.07-0.05,0.13-0.09,0.21-0.15c-0.05,0.06-0.1,0.11-0.13,0.16c0.42,0.09,0.83,0.19,1.24,0.28
		c0.26-0.05,0.53-0.1,0.82-0.15c-0.65,0.36,1.32,0.14,2,0.18c0.68,0.04,1.37,0.06,2.06,0.06c3.85,0,7.17-0.54,9.98-1.64
		c1.4-0.54,2.64-1.23,3.74-2.05l-1.55,7.34h8.4l2.02-9.73h8.29l1.44-6.57h-8.29l1.03-5.02H89.99z"/>
</g>
</svg>
