<svg id="Capa_1" data-name="Capa 1" xmlns="http://www.w3.org/2000/svg" viewBox="0 0 1323.05 295.87">
  <defs>
    <style>
      .cls-1, .cls-3 {
        fill: #a7e6f2;
      }

      .cls-2 {
        fill: #fff;
      }

      .cls-3 {
        opacity: 0.36;
      }
    </style>
  </defs>
  <g>
    <rect class="cls-1" width="1323.05" height="295.87"/>
    <path class="cls-2" d="M443,192.65a29.91,29.91,0,0,1-1.28,8.73,34.59,34.59,0,0,1-10.16,15.93,30.7,30.7,0,0,1-7.62,5c-5.76,2.69-12.79,4-20.8,4-26.85,0-42.86-13.57-42.86-36.23v-1.49h19.1v1.49c0,12.38,6.91,17.46,23.76,17.46,7.89,0,12.74-1.08,15.89-3.53,3.33-2.63,4.85-7,4.85-13.93,0-3.05-2.19-5.74-6.43-8a67.51,67.51,0,0,0-14-5.2c-6.37-1.8-13.22-3.47-20.92-5.15-5.15-1.13-12-3.58-15.64-8.91-3.45-5.14-3.63-11.53-3.15-16,1-8.91,3.94-15.84,8.73-20.57l.3-.3c6.31-5.92,15.22-8.73,27.4-8.73,25.59,0,39.71,12.8,39.83,36.06v1.49l-1.51.24H420.93v-1.49c-.05-13.1-5.27-17.46-20.79-17.46H400c-4.36,0-9.33.24-12.73,2.81a10.17,10.17,0,0,0-3.51,5.26,18.63,18.63,0,0,0-1,7.47,4.27,4.27,0,0,0,.78,2.33,8.57,8.57,0,0,0,3.82,2.16l.67.18a53.12,53.12,0,0,0,5.21,1.61l1.58.48a53.68,53.68,0,0,0,6.3,1.56c.67.17,16.25,3.28,24.37,6.93,5.88,2,11.46,7.35,14.8,14.11A26.59,26.59,0,0,1,443,192.65" transform="translate(-26.95 -28.15)"/>
    <path class="cls-2" d="M544.15,120.58v57.9c0,23.85-19.92,43.14-44.28,42.56-23.76-.56-42.1-21.08-42.1-44.53V120.58a.21.21,0,0,1,.21-.22h19.09a.22.22,0,0,1,.22.22v57.9a23.64,23.64,0,0,0,47.28,0v-57.9a.22.22,0,0,1,.22-.22h19.14a.22.22,0,0,1,.22.22" transform="translate(-26.95 -28.15)"/>
    <rect class="cls-2" x="536.05" y="92.24" width="19.52" height="100.64"/>
    <polygon class="cls-2" points="648.24 92.22 648.24 109.97 617.69 109.97 617.69 192.85 598.17 192.85 598.17 109.97 567.68 109.97 567.68 92.22 648.24 92.22"/>
    <polygon class="cls-2" points="679.9 109.97 679.9 133.65 734.16 133.65 734.16 151.41 679.9 151.41 679.9 175.15 734.16 175.15 734.16 192.91 660.38 192.91 660.38 92.22 734.16 92.22 734.16 109.97 679.9 109.97"/>
    <polygon class="cls-2" points="772.16 109.97 772.16 133.65 821.33 133.65 821.33 151.41 772.16 151.41 772.16 192.85 752.64 192.85 752.64 92.22 828.48 92.22 828.48 109.97 772.16 109.97"/>
    <path class="cls-2" d="M947.31,221H927.79l-7-18.12H876l-7,18.12H849.41l39.22-100.63h19.52Zm-33.46-35.87-15.46-39.71-15.46,39.71Z" transform="translate(-26.95 -28.15)"/>
    <path class="cls-2" d="M1030.31,188.53l18.74,3.88a52.5,52.5,0,0,1-46.92,28.64c-29,0-52.44-23.14-52.44-51.72s23.46-51.72,52.44-51.72a52.5,52.5,0,0,1,46.92,28.64l-18.74,3.89a34.54,34.54,0,0,0-28.18-14.59c-18.86,0-34.25,15.13-34.25,33.78s15.39,33.78,34.25,33.78a34.56,34.56,0,0,0,28.18-14.58" transform="translate(-26.95 -28.15)"/>
    <polygon class="cls-2" points="1108.54 92.22 1108.54 109.97 1077.99 109.97 1077.99 192.85 1058.47 192.85 1058.47 109.97 1027.97 109.97 1027.97 92.22 1108.54 92.22"/>
    <path class="cls-2" d="M1188.4,221c-34.3,0-51.12-26.26-51.12-52.39s16.82-52.14,51.12-52.14c33.77,0,50.86,26.13,50.86,52.14S1222.17,221,1188.4,221m0-86.11c-20.8,0-31.12,17-31.12,34.11,0,16.85,10.32,33.7,31.12,33.7,20.53,0,31-16.85,31-33.7,0-17.12-10.46-34.11-31-34.11m-.13,43.91a9.87,9.87,0,1,1,9.93-9.8,9.86,9.86,0,0,1-9.93,9.8" transform="translate(-26.95 -28.15)"/>
    <path class="cls-2" d="M1315.4,221h-18.94a1.75,1.75,0,0,1-1.33-.79l-19.33-41.41h-11.39v41A1.46,1.46,0,0,1,1263,221H1245.6a1.41,1.41,0,0,1-1.32-1.18V159.6h35.62c4.37,0,15.63-.52,15.63-12s-12.45-12.15-15.63-12.15h-35.62V117.66a1.41,1.41,0,0,1,1.32-1.18h34.3c6,0,35.76.27,35.76,31.1,0,15.94-8.87,24.3-19.47,28.09,6.63,14.77,13.78,29.14,20.4,43.64a1.16,1.16,0,0,1-1.19,1.7" transform="translate(-26.95 -28.15)"/>
    <path class="cls-2" d="M877.23,239.7h-4.17v-1.64a.86.86,0,0,0-.86-.84H854.43a.85.85,0,0,0-.85.84v17.53a.86.86,0,0,0,.85.84H872.2a.86.86,0,0,0,.86-.84v-6h-6.57v-4.11h10.74v10.06a5,5,0,0,1-5,5H854.43a5,5,0,0,1-5-5V238.06a5,5,0,0,1,5-4.95H872.2a5,5,0,0,1,5,4.95Z" transform="translate(-26.95 -28.15)"/>
    <polygon class="cls-2" points="880.1 209.08 858.78 209.08 858.78 216.62 875.93 216.62 875.93 220.73 858.78 220.73 858.78 228.28 880.1 228.28 880.1 232.4 854.6 232.4 854.6 204.96 880.1 204.96 880.1 209.08"/>
    <path class="cls-2" d="M938.69,239.66h-4.17v-1.6a.85.85,0,0,0-.85-.84H915.9a.85.85,0,0,0-.85.84v5.87a.86.86,0,0,0,.85.84h17.77a5,5,0,0,1,5,4.95v5.87a5,5,0,0,1-5,5H915.9a5,5,0,0,1-5-5V254h4.17v1.6a.86.86,0,0,0,.85.84h17.77a.85.85,0,0,0,.85-.84v-5.87a.85.85,0,0,0-.85-.84H915.9a5,5,0,0,1-5-4.95v-5.87a5,5,0,0,1,5-4.95h17.77a5,5,0,0,1,5,4.95Z" transform="translate(-26.95 -28.15)"/>
    <polygon class="cls-2" points="942.3 204.96 942.3 209.08 930.48 209.08 930.48 232.4 926.31 232.4 926.31 209.08 914.49 209.08 914.49 204.96 942.3 204.96"/>
    <path class="cls-2" d="M994.87,233.11a5,5,0,0,1,5,4.95v17.53a5,5,0,0,1-5,5H977.1a5,5,0,0,1-5-5V238.06a5,5,0,0,1,5-4.95Zm0,23.32a.86.86,0,0,0,.85-.84V238.06a.85.85,0,0,0-.85-.84H977.1a.85.85,0,0,0-.85.84v17.53a.85.85,0,0,0,.85.84Z" transform="translate(-26.95 -28.15)"/>
    <path class="cls-2" d="M1031.92,245.8a5,5,0,0,1-5,4.95h-2.82l7.84,9.22v.57H1027l-8.35-9.79h-9.5a5.58,5.58,0,0,1-.85-.08v9.87h-4.18V233.15h22.8a5,5,0,0,1,5,4.95Zm-5,.83a.85.85,0,0,0,.85-.83v-7.7a.85.85,0,0,0-.85-.84h-17.77a.85.85,0,0,0-.85.84v7.7a.84.84,0,0,0,.85.83Z" transform="translate(-26.95 -28.15)"/>
    <path class="cls-2" d="M1070.09,233.11a5,5,0,0,1,5,4.95v17.53a5,5,0,0,1-5,5H1047.3V233.11Zm.85,4.95a.85.85,0,0,0-.85-.84h-17.77a.85.85,0,0,0-.85.84v17.53a.86.86,0,0,0,.85.84h17.77a.85.85,0,0,0,.85-.84Z" transform="translate(-26.95 -28.15)"/>
    <polygon class="cls-2" points="1078.07 209.08 1056.74 209.08 1056.74 216.62 1073.89 216.62 1073.89 220.73 1056.74 220.73 1056.74 228.28 1078.07 228.28 1078.07 232.4 1052.57 232.4 1052.57 204.96 1078.07 204.96 1078.07 209.08"/>
    <rect class="cls-2" x="1093.33" y="204.96" width="4.17" height="27.43"/>
    <polygon class="cls-2" points="1125.43 204.96 1129.61 204.96 1129.61 232.4 1124.66 232.4 1105.96 210.45 1105.96 232.4 1101.79 232.4 1101.79 204.96 1106.74 204.96 1125.43 226.9 1125.43 204.96"/>
    <path class="cls-2" d="M1188.51,239.66h-4.17v-1.6a.85.85,0,0,0-.85-.84h-17.78a.85.85,0,0,0-.85.84v5.87a.86.86,0,0,0,.85.84h17.78a5,5,0,0,1,5,4.95v5.87a5,5,0,0,1-5,5h-17.78a5,5,0,0,1-5-5V254h4.17v1.6a.86.86,0,0,0,.85.84h17.78a.86.86,0,0,0,.85-.84v-5.87a.85.85,0,0,0-.85-.84h-17.78a5,5,0,0,1-5-4.95v-5.87a5,5,0,0,1,5-4.95h17.78a5,5,0,0,1,5,4.95Z" transform="translate(-26.95 -28.15)"/>
    <path class="cls-2" d="M1216.21,233.11h4.17v22.48a5,5,0,0,1-5,5h-17.77a5,5,0,0,1-5-5V233.11h4.18v22.48a.85.85,0,0,0,.85.84h17.77a.85.85,0,0,0,.85-.84Z" transform="translate(-26.95 -28.15)"/>
    <polygon class="cls-2" points="1224.22 204.96 1229.21 204.96 1229.21 232.4 1225.04 232.4 1225.04 210.45 1213.45 224.05 1201.85 210.45 1201.85 232.4 1197.68 232.4 1197.68 204.96 1202.62 204.96 1213.45 217.65 1224.22 204.96"/>
    <path class="cls-2" d="M1283.2,233.11a5,5,0,0,1,5,4.95v17.53a5,5,0,0,1-5,5h-17.77a5,5,0,0,1-5-5V238.06a5,5,0,0,1,5-4.95Zm0,23.32a.86.86,0,0,0,.85-.84V238.06a.85.85,0,0,0-.85-.84h-17.77a.85.85,0,0,0-.85.84v17.53a.86.86,0,0,0,.85.84Z" transform="translate(-26.95 -28.15)"/>
    <path class="cls-2" d="M1320.1,239.66h-4.18v-1.6a.85.85,0,0,0-.84-.84H1297.3a.85.85,0,0,0-.85.84v5.87a.86.86,0,0,0,.85.84h17.78a5,5,0,0,1,5,4.95v5.87a5,5,0,0,1-5,5H1297.3a5,5,0,0,1-5-5V254h4.17v1.6a.86.86,0,0,0,.85.84h17.78a.85.85,0,0,0,.84-.84v-5.87a.85.85,0,0,0-.84-.84H1297.3a5,5,0,0,1-5-4.95v-5.87a5,5,0,0,1,5-4.95h17.78a5,5,0,0,1,5,4.95Z" transform="translate(-26.95 -28.15)"/>
    <polygon class="cls-2" points="73.37 80 56.64 63.2 88.98 30.86 105.76 47.59 119.15 39.94 130.27 35.13 139.94 32.02 148.12 30.06 148.12 6.39 193.87 6.39 193.87 30.06 203.86 32.56 209.3 34.28 216.54 37.05 223.62 40.34 231.12 44.48 236.21 47.59 253 30.86 265.33 43.2 285.34 63.2 268.6 80 272.31 86.04 275.87 92.58 279.2 99.79 282.27 107.95 284.27 114.53 286.14 122.34 309.81 122.34 309.81 168.09 286.14 168.09 282.93 180.46 279.63 189.58 276.26 197.04 272.19 204.58 268.6 210.45 285.33 227.17 252.99 259.56 236.21 242.82 223.62 250.49 210.73 255.65 200.19 258.88 193.86 260.37 193.86 284.03 148.11 284.03 148.11 260.37 139.19 258.19 128.6 254.65 121.25 251.51 113.34 247.42 105.76 242.82 88.98 259.56 56.64 227.17 73.36 210.45 65.71 197.03 59.64 182.33 56.64 171.66 55.83 168.09 32.17 168.09 32.17 122.34 55.84 122.34 59.87 107.44 63.52 97.29 68.87 87.07 73.37 80"/>
    <rect class="cls-1" x="162.61" y="18.58" width="12.2" height="9.17"/>
    <path class="cls-1" d="M202.9,57H188.43V45.59H202.9Zm-12.2-2.27h9.93v-6.9H190.7Z" transform="translate(-26.95 -28.15)"/>
    <rect class="cls-1" x="162.61" y="262.67" width="12.2" height="9.17"/>
    <path class="cls-1" d="M202.9,301.13H188.43V289.69H202.9Zm-12.2-2.27h9.93V292H190.7Z" transform="translate(-26.95 -28.15)"/>
    <rect class="cls-1" x="40.57" y="140.63" width="12.21" height="9.17"/>
    <path class="cls-1" d="M80.86,179.08H66.38V167.64H80.86Zm-12.21-2.27h9.94v-6.9H68.65Z" transform="translate(-26.95 -28.15)"/>
    <rect class="cls-1" x="284.66" y="140.63" width="12.21" height="9.17"/>
    <path class="cls-1" d="M325,179.08H310.47V167.64H325Zm-12.2-2.27h9.93v-6.9h-9.93Z" transform="translate(-26.95 -28.15)"/>
    <rect class="cls-1" x="248.04" y="55.2" width="12.2" height="9.17"/>
    <path class="cls-1" d="M288.34,93.66H273.86V82.21h14.48Zm-12.21-2.28h9.93v-6.9h-9.93Z" transform="translate(-26.95 -28.15)"/>
    <rect class="cls-1" x="248.04" y="226.06" width="12.2" height="9.16"/>
    <path class="cls-1" d="M288.34,264.52H273.86V253.08h14.48Zm-12.21-2.28h9.93v-6.89h-9.93Z" transform="translate(-26.95 -28.15)"/>
    <rect class="cls-1" x="77.17" y="55.2" width="12.21" height="9.17"/>
    <path class="cls-1" d="M117.47,93.66H103V82.21h14.48Zm-12.21-2.28h9.94v-6.9h-9.94Z" transform="translate(-26.95 -28.15)"/>
    <rect class="cls-1" x="77.17" y="226.06" width="12.21" height="9.16"/>
    <path class="cls-1" d="M117.47,264.52H103V253.08h14.48Zm-12.21-2.28h9.94v-6.89h-9.94Z" transform="translate(-26.95 -28.15)"/>
    <path class="cls-1" d="M195.67,77.26V68.09A105.4,105.4,0,0,0,90.39,173.36h9.17a96.21,96.21,0,0,1,96.11-96.1" transform="translate(-26.95 -28.15)"/>
    <path class="cls-1" d="M100.7,174.5H89.26v-1.14A106.53,106.53,0,0,1,195.67,67h1.13V78.39h-1.13a95.08,95.08,0,0,0-95,95Zm-9.16-2.27h6.89a97.36,97.36,0,0,1,96.1-96.1v-6.9a104.25,104.25,0,0,0-103,103" transform="translate(-26.95 -28.15)"/>
    <path class="cls-1" d="M195.67,269.46v9.17A105.39,105.39,0,0,0,300.94,173.36h-9.17a96.21,96.21,0,0,1-96.1,96.1" transform="translate(-26.95 -28.15)"/>
    <path class="cls-1" d="M195.67,279.77h-1.14V268.33h1.14a95.09,95.09,0,0,0,95-95v-1.13h11.44v1.13a106.52,106.52,0,0,1-106.4,106.41m1.13-9.18v6.9a104.24,104.24,0,0,0,103-103h-6.9a97.33,97.33,0,0,1-96.09,96.09" transform="translate(-26.95 -28.15)"/>
    <path class="cls-3" d="M258.53,185.1l3.81-17.9H214.75l-1.86,8.8c-.41-.71-.85-1.39-1.32-2.06q-5.67-8-19.95-15.58-8.9-4.86-11.59-7.55a8.74,8.74,0,0,1-2.68-6.39,7.55,7.55,0,0,1,3.32-6.38q3.32-2.43,9-2.43a51.51,51.51,0,0,1,14.18,2,77.49,77.49,0,0,1,16,7l6-29a144.49,144.49,0,0,0-16.66-4.79,93.78,93.78,0,0,0-20.79-2.1q-14.61,0-25.69,4.75a39.13,39.13,0,0,0-17.48,14.19,36.92,36.92,0,0,0-6.37,21.12q0,12.33,5.83,20.28a32.5,32.5,0,0,0,3.4,3.87,44.32,44.32,0,0,0,4.37,3.68,63,63,0,0,0,5.36,3.48c1.94,1.12,4,2.22,6.31,3.29,1.36.61,2.61,1.21,3.77,1.78s2.2,1.14,3.15,1.69c.63.35,1.22.71,1.76,1.05a23.78,23.78,0,0,1,2.7,2,11,11,0,0,1,1.42,1.49,8.84,8.84,0,0,1,1.81,5.52q0,9.31-13.09,9.32-16.47,0-32.5-11.84L126.8,224c1.25.67,2.54,1.31,3.89,1.92s4.08,1.64,4.2,1.74c2.43.86,6.7,3.43,4.51,1.56,2.12,1.34,3.55,2.68,4.29,2.94l.25.05c.35,0,.45-.46.29-1.62a10.17,10.17,0,0,0,.72,1.73l3.07.25c.38-.24.79-.51,1.27-.86a3.4,3.4,0,0,0-.64.91c1.14.1,2.27.22,3.4.33l2.49-.44c-1.78,1,3.59.37,5.44.48s3.71.16,5.62.16q15.69,0,27.16-4.45a41.81,41.81,0,0,0,10.17-5.59l-4.22,20h22.87l5.51-26.47h22.55l3.92-17.9H231l2.8-13.65Z" transform="translate(-26.95 -28.15)"/>
    <path class="cls-1" d="M267.7,177.52l3.81-17.9H223.92l-1.86,8.81c-.41-.71-.85-1.41-1.32-2.07q-5.67-8-19.94-15.58-8.91-4.86-11.6-7.55a8.72,8.72,0,0,1-2.68-6.38,7.55,7.55,0,0,1,3.32-6.39q3.32-2.43,9-2.43a51.16,51.16,0,0,1,14.19,2,77.39,77.39,0,0,1,16,7l6-29a144.49,144.49,0,0,0-16.66-4.79,94.38,94.38,0,0,0-20.79-2.1q-14.61,0-25.69,4.75A39,39,0,0,0,154.36,120,36.85,36.85,0,0,0,148,141.13q0,12.35,5.83,20.28a31.73,31.73,0,0,0,3.41,3.87,43,43,0,0,0,4.36,3.68,63,63,0,0,0,5.36,3.48c1.94,1.12,4.05,2.22,6.31,3.29,1.36.61,2.61,1.21,3.77,1.78s2.2,1.15,3.15,1.69c.63.36,1.22.71,1.76,1.06a22.65,22.65,0,0,1,2.7,2,10.51,10.51,0,0,1,1.42,1.5,8.79,8.79,0,0,1,1.81,5.51q0,9.33-13.09,9.33-16.47,0-32.5-11.84L136,216.45c1.25.67,2.54,1.31,3.89,1.92s4.08,1.64,4.2,1.74c2.43.86,6.7,3.43,4.51,1.56,1,.63,1.77,1.21,2.45,1.72.5.05,1,.11,1.48.18a.94.94,0,0,1,.24-.06,1,1,0,0,1,.54.16l.17,0a6.07,6.07,0,0,0,0-.66c.08.27.17.47.25.69,1.41.23,2.82.52,4.23.83l.58-.4c-.14.17-.26.31-.36.45l3.38.75,2.23-.4c-1.78,1,3.59.37,5.44.48s3.71.16,5.62.16q15.69,0,27.16-4.45a41.81,41.81,0,0,0,10.17-5.59l-4.22,20h22.87l5.51-26.48h22.55l3.92-17.89H240.18l2.8-13.66Z" transform="translate(-26.95 -28.15)"/>
  </g>
</svg>
