<svg id="Capa_1" data-name="Capa 1" xmlns="http://www.w3.org/2000/svg" viewBox="0 0 1371.25 393.64">
  <defs>
    <style>
      .cls-1 {
        fill: #6294ba;
      }

      .cls-2 {
        fill: #fff;
      }

      .cls-3 {
        fill: #4e809e;
      }

      .cls-4 {
        fill: #71706f;
      }
    </style>
  </defs>
  <g>
    <polygon class="cls-1" points="58.41 104.35 34.7 80.55 80.55 34.7 104.34 58.41 123.32 47.56 139.09 40.74 152.79 36.34 164.39 33.55 164.39 0 229.25 0 229.25 33.55 243.42 37.09 251.13 39.54 261.39 43.47 271.44 48.12 282.08 53.99 289.29 58.41 313.09 34.7 330.57 52.18 358.94 80.55 335.22 104.35 340.47 112.93 345.52 122.19 350.25 132.41 354.6 143.98 357.43 153.32 360.09 164.39 393.64 164.39 393.64 229.25 360.09 229.25 355.54 246.78 350.86 259.72 346.07 270.3 340.3 280.98 335.22 289.31 358.93 313.02 313.09 358.94 289.29 335.21 271.44 346.07 253.16 353.39 238.21 357.97 229.25 360.09 229.25 393.64 164.38 393.64 164.38 360.09 151.72 356.99 136.72 351.98 126.3 347.53 115.08 341.73 104.34 335.21 80.55 358.94 34.7 313.02 58.4 289.31 47.56 270.28 38.95 249.44 34.7 234.31 33.54 229.25 0 229.25 0 164.39 33.55 164.39 39.27 143.27 44.44 128.87 52.03 114.38 58.41 104.35"/>
    <rect class="cls-2" x="184.94" y="17.28" width="17.3" height="13"/>
    <path class="cls-2" d="M284.7,50.25H264.18V34H284.7ZM267.4,47h14.08V37.25H267.4Z" transform="translate(-80.85 -18.36)"/>
    <rect class="cls-2" x="184.94" y="363.36" width="17.3" height="13"/>
    <path class="cls-2" d="M284.7,396.33H264.18V380.11H284.7Zm-17.3-3.22h14.08v-9.78H267.4Z" transform="translate(-80.85 -18.36)"/>
    <rect class="cls-2" x="11.91" y="190.32" width="17.3" height="13"/>
    <path class="cls-2" d="M111.67,223.29H91.14V207.06h20.53Zm-17.31-3.22h14.09v-9.78H94.36Z" transform="translate(-80.85 -18.36)"/>
    <rect class="cls-2" x="357.98" y="190.32" width="17.31" height="13"/>
    <path class="cls-2" d="M457.74,223.29H437.22V207.06h20.52Zm-17.3-3.22h14.08v-9.78H440.44Z" transform="translate(-80.85 -18.36)"/>
    <rect class="cls-2" x="306.06" y="69.2" width="17.31" height="13"/>
    <path class="cls-2" d="M405.83,102.17H385.3V85.94h20.53ZM388.53,99h14.08V89.17H388.53Z" transform="translate(-80.85 -18.36)"/>
    <rect class="cls-2" x="306.06" y="311.44" width="17.31" height="13"/>
    <path class="cls-2" d="M405.83,344.41H385.3V328.19h20.53Zm-17.3-3.22h14.08v-9.77H388.53Z" transform="translate(-80.85 -18.36)"/>
    <rect class="cls-2" x="63.81" y="69.2" width="17.31" height="13"/>
    <path class="cls-2" d="M163.58,102.17H143.05V85.94h20.53ZM146.27,99h14.08V89.17H146.27Z" transform="translate(-80.85 -18.36)"/>
    <rect class="cls-2" x="63.81" y="311.44" width="17.31" height="13"/>
    <path class="cls-2" d="M163.58,344.41H143.05V328.19h20.53Zm-17.31-3.22h14.08v-9.77H146.27Z" transform="translate(-80.85 -18.36)"/>
    <path class="cls-2" d="M274.44,78.92v-13c-82.3,0-149.26,67-149.26,149.26h13c0-75.13,61.13-136.26,136.26-136.26" transform="translate(-80.85 -18.36)"/>
    <path class="cls-2" d="M139.79,216.79H123.57v-1.61c0-83.19,67.68-150.87,150.87-150.87h1.61V80.53h-1.61c-74.24,0-134.65,60.41-134.65,134.65Zm-13-3.22h9.78c.86-74.74,61.51-135.39,136.25-136.25V67.54c-80.14.86-145.17,65.89-146,146" transform="translate(-80.85 -18.36)"/>
    <path class="cls-2" d="M274.44,351.43v13c82.3,0,149.26-66.95,149.26-149.25h-13c0,75.14-61.13,136.25-136.26,136.25" transform="translate(-80.85 -18.36)"/>
    <path class="cls-2" d="M274.44,366h-1.61V349.82h1.61A134.78,134.78,0,0,0,409.08,215.18v-1.61h16.23v1.61c0,83.19-67.68,150.86-150.87,150.86m1.61-13v9.78c80.14-.87,145.17-65.89,146-146h-9.79A138,138,0,0,1,276.05,353" transform="translate(-80.85 -18.36)"/>
    <path class="cls-3" d="M363.58,231.82l5.4-25.37H301.5l-2.63,12.48c-.59-1-1.21-2-1.88-2.93q-8-11.37-28.28-22.08Q256.08,187,252.28,183.2a12.35,12.35,0,0,1-3.81-9,10.71,10.71,0,0,1,4.71-9.05c3.13-2.29,7.4-3.45,12.79-3.45a72.79,72.79,0,0,1,20.13,2.86,109.78,109.78,0,0,1,22.62,9.88l8.44-41.19a203.48,203.48,0,0,0-23.62-6.79,133.15,133.15,0,0,0-29.47-3q-20.72,0-36.42,6.73a55.48,55.48,0,0,0-24.78,20.12,52.31,52.31,0,0,0-9,29.95q0,17.49,8.27,28.75a44,44,0,0,0,4.83,5.48,61.93,61.93,0,0,0,6.18,5.23c2.32,1.68,4.84,3.32,7.6,4.93s5.74,3.15,8.95,4.66c1.93.87,3.7,1.72,5.34,2.53s3.12,1.62,4.47,2.4c.89.5,1.73,1,2.5,1.49a33.92,33.92,0,0,1,3.83,2.8,14.69,14.69,0,0,1,2,2.12,12.49,12.49,0,0,1,2.58,7.82q0,13.21-18.57,13.21-23.34,0-46.07-16.78L176.8,287q2.65,1.44,5.52,2.73c1.91.87,5.79,2.32,6,2.47,3.44,1.22,9.5,4.85,6.39,2.21,3,1.9,5,3.8,6.08,4.17l.35.07c.5,0,.64-.65.41-2.3a14.91,14.91,0,0,0,1,2.45l4.35.36c.53-.34,1.11-.72,1.8-1.22a4.74,4.74,0,0,0-.9,1.29c1.6.14,3.2.31,4.81.47,1.08-.19,2.27-.42,3.54-.62-2.53,1.37,5.08.52,7.7.67s5.27.23,8,.23q22.26,0,38.52-6.31a59.66,59.66,0,0,0,14.41-7.93l-6,28.34h32.43l7.8-37.53h32l5.55-25.38h-32l4-19.36Z" transform="translate(-80.85 -18.36)"/>
    <path class="cls-2" d="M376.58,221.08,382,195.7H314.5l-2.63,12.48c-.59-1-1.22-2-1.88-2.92q-8-11.37-28.28-22.09-12.63-6.9-16.43-10.72a12.33,12.33,0,0,1-3.81-9,10.71,10.71,0,0,1,4.71-9q4.69-3.45,12.8-3.45a73.14,73.14,0,0,1,20.12,2.85,109.34,109.34,0,0,1,22.62,9.89l8.45-41.2a206.84,206.84,0,0,0-23.63-6.79,133.79,133.79,0,0,0-29.47-3q-20.71,0-36.43,6.72a55.45,55.45,0,0,0-24.76,20.13,52.31,52.31,0,0,0-9,29.94q0,17.51,8.27,28.75a44.07,44.07,0,0,0,4.82,5.49,62.4,62.4,0,0,0,6.2,5.22,87.45,87.45,0,0,0,7.59,4.93q4.14,2.4,8.95,4.66c1.93.88,3.7,1.72,5.34,2.54s3.12,1.62,4.47,2.39c.89.51,1.73,1,2.5,1.5a30.66,30.66,0,0,1,3.82,2.8,14.24,14.24,0,0,1,2,2.12,12.46,12.46,0,0,1,2.58,7.81q0,13.23-18.57,13.22-23.34,0-46.07-16.78l-8.94,42.14c1.77,1,3.61,1.87,5.52,2.73s5.78,2.31,6,2.46c3.44,1.23,9.5,4.86,6.39,2.21,1.4.89,2.5,1.71,3.48,2.45.69.06,1.39.15,2.09.25a1.21,1.21,0,0,1,.34-.09,1.4,1.4,0,0,1,.77.23l.24,0c0-.27,0-.56-.08-.94.13.38.24.68.36,1,2,.32,4,.73,6,1.17l.81-.56c-.21.23-.37.44-.52.63l4.81,1.07c1-.19,2-.38,3.16-.57-2.54,1.38,5.09.53,7.7.68s5.27.23,8,.23q22.26,0,38.51-6.32A59.09,59.09,0,0,0,297.75,275l-6,28.34h32.43l7.8-37.54h32l5.55-25.37h-32l4-19.36Z" transform="translate(-80.85 -18.36)"/>
    <path class="cls-4" d="M590.61,232.83a29.46,29.46,0,0,1-1.25,8.61,34.25,34.25,0,0,1-10,15.7,30.35,30.35,0,0,1-7.52,4.93c-5.68,2.65-12.61,3.95-20.5,3.95-26.48,0-42.26-13.38-42.26-35.73v-1.47h18.83v1.47c0,12.21,6.81,17.22,23.43,17.22,7.77,0,12.55-1.06,15.66-3.48,3.28-2.59,4.78-7,4.78-13.74,0-3-2.15-5.66-6.34-7.9a67.19,67.19,0,0,0-13.81-5.13c-6.27-1.76-13-3.42-20.61-5.06-5.08-1.12-11.84-3.54-15.42-8.79-3.41-5.07-3.59-11.38-3.11-15.74.95-8.78,3.88-15.62,8.6-20.28l.31-.29c6.21-5.84,15-8.61,27-8.61,25.22,0,39.15,12.62,39.27,35.55v1.47l-1.5.24H568.89v-1.48c-.06-12.91-5.2-17.21-20.5-17.21h-.18c-4.3,0-9.21.23-12.55,2.77a10.06,10.06,0,0,0-3.47,5.19,18.41,18.41,0,0,0-1,7.36,4.34,4.34,0,0,0,.77,2.31,8.43,8.43,0,0,0,3.77,2.12l.65.17a51.77,51.77,0,0,0,5.14,1.6l1.56.47a51.83,51.83,0,0,0,6.22,1.53c.65.18,16,3.24,24,6.84,5.8,2,11.3,7.25,14.59,13.91a26.28,26.28,0,0,1,2.65,11.5" transform="translate(-80.85 -18.36)"/>
    <path class="cls-4" d="M690.38,161.77v57.09c0,23.51-19.64,42.53-43.67,42-23.43-.56-41.51-20.79-41.51-43.9V161.77a.22.22,0,0,1,.22-.22h18.81a.22.22,0,0,1,.22.22v57.09a23.31,23.31,0,0,0,46.62,0V161.77a.22.22,0,0,1,.21-.22h18.88a.22.22,0,0,1,.22.22" transform="translate(-80.85 -18.36)"/>
    <rect class="cls-4" x="628.11" y="143.22" width="19.25" height="99.23"/>
    <polygon class="cls-4" points="738.73 143.19 738.73 160.7 708.61 160.7 708.61 242.42 689.36 242.42 689.36 160.7 659.3 160.7 659.3 143.19 738.73 143.19"/>
    <polygon class="cls-4" points="769.94 160.7 769.94 184.05 823.44 184.05 823.44 201.56 769.94 201.56 769.94 224.96 823.44 224.96 823.44 242.47 750.7 242.47 750.7 143.19 823.44 143.19 823.44 160.7 769.94 160.7"/>
    <polygon class="cls-1" points="860.91 160.7 860.91 184.05 909.39 184.05 909.39 201.56 860.91 201.56 860.91 242.41 841.66 242.41 841.66 143.19 916.44 143.19 916.44 160.7 860.91 160.7"/>
    <path class="cls-1" d="M1087.88,260.77h-19.25l-6.93-17.86h-44.17l-6.94,17.86H991.35L1030,161.55h19.24Zm-33-35.37-15.24-39.15L1024.4,225.4Z" transform="translate(-80.85 -18.36)"/>
    <path class="cls-1" d="M1169.71,228.76l18.47,3.83a51.73,51.73,0,0,1-46.26,28.24c-28.57,0-51.7-22.81-51.7-51s23.13-51,51.7-51a51.75,51.75,0,0,1,46.26,28.24l-18.47,3.83a34.07,34.07,0,0,0-27.79-14.38c-18.59,0-33.77,14.91-33.77,33.31s15.18,33.3,33.77,33.3a34,34,0,0,0,27.79-14.38" transform="translate(-80.85 -18.36)"/>
    <polygon class="cls-1" points="1192.56 143.19 1192.56 160.7 1162.44 160.7 1162.44 242.42 1143.2 242.42 1143.2 160.7 1113.13 160.7 1113.13 143.19 1192.56 143.19"/>
    <path class="cls-1" d="M1325.58,260.79c-33.82,0-50.41-25.9-50.41-51.66s16.59-51.4,50.41-51.4c33.3,0,50.14,25.76,50.14,51.4s-16.84,51.66-50.14,51.66m0-84.9c-20.5,0-30.69,16.75-30.69,33.63,0,16.62,10.19,33.23,30.69,33.23,20.24,0,30.55-16.61,30.55-33.23,0-16.88-10.31-33.63-30.55-33.63m-.13,43.29a9.73,9.73,0,1,1,9.79-9.66,9.72,9.72,0,0,1-9.79,9.66" transform="translate(-80.85 -18.36)"/>
    <path class="cls-1" d="M1450.79,260.79h-18.67a1.76,1.76,0,0,1-1.31-.78l-19.06-40.83h-11.23v40.45a1.44,1.44,0,0,1-1.44,1.16H1382a1.39,1.39,0,0,1-1.31-1.16V200.24h35.13c4.31,0,15.4-.51,15.4-11.85s-12.27-12-15.4-12h-35.13V158.89a1.39,1.39,0,0,1,1.31-1.16h33.82c5.87,0,35.25.26,35.25,30.66,0,15.72-8.74,24-19.19,27.7,6.53,14.55,13.58,28.72,20.11,43a1.15,1.15,0,0,1-1.18,1.68" transform="translate(-80.85 -18.36)"/>
  </g>
</svg>
