<?xml version="1.0" encoding="utf-8"?>
<!-- Generator: Adobe Illustrator 26.1.0, SVG Export Plug-In . SVG Version: 6.00 Build 0)  -->
<svg version="1.1" id="Capa_1" xmlns="http://www.w3.org/2000/svg" xmlns:xlink="http://www.w3.org/1999/xlink" x="0px" y="0px"
	 viewBox="0 0 507 165" style="enable-background:new 0 0 507 165;" xml:space="preserve">
<style type="text/css">
	.st0{fill:#4CBDD2;}
	.st1{fill:#FFFFFF;}
	.st2{fill:#4E809E;}
	.st3{fill:#71706F;}
	.st4{fill:#585857;}
</style>
<polygon class="st0" points="34.57,46.76 26.65,38.81 41.96,23.5 49.91,31.42 56.25,27.79 61.51,25.52 66.09,24.04 69.96,23.11 
	69.96,11.91 91.62,11.91 91.62,23.11 96.36,24.3 98.93,25.12 102.36,26.42 105.72,27.98 109.27,29.94 111.67,31.42 119.62,23.5 
	125.46,29.34 134.93,38.81 127.01,46.76 128.77,49.62 130.45,52.72 132.03,56.13 133.48,59.99 134.43,63.11 135.32,66.81 
	146.52,66.81 146.52,88.47 135.32,88.47 133.8,94.32 132.23,98.64 130.64,102.18 128.71,105.75 127.01,108.53 134.93,116.45 
	119.62,131.78 111.67,123.86 105.72,127.48 99.61,129.93 94.62,131.46 91.62,132.16 91.62,143.37 69.96,143.37 69.96,132.16 
	65.74,131.13 60.72,129.46 57.24,127.97 53.49,126.03 49.91,123.86 41.96,131.78 26.65,116.45 34.57,108.53 30.95,102.17 
	28.07,95.21 26.65,90.16 26.27,88.47 15.06,88.47 15.06,66.81 26.27,66.81 28.18,59.76 29.9,54.95 32.44,50.11 "/>
<rect x="76.83" y="17.68" class="st1" width="5.78" height="4.34"/>
<path class="st1" d="M83.14,22.56h-6.86v-5.42h6.86V22.56z M77.36,21.49h4.7v-3.27h-4.7V21.49z"/>
<rect x="76.83" y="133.26" class="st1" width="5.78" height="4.34"/>
<path class="st1" d="M83.14,138.13h-6.86v-5.42h6.86V138.13z M77.36,137.06h4.7v-3.26h-4.7V137.06z"/>
<rect x="19.04" y="75.47" class="st1" width="5.78" height="4.34"/>
<path class="st1" d="M25.36,80.35H18.5v-5.42h6.86V80.35z M19.58,79.27h4.7V76h-4.7V79.27z"/>
<rect x="134.61" y="75.47" class="st1" width="5.78" height="4.34"/>
<path class="st1" d="M140.93,80.35h-6.86v-5.42h6.86V80.35z M135.15,79.27h4.7V76h-4.7V79.27z"/>
<rect x="117.28" y="35.02" class="st1" width="5.78" height="4.34"/>
<path class="st1" d="M123.59,39.9h-6.86v-5.42h6.86V39.9z M117.82,38.82h4.7v-3.27h-4.7V38.82z"/>
<rect x="117.28" y="115.92" class="st1" width="5.78" height="4.34"/>
<path class="st1" d="M123.59,120.8h-6.86v-5.42h6.86V120.8z M117.82,119.72h4.7v-3.26h-4.7V119.72z"/>
<rect x="36.38" y="35.02" class="st1" width="5.78" height="4.34"/>
<path class="st1" d="M42.69,39.9h-6.86v-5.42h6.86V39.9z M36.91,38.82h4.7v-3.27h-4.7V38.82z"/>
<rect x="36.38" y="115.92" class="st1" width="5.78" height="4.34"/>
<path class="st1" d="M42.69,120.8h-6.86v-5.42h6.86V120.8z M36.91,119.72h4.7v-3.26h-4.7V119.72z"/>
<path class="st1" d="M79.72,32.14v-4.34c-27.49,0-49.85,22.36-49.85,49.85h4.34C34.21,52.55,54.63,32.14,79.72,32.14"/>
<path class="st1" d="M34.75,78.18h-5.42v-0.54c0-27.78,22.6-50.38,50.38-50.38h0.54v5.42h-0.54c-24.79,0-44.97,20.17-44.97,44.97
	V78.18z M30.41,77.1h3.27c0.29-24.96,20.54-45.21,45.5-45.5v-3.27C52.42,28.62,30.7,50.34,30.41,77.1"/>
<path class="st1" d="M79.72,123.14v4.34c27.48,0,49.84-22.36,49.84-49.84h-4.34C125.22,102.73,104.8,123.14,79.72,123.14"/>
<path class="st1" d="M79.72,128.02h-0.54v-5.42h0.54c11.99,0,23.27-4.68,31.78-13.18c8.51-8.5,13.19-19.79,13.19-31.78V77.1h5.42
	v0.54C130.1,105.42,107.5,128.02,79.72,128.02 M80.26,123.68v3.26c26.76-0.29,48.48-22,48.76-48.77h-3.27
	c-0.14,12.08-4.92,23.43-13.5,32.01C103.68,118.76,92.33,123.54,80.26,123.68"/>
<path class="st2" d="M109.48,83.2l1.8-8.47H88.75l-0.88,4.17c-0.19-0.34-0.4-0.66-0.63-0.98c-1.79-2.53-4.94-4.99-9.44-7.37
	c-2.81-1.54-4.64-2.73-5.49-3.58c-0.85-0.85-1.27-1.85-1.27-3.02c0-1.25,0.52-2.25,1.57-3.02c1.05-0.77,2.47-1.15,4.27-1.15
	c2.25,0,4.49,0.32,6.72,0.95c2.22,0.63,4.74,1.73,7.56,3.3l2.82-13.76c-2.36-0.85-4.99-1.61-7.89-2.27
	c-2.9-0.66-6.18-0.99-9.84-0.99c-4.61,0-8.66,0.75-12.17,2.25c-3.5,1.5-6.26,3.74-8.27,6.72c-2.01,2.98-3.02,6.32-3.02,10
	c0,3.89,0.92,7.1,2.76,9.6c0.46,0.63,1,1.24,1.61,1.83c0.61,0.6,1.3,1.18,2.07,1.75c0.78,0.56,1.62,1.11,2.54,1.64
	c0.92,0.53,1.91,1.05,2.99,1.56c0.65,0.29,1.24,0.57,1.78,0.85c0.55,0.28,1.04,0.54,1.49,0.8c0.3,0.17,0.58,0.34,0.83,0.5
	c0.51,0.33,0.94,0.64,1.28,0.94c0.25,0.22,0.48,0.46,0.67,0.71c0.58,0.75,0.86,1.62,0.86,2.61c0,2.94-2.07,4.41-6.2,4.41
	c-5.19,0-10.33-1.87-15.39-5.61l-2.98,14.07c0.59,0.32,1.2,0.62,1.84,0.91c0.64,0.29,1.93,0.77,1.99,0.82
	c1.15,0.41,3.17,1.62,2.14,0.74c1.01,0.64,1.68,1.27,2.03,1.4c0.04,0.01,0.08,0.01,0.12,0.02c0.17,0,0.21-0.22,0.14-0.77
	c0.12,0.35,0.23,0.62,0.34,0.82c0.48,0.04,0.97,0.08,1.45,0.12c0.18-0.11,0.37-0.24,0.6-0.41c-0.16,0.18-0.26,0.32-0.3,0.43
	c0.53,0.05,1.07,0.1,1.6,0.16c0.36-0.06,0.76-0.14,1.18-0.21c-0.85,0.46,1.7,0.18,2.57,0.23c0.87,0.05,1.76,0.07,2.66,0.07
	c4.96,0,9.24-0.7,12.86-2.11c1.8-0.7,3.4-1.58,4.82-2.65l-2,9.46h10.83l2.61-12.53h10.68l1.86-8.47H96.45l1.33-6.47H109.48z"/>
<path class="st1" d="M113.83,79.61l1.8-8.47H93.1l-0.88,4.17c-0.19-0.34-0.4-0.66-0.63-0.98c-1.79-2.53-4.94-4.99-9.44-7.38
	c-2.81-1.53-4.64-2.73-5.49-3.58c-0.85-0.85-1.27-1.86-1.27-3.02c0-1.25,0.52-2.25,1.57-3.02c1.05-0.77,2.47-1.15,4.27-1.15
	c2.25,0,4.49,0.32,6.72,0.95c2.22,0.63,4.74,1.73,7.55,3.3l2.82-13.76c-2.36-0.85-4.99-1.6-7.89-2.27c-2.9-0.66-6.18-0.99-9.84-0.99
	c-4.61,0-8.66,0.75-12.17,2.24c-3.5,1.5-6.26,3.74-8.27,6.72c-2.01,2.98-3.02,6.31-3.02,10c0,3.9,0.92,7.1,2.76,9.6
	c0.46,0.63,1,1.24,1.61,1.83c0.61,0.6,1.3,1.18,2.07,1.75c0.77,0.56,1.61,1.11,2.54,1.64c0.92,0.53,1.91,1.05,2.99,1.56
	c0.65,0.29,1.24,0.57,1.78,0.85c0.55,0.28,1.04,0.54,1.49,0.8c0.3,0.17,0.58,0.34,0.83,0.5c0.51,0.33,0.94,0.64,1.28,0.93
	c0.25,0.22,0.48,0.46,0.67,0.71c0.58,0.75,0.86,1.62,0.86,2.61c0,2.94-2.07,4.41-6.2,4.41c-5.2,0-10.33-1.87-15.39-5.61l-2.98,14.08
	c0.59,0.32,1.2,0.62,1.84,0.91c0.64,0.29,1.93,0.77,1.99,0.82c1.15,0.41,3.17,1.62,2.14,0.74c0.47,0.3,0.84,0.57,1.16,0.82
	c0.23,0.02,0.47,0.05,0.7,0.08c0.04-0.01,0.07-0.03,0.11-0.03c0.1,0,0.18,0.03,0.26,0.08c0.03,0,0.05,0.01,0.08,0.01
	c0-0.09-0.01-0.18-0.03-0.31c0.04,0.13,0.08,0.22,0.12,0.33c0.66,0.11,1.34,0.25,2,0.39c0.09-0.06,0.17-0.12,0.27-0.19
	c-0.07,0.08-0.13,0.15-0.17,0.21c0.53,0.12,1.07,0.24,1.6,0.35c0.33-0.06,0.69-0.13,1.06-0.19c-0.84,0.46,1.7,0.18,2.57,0.23
	c0.87,0.05,1.76,0.07,2.66,0.07c4.96,0,9.24-0.7,12.86-2.11c1.8-0.7,3.4-1.58,4.82-2.65l-2,9.46h10.83l2.61-12.53h10.68l1.86-8.47
	h-10.68l1.33-6.47H113.83z"/>
<path class="st3" d="M185.3,83.53c0.01,0.96-0.14,1.94-0.42,2.87c-0.6,2-1.77,3.85-3.35,5.25c-0.75,0.67-1.6,1.23-2.51,1.65
	c-1.9,0.89-4.21,1.32-6.85,1.32c-8.84,0-14.11-4.47-14.11-11.93V82.2h6.29v0.49c0,4.08,2.27,5.75,7.82,5.75
	c2.59,0,4.19-0.36,5.23-1.16c1.1-0.87,1.6-2.32,1.6-4.59c0-1-0.72-1.89-2.11-2.64c-1.48-0.81-3.16-1.3-4.61-1.71
	c-2.09-0.59-4.35-1.14-6.89-1.69c-1.7-0.38-3.95-1.18-5.15-2.93c-1.14-1.69-1.2-3.8-1.04-5.26c0.32-2.94,1.3-5.22,2.87-6.77l0.1-0.1
	c2.08-1.95,5.01-2.87,9.02-2.87c8.42,0,13.07,4.21,13.12,11.87v0.49l-0.5,0.08h-5.77v-0.49c-0.02-4.31-1.74-5.75-6.85-5.75h-0.06
	c-1.44,0-3.07,0.08-4.19,0.92c-0.52,0.4-0.92,0.96-1.16,1.73c-0.28,0.89-0.4,1.75-0.32,2.46c0.02,0.32,0.12,0.59,0.26,0.77
	c0.28,0.35,0.78,0.53,1.26,0.71l0.22,0.06c0.56,0.22,1.14,0.37,1.72,0.53l0.52,0.16c0.66,0.2,1.38,0.39,2.08,0.51
	c0.22,0.06,5.35,1.08,8.02,2.28c1.94,0.67,3.77,2.42,4.87,4.65C185.01,80.9,185.3,82.21,185.3,83.53"/>
<path class="st3" d="M218.62,59.8v19.06c0,7.85-6.56,14.2-14.58,14.01c-7.82-0.19-13.86-6.94-13.86-14.66V59.8
	c0-0.04,0.03-0.07,0.07-0.07h6.28c0.04,0,0.07,0.03,0.07,0.07v19.06c0,4.23,3.51,7.66,7.79,7.66c4.29,0,7.78-3.43,7.78-7.66V59.8
	c0-0.04,0.03-0.07,0.07-0.07h6.3C218.59,59.73,218.62,59.76,218.62,59.8"/>
<rect x="224.83" y="59.74" class="st3" width="6.43" height="33.14"/>
<polygon class="st3" points="261.77,59.73 261.77,65.58 251.71,65.58 251.71,92.87 245.28,92.87 245.28,65.58 235.24,65.58 
	235.24,59.73 "/>
<polygon class="st3" points="272.19,65.58 272.19,73.37 290.06,73.37 290.06,79.22 272.19,79.22 272.19,87.04 290.06,87.04 
	290.06,92.88 265.76,92.88 265.76,59.73 290.06,59.73 290.06,65.58 "/>
<polygon class="st0" points="302.57,65.58 302.57,73.37 318.76,73.37 318.76,79.22 302.57,79.22 302.57,92.87 296.14,92.87 
	296.14,59.73 321.11,59.73 321.11,65.58 "/>
<path class="st0" d="M351.37,92.87h-6.43l-2.32-5.97h-14.75l-2.32,5.97h-6.43l12.92-33.13h6.43L351.37,92.87z M340.35,81.05
	l-5.09-13.07l-5.09,13.07H340.35z"/>
<path class="st0" d="M378.7,82.17l6.17,1.28c-2.83,5.59-8.68,9.43-15.45,9.43c-9.54,0-17.27-7.62-17.27-17.03
	c0-9.41,7.73-17.03,17.27-17.03c6.77,0,12.62,3.84,15.45,9.43l-6.17,1.28c-2.06-2.89-5.45-4.8-9.28-4.8
	c-6.21,0-11.28,4.98-11.28,11.12c0,6.14,5.07,11.12,11.28,11.12C373.25,86.98,376.64,85.07,378.7,82.17"/>
<polygon class="st0" points="413.33,59.73 413.33,65.58 403.27,65.58 403.27,92.87 396.84,92.87 396.84,65.58 386.8,65.58 
	386.8,59.73 "/>
<path class="st0" d="M430.75,92.87c-11.29,0-16.83-8.65-16.83-17.25c0-8.56,5.54-17.17,16.83-17.17c11.12,0,16.75,8.6,16.75,17.17
	C447.5,84.22,441.87,92.87,430.75,92.87 M430.75,64.52c-6.85,0-10.24,5.59-10.24,11.23c0,5.55,3.4,11.1,10.24,11.1
	c6.76,0,10.21-5.55,10.21-11.1C440.95,70.11,437.51,64.52,430.75,64.52 M430.71,78.97c-1.83,0-3.27-1.46-3.27-3.23
	c0-1.81,1.44-3.27,3.27-3.27c1.83,0,3.27,1.46,3.27,3.27C433.98,77.51,432.54,78.97,430.71,78.97"/>
<path class="st0" d="M472.56,92.87h-6.24c-0.13,0-0.39-0.13-0.44-0.26l-6.37-13.64h-3.75v13.51c0,0.17-0.22,0.39-0.48,0.39h-5.71
	c-0.22,0-0.43-0.22-0.43-0.39V72.65h6.63h5.1c1.44,0,5.14-0.17,5.14-3.96c0-3.79-4.1-4-5.14-4h-5.1h-6.63v-5.85
	c0-0.17,0.22-0.39,0.43-0.39h11.3c1.96,0,11.77,0.08,11.77,10.24c0,5.25-2.92,8-6.41,9.25c2.18,4.86,4.54,9.59,6.72,14.37
	C473.09,92.61,472.91,92.87,472.56,92.87"/>
<g>
	<path class="st4" d="M306.53,97.26h-1.57v-0.61c0-0.17-0.15-0.31-0.32-0.31h-6.68c-0.17,0-0.32,0.14-0.32,0.31v6.59
		c0,0.17,0.15,0.32,0.32,0.32h6.68c0.17,0,0.32-0.14,0.32-0.32V101h-2.47v-1.55h4.04v3.78c0,1.03-0.84,1.86-1.89,1.86h-6.68
		c-1.05,0-1.89-0.83-1.89-1.86v-6.59c0-1.03,0.84-1.86,1.89-1.86h6.68c1.05,0,1.89,0.83,1.89,1.86V97.26z"/>
	<polygon class="st4" points="317.74,96.33 309.73,96.33 309.73,99.17 316.17,99.17 316.17,100.71 309.73,100.71 309.73,103.55 
		317.74,103.55 317.74,105.1 308.16,105.1 308.16,94.78 317.74,94.78 	"/>
	<path class="st4" d="M329.64,97.25h-1.57v-0.6c0-0.17-0.15-0.31-0.32-0.31h-6.68c-0.17,0-0.32,0.14-0.32,0.31v2.21
		c0,0.17,0.15,0.31,0.32,0.31h6.68c1.05,0,1.89,0.83,1.89,1.86v2.2c0,1.03-0.84,1.86-1.89,1.86h-6.68c-1.05,0-1.89-0.83-1.89-1.86
		v-0.6h1.57v0.6c0,0.17,0.15,0.32,0.32,0.32h6.68c0.18,0,0.32-0.14,0.32-0.32v-2.2c0-0.17-0.15-0.32-0.32-0.32h-6.68
		c-1.05,0-1.89-0.83-1.89-1.86v-2.21c0-1.03,0.84-1.86,1.89-1.86h6.68c1.05,0,1.89,0.83,1.89,1.86V97.25z"/>
	<polygon class="st4" points="341.13,94.78 341.13,96.33 336.68,96.33 336.68,105.1 335.11,105.1 335.11,96.33 330.67,96.33 
		330.67,94.78 	"/>
	<path class="st4" d="M350.75,94.78c1.05,0,1.89,0.83,1.89,1.86v6.59c0,1.03-0.84,1.86-1.89,1.86h-6.68c-1.05,0-1.89-0.83-1.89-1.86
		v-6.59c0-1.03,0.84-1.86,1.89-1.86H350.75z M350.75,103.55c0.17,0,0.32-0.14,0.32-0.32v-6.59c0-0.17-0.15-0.31-0.32-0.31h-6.68
		c-0.18,0-0.32,0.14-0.32,0.31v6.59c0,0.17,0.15,0.32,0.32,0.32H350.75z"/>
	<path class="st4" d="M364.68,99.55c0,1.02-0.84,1.86-1.89,1.86h-1.06l2.95,3.47v0.21h-1.86l-3.14-3.68h-3.57
		c-0.12,0-0.22-0.01-0.32-0.03v3.71h-1.57V94.8h8.57c1.05,0,1.89,0.85,1.89,1.86V99.55z M362.79,99.87c0.17,0,0.32-0.14,0.32-0.31
		v-2.89c0-0.17-0.14-0.31-0.32-0.31h-6.68c-0.17,0-0.32,0.14-0.32,0.31v2.89c0,0.17,0.14,0.31,0.32,0.31H362.79z"/>
	<path class="st4" d="M379.03,94.78c1.05,0,1.89,0.83,1.89,1.86v6.59c0,1.03-0.84,1.86-1.89,1.86h-8.57V94.78H379.03z M379.35,96.65
		c0-0.17-0.15-0.31-0.32-0.31h-6.68c-0.18,0-0.32,0.14-0.32,0.31v6.59c0,0.17,0.15,0.32,0.32,0.32h6.68c0.17,0,0.32-0.14,0.32-0.32
		V96.65z"/>
	<polygon class="st4" points="392.16,96.33 384.14,96.33 384.14,99.17 390.59,99.17 390.59,100.71 384.14,100.71 384.14,103.55 
		392.16,103.55 392.16,105.1 382.57,105.1 382.57,94.78 392.16,94.78 	"/>
	<rect x="397.89" y="94.78" class="st4" width="1.57" height="10.31"/>
	<polygon class="st4" points="409.96,94.78 411.53,94.78 411.53,105.1 409.67,105.1 402.64,96.85 402.64,105.1 401.07,105.1 
		401.07,94.78 402.93,94.78 409.96,103.03 	"/>
	<path class="st4" d="M423.54,97.25h-1.57v-0.6c0-0.17-0.15-0.31-0.32-0.31h-6.68c-0.18,0-0.32,0.14-0.32,0.31v2.21
		c0,0.17,0.15,0.31,0.32,0.31h6.68c1.05,0,1.89,0.83,1.89,1.86v2.2c0,1.03-0.84,1.86-1.89,1.86h-6.68c-1.05,0-1.89-0.83-1.89-1.86
		v-0.6h1.57v0.6c0,0.17,0.15,0.32,0.32,0.32h6.68c0.17,0,0.32-0.14,0.32-0.32v-2.2c0-0.17-0.15-0.32-0.32-0.32h-6.68
		c-1.05,0-1.89-0.83-1.89-1.86v-2.21c0-1.03,0.84-1.86,1.89-1.86h6.68c1.05,0,1.89,0.83,1.89,1.86V97.25z"/>
	<path class="st4" d="M433.95,94.78h1.57v8.45c0,1.03-0.84,1.86-1.89,1.86h-6.68c-1.05,0-1.89-0.83-1.89-1.86v-8.45h1.57v8.45
		c0,0.17,0.15,0.32,0.32,0.32h6.68c0.17,0,0.32-0.14,0.32-0.32V94.78z"/>
	<polygon class="st4" points="447.09,94.78 448.97,94.78 448.97,105.1 447.4,105.1 447.4,96.85 443.04,101.96 438.68,96.85 
		438.68,105.1 437.12,105.1 437.12,94.78 438.97,94.78 443.04,99.55 	"/>
	<path class="st4" d="M459.13,94.78c1.05,0,1.89,0.83,1.89,1.86v6.59c0,1.03-0.84,1.86-1.89,1.86h-6.68c-1.05,0-1.89-0.83-1.89-1.86
		v-6.59c0-1.03,0.84-1.86,1.89-1.86H459.13z M459.13,103.55c0.17,0,0.32-0.14,0.32-0.32v-6.59c0-0.17-0.15-0.31-0.32-0.31h-6.68
		c-0.18,0-0.32,0.14-0.32,0.31v6.59c0,0.17,0.15,0.32,0.32,0.32H459.13z"/>
	<path class="st4" d="M473,97.25h-1.57v-0.6c0-0.17-0.14-0.31-0.32-0.31h-6.68c-0.18,0-0.32,0.14-0.32,0.31v2.21
		c0,0.17,0.14,0.31,0.32,0.31h6.68c1.05,0,1.89,0.83,1.89,1.86v2.2c0,1.03-0.84,1.86-1.89,1.86h-6.68c-1.05,0-1.89-0.83-1.89-1.86
		v-0.6h1.57v0.6c0,0.17,0.14,0.32,0.32,0.32h6.68c0.18,0,0.32-0.14,0.32-0.32v-2.2c0-0.17-0.14-0.32-0.32-0.32h-6.68
		c-1.05,0-1.89-0.83-1.89-1.86v-2.21c0-1.03,0.84-1.86,1.89-1.86h6.68c1.05,0,1.89,0.83,1.89,1.86V97.25z"/>
</g>
</svg>
